<svg width="17" height="30" viewBox="0 0 17 30" fill="none" xmlns="http://www.w3.org/2000/svg">
<path d="M10.5006 30H5.70414C4.90298 30 4.25126 29.3472 4.25126 28.5448V17.7086H1.45289C0.651719 17.7086 0 17.0556 0 16.2534V11.61C0 10.8076 0.651719 10.1548 1.45289 10.1548H4.25126V7.82959C4.25126 5.52406 4.97404 3.56255 6.34124 2.15744C7.7146 0.745926 9.63388 0 11.8916 0L15.5496 0.0059509C16.3494 0.00732422 17 0.660095 17 1.46118V5.7724C17 6.57486 16.3485 7.22763 15.5476 7.22763L13.0847 7.22855C12.3335 7.22855 12.1423 7.37938 12.1014 7.42561C12.034 7.50229 11.9537 7.71904 11.9537 8.31757V10.1546H15.3625C15.6191 10.1546 15.8677 10.218 16.0814 10.3374C16.5423 10.5954 16.8288 11.0831 16.8288 11.6103L16.827 16.2536C16.827 17.0556 16.1753 17.7084 15.3741 17.7084H11.9537V28.5448C11.9537 29.3472 11.3018 30 10.5006 30ZM6.00715 28.2413H10.1976V16.9212C10.1976 16.3854 10.6329 15.9496 11.1677 15.9496H15.0711L15.0727 11.9135H11.1674C10.6327 11.9135 10.1976 11.4777 10.1976 10.9419V8.31757C10.1976 7.63046 10.2673 6.84906 10.7851 6.26175C11.4108 5.55176 12.3968 5.46982 13.0842 5.46982L15.2441 5.4689V1.76422L11.8902 1.75873C8.26189 1.75873 6.00715 4.08508 6.00715 7.82959V10.9419C6.00715 11.4775 5.57206 11.9135 5.03734 11.9135H1.75589V15.9496H5.03734C5.57206 15.9496 6.00715 16.3854 6.00715 16.9212V28.2413ZM15.5462 1.76468H15.5464H15.5462Z" fill="white"/>
</svg>
