<svg width="32" height="30" viewBox="0 0 32 30" fill="none" xmlns="http://www.w3.org/2000/svg">
<path d="M31.7618 0.312597C31.485 0.00323796 31.0481 -0.0797153 30.6862 0.0780829L0.561479 13.2383C0.227732 13.3843 0.00835856 13.7105 0.000233623 14.0747C-0.00789131 14.4383 0.196482 14.7739 0.523979 14.9348L7.71705 18.465L9.50953 29.1965C9.56766 29.6038 9.88828 29.9313 10.3058 29.9905C10.6058 30.0335 10.9039 29.9281 11.1101 29.7161L16.7888 24.0491L24.8925 29.8259C25.1525 30.0105 25.4875 30.051 25.7825 29.9344C26.0781 29.8177 26.2944 29.5589 26.3569 29.2477L31.9818 1.11843C32.0375 0.839631 31.9656 0.540875 31.7618 0.312597ZM8.45954 16.7442L3.16271 14.1446L24.0888 5.00288L8.45954 16.7442ZM11.3933 19.5253L10.5214 23.8757L9.58078 18.2436L21.0788 9.60585L11.6489 19.0482C11.5164 19.1804 11.4283 19.3525 11.3933 19.5253ZM11.9639 26.2177L12.9476 21.311L15.242 22.9463L11.9639 26.2177ZM24.8019 27.4614L13.7564 19.5883L29.5356 3.78915L24.8019 27.4614Z" fill="white"/>
</svg>
