<svg width="28" height="30" viewBox="0 0 28 30" fill="none" xmlns="http://www.w3.org/2000/svg">
<path d="M27.9998 10.5883C28 7.77077 26.8735 5.11482 24.8282 3.10959C22.7828 1.10435 20.0737 0 17.1995 0H10.8003C10.8 0 10.8 0 10.8 0C7.92633 0 5.21698 1.10435 3.17184 3.10936C1.12646 5.11482 0 7.77077 0 10.5883V15.5198C0 17.702 0.678912 19.8008 1.96343 21.59C3.09666 23.1683 4.62071 24.4013 6.39761 25.183V28.0156C6.39761 29.4802 7.23411 30 7.95037 30C8.46212 30 8.97388 29.7523 9.47209 29.2641L12.6911 26.1083L17.1997 26.1081C20.0737 26.1081 22.7828 25.0037 24.8282 22.9987C26.8735 20.9935 28 18.3373 28 15.5198L27.9998 10.5883ZM17.1997 24.3503L12.3199 24.3505C12.082 24.3505 11.8541 24.443 11.686 24.6078L8.20438 28.0211C8.19994 28.0257 8.19528 28.03 8.19061 28.0344C8.19061 28.0282 8.19061 28.0218 8.19061 28.0156V24.5963C8.19061 24.2317 7.96111 23.9051 7.61372 23.7751C4.13231 22.4728 1.79323 19.1551 1.79323 15.5198V10.5883C1.79323 8.2402 2.73316 6.02554 4.43978 4.35219C6.1464 2.67929 8.40516 1.75781 10.8003 1.75781H17.1995C19.5946 1.75781 21.8536 2.67929 23.5602 4.35242C25.2671 6.02577 26.207 8.24043 26.2068 10.5883L26.207 15.5198C26.2068 20.389 22.1662 24.3503 17.1997 24.3503Z" fill="white"/>
<path d="M16.384 14.375C16.0341 14.0317 15.4665 14.0317 15.1163 14.375L14.3921 15.0848L11.5859 12.3339L12.3101 11.6241C12.4782 11.4593 12.5727 11.2357 12.5727 11.0025C12.5727 10.7695 12.4782 10.5459 12.3101 10.3811L8.91505 7.05266C8.74695 6.88786 8.51909 6.79517 8.28119 6.79517C8.04353 6.79517 7.81543 6.88786 7.64734 7.05266L5.27068 9.38268C3.98546 10.6427 3.98546 12.6932 5.27091 13.9539L12.7396 21.2765C13.3607 21.8851 14.1888 22.2202 15.071 22.2202C15.9535 22.2202 16.7816 21.8851 17.4026 21.2765L19.7793 18.9467C19.9474 18.7817 20.0419 18.5583 20.0419 18.3251C20.0419 18.0921 19.9474 17.8685 19.7793 17.7037L16.384 14.375ZM16.1347 20.0332C15.8524 20.31 15.4747 20.4624 15.071 20.4624C14.6674 20.4624 14.2896 20.31 14.0074 20.0332L6.53885 12.7108C5.95239 12.1359 5.95216 11.2002 6.53862 10.6255L8.28119 8.9169L10.4083 11.0025L9.68407 11.7122C9.51598 11.877 9.42143 12.1006 9.42143 12.3336C9.42143 12.5669 9.51598 12.7903 9.68407 12.9553L13.758 16.9493C14.1082 17.2924 14.6758 17.2926 15.026 16.9493L15.7502 16.2395L17.8772 18.3249L16.1347 20.0332Z" fill="white"/>
<path d="M14.2175 3.88794C13.7223 3.88794 13.321 4.28139 13.321 4.76685C13.321 5.25208 13.7223 5.64575 14.2175 5.64575C16.2692 5.64575 18.1983 6.42899 19.649 7.85149C21.1 9.27376 21.8989 11.1648 21.8989 13.1764C21.8989 13.6617 22.3002 14.0553 22.7954 14.0553C23.2904 14.0553 23.6919 13.6619 23.6919 13.1764C23.6919 10.6953 22.7065 8.36281 20.917 6.60843C19.1275 4.85405 16.7482 3.88794 14.2175 3.88794Z" fill="white"/>
<path d="M18.058 13.1763C18.058 13.6615 18.4595 14.0552 18.9545 14.0552C19.4496 14.0552 19.851 13.6615 19.851 13.1763C19.851 10.131 17.3237 7.65356 14.2175 7.65356C13.7223 7.65356 13.321 8.04701 13.321 8.53247C13.321 9.01793 13.7223 9.41138 14.2175 9.41138C16.3352 9.41138 18.058 11.1003 18.058 13.1763Z" fill="white"/>
</svg>
