<svg width="56" height="30" viewBox="0 0 56 30" fill="none" xmlns="http://www.w3.org/2000/svg">
<path d="M44.8323 16.9485L55.9662 0H38.8911L38.5723 1.24364C37.7542 4.4364 36.2187 8.76353 33.5505 11.2474C33.2207 11.5541 32.9084 11.8006 32.6208 11.998V0H17.7489V3.31493H19.1383V10.8279C17.4712 9.35158 15.3765 6.53436 14.8279 1.47765L14.6677 0H0L0.503719 2.05452C2.3148 9.44321 5.03164 15.4962 8.57946 20.0453C11.4757 23.7594 14.9253 26.4863 18.832 28.1498C22.3209 29.6356 25.5333 30 27.8447 30C29.9707 30 31.334 29.6916 31.4485 29.6649L32.7024 29.3707L32.7674 24.8168L38.3519 29.7083H56L44.8323 16.9485ZM29.5763 17.6286L29.449 26.6089C27.6106 26.7737 23.9683 26.7801 19.9488 25.0255C16.592 23.5598 13.6102 21.1599 11.0865 17.8919C8.19623 14.1493 5.89681 9.25264 4.23825 3.31493H11.7607C13.3889 12.8227 19.9398 15.2828 20.2317 15.3874L22.4307 16.1772V3.31493H29.3289V16.1935L31.061 16.1023C31.2716 16.0911 33.1844 15.9376 35.4432 13.9884C38.0097 11.7735 40.0181 8.18667 41.422 3.31493H49.8413L40.6957 17.2358L48.7104 26.393H39.5832L29.5763 17.6286Z" fill="white"/>
</svg>
