<svg width="30" height="30" viewBox="0 0 30 30" fill="none" xmlns="http://www.w3.org/2000/svg">
<path d="M25.7388 4.26109C22.9909 1.51314 19.3382 0 15.4518 0C15.4515 0 15.4506 0 15.4504 0C13.5282 0.000228882 11.6551 0.372391 9.88329 1.10641C8.11129 1.84044 6.52376 2.90176 5.16443 4.26109C2.41671 7.00882 0.903568 10.6622 0.903568 14.5482C0.903568 16.8656 1.46273 19.1686 2.52222 21.2206L0.0768467 28.2065C-0.0955013 28.6993 0.0264927 29.2348 0.395908 29.604C0.654316 29.8627 0.994434 30 1.34417 30C1.49408 30 1.6456 29.9748 1.79346 29.9231L8.77939 27.478C10.8313 28.5374 13.1343 29.0966 15.4518 29.0966C19.3377 29.0966 22.9909 27.5832 25.7388 24.8355C28.4866 22.0878 29.9999 18.4344 29.9999 14.5484C29.9999 10.6622 28.4868 7.00882 25.7388 4.26109ZM24.4946 23.5913C22.0793 26.0069 18.8676 27.337 15.4518 27.337C13.3621 27.337 11.2861 26.8201 9.44818 25.8419C9.11493 25.6647 8.72103 25.6343 8.3674 25.7581L2.02051 27.9794L4.24204 21.6325C4.36586 21.2785 4.33519 20.8846 4.15804 20.5515C3.18003 18.7141 2.66298 16.6381 2.66298 14.5482C2.66298 11.1324 3.99324 7.92068 6.40863 5.50529C8.8238 3.09013 12.035 1.75987 15.4506 1.75941H15.4518C18.8678 1.75941 22.0793 3.08968 24.4946 5.50529C26.9103 7.92068 28.2405 11.1321 28.2405 14.5482C28.2405 17.9642 26.9103 21.1759 24.4946 23.5913Z" fill="white"/>
<path d="M20.8585 15.8477C20.1892 15.1784 19.1002 15.1784 18.431 15.8477L17.699 16.5796C15.8814 15.5893 14.4107 14.1185 13.4201 12.3009L14.152 11.569C14.8215 10.8997 14.8215 9.81068 14.152 9.14143L12.1795 7.16893C11.5103 6.49968 10.4212 6.49968 9.75199 7.16893L8.17408 8.74684C7.27022 9.6507 7.22514 11.2046 8.04705 13.1224C8.7607 14.7875 10.0667 16.6176 11.7245 18.2754C13.3823 19.9332 15.2124 21.2392 16.8775 21.9529C17.7887 22.3433 18.6175 22.5381 19.3337 22.5381C20.1249 22.5381 20.7786 22.3003 21.2531 21.8258L22.831 20.2477V20.2479C23.1553 19.9236 23.3338 19.4926 23.3338 19.0342C23.3338 18.5755 23.1553 18.1445 22.831 17.8204L20.8585 15.8477ZM20.0089 20.5816C19.7509 20.8396 18.9576 20.93 17.5708 20.3358C16.1064 19.7082 14.472 18.5345 12.9687 17.0312C11.4654 15.5279 10.2919 13.8937 9.66433 12.4293C9.06992 11.0425 9.16033 10.249 9.41828 9.99104L10.966 8.44334L12.8776 10.3552L11.9614 11.2716C11.5471 11.6859 11.4471 12.3142 11.7128 12.8351C12.9174 15.1972 14.8027 17.0825 17.1648 18.2871C17.686 18.5528 18.3142 18.453 18.7285 18.0385L19.6447 17.1223L21.5566 19.0342L20.0089 20.5816Z" fill="white"/>
</svg>
