<svg width="40" height="30" viewBox="0 0 40 30" fill="none" xmlns="http://www.w3.org/2000/svg">
<path d="M26.1567 13.228L17.3198 8.44017C16.8117 8.16488 16.2111 8.17515 15.7131 8.46737C15.2147 8.75989 14.9175 9.27663 14.9175 9.85018V19.3437C14.9175 19.9145 15.2129 20.4304 15.7079 20.7232C15.9664 20.8761 16.2529 20.9529 16.5401 20.9529C16.8031 20.9529 17.0668 20.8885 17.3094 20.7592L26.1466 16.0538C26.6712 15.7743 26.9987 15.2343 27.0011 14.6441C27.0033 14.0539 26.6798 13.5115 26.1567 13.228ZM17.2615 18.1495V11.0541L23.8661 14.6326L17.2615 18.1495Z" fill="white"/>
<path d="M39.7055 7.08056L39.7037 7.06243C39.6698 6.74362 39.3326 3.90789 37.9404 2.46555C36.3312 0.769068 34.5069 0.562976 33.6295 0.464161C33.5569 0.456001 33.4903 0.448447 33.4308 0.44059L33.361 0.433337C28.0729 0.0525807 20.0868 0.000604376 20.0069 0.000302188L19.9998 0L19.9928 0.000302188C19.9129 0.000604376 11.9268 0.0525807 6.59114 0.433337L6.52064 0.44059C6.46388 0.448145 6.40132 0.455095 6.33326 0.462952C5.46596 0.562069 3.66117 0.768464 2.04741 2.52629C0.72143 3.95322 0.338132 6.72821 0.298765 7.04007L0.294187 7.08056C0.282285 7.21322 0 10.3714 0 13.5419V16.5058C0 19.6764 0.282285 22.8345 0.294187 22.9675L0.296323 22.9874C0.330198 23.3011 0.667109 26.0849 2.0529 27.5278C3.56595 29.1675 5.47908 29.3844 6.50813 29.5011C6.67079 29.5195 6.81086 29.5352 6.90638 29.5519L6.99885 29.5645C10.0521 29.8522 19.6251 29.994 20.031 29.9997L20.0432 30L20.0554 29.9997C20.1353 29.9994 28.1211 29.9474 33.4092 29.5667L33.4791 29.5594C33.5459 29.5506 33.621 29.5428 33.7034 29.5343C34.5658 29.4437 36.3608 29.2554 37.9523 27.5215C39.2783 26.0942 39.6619 23.3192 39.7009 23.0077L39.7055 22.9672C39.7174 22.8342 40 19.6764 40 16.5058V13.5419C39.9997 10.3714 39.7174 7.21353 39.7055 7.08056ZM37.6557 16.5058C37.6557 19.4403 37.3969 22.4625 37.3725 22.7399C37.273 23.5042 36.8686 25.2599 36.2226 25.9552C35.2265 27.0404 34.2032 27.148 33.4562 27.2262C33.3658 27.2356 33.2822 27.2447 33.2065 27.254C28.0918 27.6203 20.4073 27.6765 20.0533 27.6786C19.6562 27.6729 10.2233 27.5299 7.26313 27.2576C7.11146 27.2332 6.94758 27.2144 6.77485 27.1951C5.8987 27.0957 4.69937 26.9597 3.77713 25.9552L3.75546 25.9322C3.1207 25.2774 2.72795 23.6356 2.62815 22.749C2.60954 22.5393 2.34404 19.4814 2.34404 16.5058V13.5419C2.34404 10.6107 2.60221 7.59187 2.62724 7.30871C2.74595 6.4085 3.15793 4.75916 3.77713 4.09253C4.80374 2.97443 5.88619 2.85054 6.60212 2.76865C6.67048 2.76079 6.73426 2.75354 6.79316 2.74598C11.9823 2.37792 19.7221 2.32322 19.9998 2.3211C20.2776 2.32292 28.0146 2.37792 33.1577 2.74598C33.2209 2.75384 33.2898 2.76169 33.364 2.77016C34.1004 2.85326 35.2134 2.97897 36.2348 4.05778L36.2442 4.06775C36.879 4.72259 37.2717 6.39309 37.3715 7.29753C37.3892 7.49547 37.6557 10.56 37.6557 13.5419V16.5058Z" fill="white"/>
</svg>
