<?xml version="1.0" encoding="utf-8"?>
<!-- Generator: Adobe Illustrator 25.2.3, SVG Export Plug-In . SVG Version: 6.00 Build 0)  -->
<svg version="1.1" id="Слой_1" xmlns="http://www.w3.org/2000/svg" xmlns:xlink="http://www.w3.org/1999/xlink" x="0px" y="0px"
	 viewBox="0 0 450 450" style="enable-background:new 0 0 450 450;" xml:space="preserve">
<style type="text/css">
	.st0{fill:#777777;}
</style>
<g>
	<path class="st0" d="M287.74,108.41H67.25c-5.39,0-9.75-4.37-9.75-9.75v-6.49c0-5.39,4.37-9.75,9.75-9.75h220.49
		c5.39,0,9.75,4.37,9.75,9.75v6.49C297.49,104.04,293.13,108.41,287.74,108.41z"/>
	<path class="st0" d="M297.49,92.12v110.49c0,5.39-4.37,9.75-9.75,9.75h-6.49c-5.39,0-9.75-4.37-9.75-9.75V92.12
		c0-5.39,4.37-9.75,9.75-9.75h6.49C293.13,82.36,297.49,86.73,297.49,92.12z"/>
	<path class="st0" d="M353.96,135.41h-72.49c-5.39,0-9.75-4.37-9.75-9.75v-7.49c0-5.39,4.37-9.75,9.75-9.75h72.49
		c5.39,0,9.75,4.37,9.75,9.75v7.49C363.72,131.04,359.35,135.41,353.96,135.41z"/>
	<path class="st0" d="M392.86,212.86H282.36c-5.39,0-9.75-4.37-9.75-9.75v-7.49c0-5.39,4.37-9.75,9.75-9.75h110.49
		c5.39,0,9.75,4.37,9.75,9.75v7.49C402.61,208.5,398.24,212.86,392.86,212.86z"/>
	<path class="st0" d="M378.75,203.61l-39.64-77.8c-2.45-4.8-0.54-10.67,4.26-13.12l5.79-2.95c4.8-2.45,10.67-0.54,13.12,4.26
		l39.64,77.8c2.45,4.8,0.54,10.67-4.26,13.12l-5.79,2.95C387.07,210.32,381.2,208.41,378.75,203.61z"/>
	<path class="st0" d="M407.87,239.65l-23.66-28.2c-3.46-4.13-2.92-10.28,1.2-13.74l4.98-4.17c4.13-3.46,10.28-2.92,13.74,1.2
		l23.66,28.2c3.46,4.13,2.92,10.28-1.2,13.74l-4.98,4.17C417.49,244.32,411.34,243.78,407.87,239.65z"/>
	<path class="st0" d="M403.8,318.82v-86.49c0-5.39,4.37-9.75,9.75-9.75h6.49c5.39,0,9.75,4.37,9.75,9.75v86.49
		c0,5.39-4.37,9.75-9.75,9.75h-6.49C408.17,328.57,403.8,324.2,403.8,318.82z"/>
	<path class="st0" d="M167.78,161.41H51.29c-5.39,0-9.75-4.37-9.75-9.75v-6.49c0-5.39,4.37-9.75,9.75-9.75h116.49
		c5.39,0,9.75,4.37,9.75,9.75v6.49C177.54,157.04,173.17,161.41,167.78,161.41z"/>
	<path class="st0" d="M146.45,212.36H29.95c-5.39,0-9.75-4.37-9.75-9.75v-6.49c0-5.39,4.37-9.75,9.75-9.75h116.49
		c5.39,0,9.75,4.37,9.75,9.75v6.49C156.2,208,151.83,212.36,146.45,212.36z"/>
	<path class="st0" d="M116.87,263.32H51.38c-5.39,0-9.75-4.37-9.75-9.75v-6.49c0-5.39,4.37-9.75,9.75-9.75h65.49
		c5.39,0,9.75,4.37,9.75,9.75v6.49C126.63,258.95,122.26,263.32,116.87,263.32z"/>
	<path class="st0" d="M115.74,328.57H67.25c-5.39,0-9.75-4.37-9.75-9.75v-6.49c0-5.39,4.37-9.75,9.75-9.75h48.49
		c5.39,0,9.75,4.37,9.75,9.75v6.49C125.49,324.2,121.13,328.57,115.74,328.57z"/>
	<path class="st0" d="M415.09,328.57h-48.49c-5.39,0-9.75-4.37-9.75-9.75v-6.49c0-5.39,4.37-9.75,9.75-9.75h48.49
		c5.39,0,9.75,4.37,9.75,9.75v6.49C424.84,324.2,420.48,328.57,415.09,328.57z"/>
	<path class="st0" d="M291.27,328.57H190.77c-5.39,0-9.75-4.37-9.75-9.75v-6.49c0-5.39,4.37-9.75,9.75-9.75h100.49
		c5.39,0,9.75,4.37,9.75,9.75v6.49C301.02,324.2,296.65,328.57,291.27,328.57z"/>
	<path class="st0" d="M153.26,264.32c-28.44,0-51.5,23.06-51.5,51.5s23.06,51.5,51.5,51.5c28.44,0,51.5-23.06,51.5-51.5
		S181.7,264.32,153.26,264.32z M153.26,341.07c-14.08,0-25.5-11.42-25.5-25.5s11.42-25.5,25.5-25.5s25.5,11.42,25.5,25.5
		S167.34,341.07,153.26,341.07z"/>
	<path class="st0" d="M329.07,264.07c-28.44,0-51.5,23.06-51.5,51.5s23.06,51.5,51.5,51.5s51.5-23.06,51.5-51.5
		S357.52,264.07,329.07,264.07z M329.07,341.32c-14.08,0-25.5-11.42-25.5-25.5s11.42-25.5,25.5-25.5s25.5,11.42,25.5,25.5
		S343.16,341.32,329.07,341.32z"/>
</g>
</svg>
