<?xml version="1.0" encoding="utf-8"?>
<!-- Generator: Adobe Illustrator 25.2.3, SVG Export Plug-In . SVG Version: 6.00 Build 0)  -->
<svg version="1.1" id="Слой_1" xmlns="http://www.w3.org/2000/svg" xmlns:xlink="http://www.w3.org/1999/xlink" x="0px" y="0px"
	 viewBox="0 0 399 397" style="enable-background:new 0 0 399 397;" xml:space="preserve">
<style type="text/css">
	.st0{fill:#777777;}
	.st1{fill:none;stroke:#777777;stroke-width:30;stroke-linecap:round;stroke-miterlimit:10;}
</style>
<path class="st0" d="M199.5,7C93.74,7,8,92.51,8,198s85.74,191,191.5,191S391,303.49,391,198S305.26,7,199.5,7z M200,360
	c-89.47,0-162-72.53-162-162S110.53,36,200,36s162,72.53,162,162S289.47,360,200,360z"/>
<circle class="st0" cx="134" cy="148" r="18"/>
<circle class="st0" cx="265" cy="148" r="18"/>
<path class="st1" d="M133,245l14.77,14.67c27.61,27.43,72.21,27.36,99.73-0.16L264,243"/>
</svg>
