<?xml version="1.0" encoding="utf-8"?>
<!-- Generator: Adobe Illustrator 25.2.3, SVG Export Plug-In . SVG Version: 6.00 Build 0)  -->
<svg version="1.1" id="Слой_1" xmlns="http://www.w3.org/2000/svg" xmlns:xlink="http://www.w3.org/1999/xlink" x="0px" y="0px"
	 viewBox="0 0 353 397" style="enable-background:new 0 0 353 397;" xml:space="preserve">
<style type="text/css">
	.st0{fill:#777777;}
</style>
<path class="st0" d="M177,164c-18.78,0-34,15.22-34,34c0,18.78,15.22,34,34,34s34-15.22,34-34C211,179.22,195.78,164,177,164z
	 M177,209c-6.08,0-11-4.92-11-11s4.92-11,11-11s11,4.92,11,11S183.08,209,177,209z"/>
<path class="st0" d="M177,5c-44.74,0-81,86.63-81,193.5S132.26,392,177,392s81-86.63,81-193.5S221.74,5,177,5z M177.5,368
	c-31.2,0-56.5-75.89-56.5-169.5S146.3,29,177.5,29S234,104.89,234,198.5S208.7,368,177.5,368z"/>
<path class="st0" d="M344.59,101.13c-22.37-38.74-115.53-26.83-208.08,26.6S-12.93,255.89,9.43,294.63s115.53,26.83,208.08-26.6
	S366.95,139.88,344.59,101.13z M30.47,283.07c-15.6-27.02,37.47-86.87,118.54-133.68s159.44-62.84,175.04-35.82
	s-37.47,86.87-118.54,133.68S46.07,310.09,30.47,283.07z"/>
<path class="st0" d="M9.43,102.13c-22.37,38.74,34.53,113.46,127.08,166.9s185.71,65.34,208.08,26.6
	c22.37-38.74-34.53-113.46-127.08-166.9S31.8,63.39,9.43,102.13z M324.05,283.2c-15.6,27.02-93.97,10.99-175.04-35.82
	S14.87,140.72,30.47,113.7s93.97-10.99,175.04,35.82S339.65,256.18,324.05,283.2z"/>
</svg>
