<?xml version="1.0" encoding="utf-8"?>
<!-- Generator: Adobe Illustrator 25.2.3, SVG Export Plug-In . SVG Version: 6.00 Build 0)  -->
<svg version="1.1" id="Слой_1" xmlns="http://www.w3.org/2000/svg" xmlns:xlink="http://www.w3.org/1999/xlink" x="0px" y="0px"
	 viewBox="0 0 520 520" style="enable-background:new 0 0 520 520;" xml:space="preserve">
<style type="text/css">
	.st0{fill:#FFCD00;}
</style>
<path class="st0" d="M397.45,499.05l-134.58-73.38c-3.64-1.99-8.03-2.05-11.74-0.18l-136.74,69.27c-9.33,4.72-20.02-3.3-18.1-13.57
	l28.2-150.67c0.76-4.08-0.53-8.28-3.46-11.22L12.89,210.66c-7.37-7.41-3.05-20.06,7.31-21.4l152.01-19.74
	c4.12-0.53,7.71-3.06,9.6-6.75l69.91-136.41c4.77-9.3,18.13-9.1,22.62,0.34l65.75,138.47c1.78,3.75,5.29,6.38,9.39,7.04
	l151.34,24.34c10.32,1.66,14.26,14.43,6.66,21.62L396.12,323.47c-3.02,2.85-4.44,7.01-3.8,11.11l23.62,151.45
	C417.56,496.37,406.63,504.06,397.45,499.05z"/>
</svg>
