<?xml version="1.0" encoding="utf-8"?>
<!-- Generator: Adobe Illustrator 25.2.3, SVG Export Plug-In . SVG Version: 6.00 Build 0)  -->
<svg version="1.1" id="Слой_1" xmlns="http://www.w3.org/2000/svg" xmlns:xlink="http://www.w3.org/1999/xlink" x="0px" y="0px"
	 viewBox="0 0 520 520" style="enable-background:new 0 0 520 520;" xml:space="preserve">
<style type="text/css">
	.st0{fill:#FFCD00;}
</style>
<path class="st0" d="M507.49,218.15c7.6-7.18,3.66-19.96-6.66-21.62L349.49,172.2c-4.1-0.66-7.61-3.29-9.39-7.04L274.35,26.69
	c-4.48-9.44-17.85-9.65-22.62-0.34l-69.91,136.41c-1.89,3.69-5.48,6.22-9.6,6.75L20.21,189.26c-10.37,1.35-14.69,14-7.31,21.4
	l108.13,108.64c2.93,2.94,4.22,7.14,3.46,11.22L96.29,481.2c-1.92,10.28,8.77,18.3,18.1,13.57l136.74-69.27
	c3.7-1.88,8.09-1.81,11.74,0.18l134.58,73.38c9.18,5,20.11-2.69,18.5-13.02l-23.62-151.45c-0.64-4.1,0.78-8.26,3.8-11.11
	L507.49,218.15z M368.87,429.41l-109.31-58.47l-110.13,56.9l21.83-122.03L83.1,218.65l122.8-16.95l55.65-110.77l54.07,111.55
	l122.55,18.7l-89.39,85.89L368.87,429.41z"/>
</svg>
