<svg width="31" height="31" viewBox="0 0 31 31" fill="none" xmlns="http://www.w3.org/2000/svg">
<path d="M3.14404 27.9668L4.88392 21.6151C3.81054 19.7564 3.24608 17.6471 3.24673 15.4868C3.24996 8.72812 8.74988 3.22949 15.5092 3.22949C18.7894 3.23078 21.8674 4.5076 24.1827 6.8242C26.4974 9.14145 27.7723 12.2208 27.771 15.4964C27.7684 22.2551 22.2672 27.7544 15.5092 27.7544C15.5085 27.7544 15.5092 27.7544 15.5092 27.7544H15.504C13.4522 27.7537 11.4353 27.239 9.64436 26.2618L3.14404 27.9668Z" fill="white"/>
<path d="M3.14392 28.2894C3.05867 28.2894 2.97601 28.2558 2.91465 28.1938C2.83392 28.1118 2.80228 27.9924 2.83263 27.8819L4.53699 21.6587C3.4804 19.7819 2.92305 17.6506 2.92434 15.4871C2.92692 8.54954 8.57215 2.90625 15.509 2.90625C18.8738 2.90754 22.0352 4.21794 24.4112 6.5959C26.7872 8.9745 28.095 12.1352 28.0938 15.4961C28.0912 22.433 22.4453 28.077 15.509 28.077C13.4495 28.0763 11.4119 27.568 9.60355 26.6064L3.22594 28.2785C3.19882 28.2862 3.17169 28.2894 3.14392 28.2894Z" fill="white"/>
<path d="M15.509 3.22884C18.7892 3.23013 21.8673 4.50695 24.1826 6.82355C26.4972 9.1408 27.7721 12.2201 27.7708 15.4958C27.7682 22.2544 22.267 27.7537 15.509 27.7537H15.5039C13.4521 27.7531 11.4351 27.2383 9.64421 26.2612L3.1439 27.9662L4.88378 21.6144C3.8104 19.7557 3.24594 17.6464 3.24659 15.4861C3.24982 8.72747 8.74974 3.22884 15.509 3.22884ZM15.509 2.58301C8.39453 2.58301 2.60399 8.37097 2.60076 15.4861C2.60011 17.6606 3.14907 19.8035 4.19015 21.7003L2.52067 27.7963C2.45996 28.0192 2.52196 28.2568 2.68471 28.4209C2.80742 28.5449 2.9734 28.6127 3.1439 28.6127C3.1988 28.6127 3.25369 28.6056 3.30794 28.5914L9.56413 26.9509C11.3905 27.899 13.4378 28.3995 15.5039 28.4002C22.6235 28.4002 28.4141 22.6116 28.4173 15.4964C28.4186 12.0483 27.0772 8.80626 24.6405 6.36759C22.2024 3.92828 18.9597 2.5843 15.509 2.58301Z" fill="#CFD8DC"/>
<path d="M22.718 8.28743C20.7934 6.36155 18.2353 5.30045 15.5124 5.2998C9.89109 5.2998 5.31923 9.86972 5.31665 15.4872C5.31601 17.4124 5.85463 19.2866 6.87505 20.9096L7.11788 21.2952L6.08778 25.0545L9.94534 24.0432L10.318 24.264C11.8822 25.1928 13.6763 25.6836 15.5053 25.6842H15.5092C21.1267 25.6842 25.6985 21.1137 25.7004 15.4956C25.7011 12.7734 24.6426 10.2133 22.718 8.28743Z" fill="#40C351"/>
<path fill-rule="evenodd" clip-rule="evenodd" d="M12.4439 10.3629C12.2146 9.85266 11.9731 9.84233 11.7541 9.83329C11.5752 9.82554 11.3711 9.82619 11.1671 9.82619C10.963 9.82619 10.631 9.90304 10.3501 10.2098C10.0691 10.5166 9.27734 11.2574 9.27734 12.7647C9.27734 14.2721 10.3753 15.7291 10.5283 15.9332C10.6814 16.1373 12.6479 19.3296 15.7622 20.558C18.35 21.5784 18.877 21.3756 19.4389 21.3246C20.0008 21.2736 21.2517 20.5838 21.5068 19.8682C21.762 19.1527 21.762 18.5398 21.6857 18.4119C21.6089 18.284 21.4048 18.2078 21.0987 18.0541C20.7926 17.9004 19.2858 17.1596 19.0049 17.0576C18.724 16.9555 18.5199 16.9045 18.3151 17.2113C18.1111 17.5174 17.524 18.2078 17.3451 18.4119C17.1662 18.6166 16.9873 18.6425 16.6812 18.4887C16.3751 18.335 15.3882 18.0121 14.2173 16.9685C13.3067 16.1566 12.6919 15.1537 12.513 14.8469C12.3341 14.5408 12.4936 14.3748 12.6473 14.2217C12.7849 14.0842 12.9534 13.8639 13.1071 13.685C13.2602 13.5061 13.3112 13.3783 13.4133 13.1742C13.5153 12.9695 13.4643 12.7906 13.3874 12.6375C13.3119 12.4838 12.7164 10.9687 12.4439 10.3629Z" fill="white"/>
</svg>
