<?xml version="1.0" encoding="utf-8"?>
<!-- Generator: Adobe Illustrator 25.2.3, SVG Export Plug-In . SVG Version: 6.00 Build 0)  -->
<svg version="1.1" id="Слой_1" xmlns="http://www.w3.org/2000/svg" xmlns:xlink="http://www.w3.org/1999/xlink" x="0px" y="0px"
	 viewBox="0 0 455 393" style="enable-background:new 0 0 455 393;" xml:space="preserve">
<style type="text/css">
	.st0{fill:#750DC3;}
</style>
<g>
	<path class="st0" d="M416,228H39c-18.23,0-33-14.77-33-33v0c0-18.23,14.77-33,33-33h377c18.23,0,33,14.77,33,33v0
		C449,213.23,434.23,228,416,228z"/>
	<path class="st0" d="M393.46,216.62L236.75,59.92c-12.89-12.89-12.89-33.78,0-46.67l0,0c12.89-12.89,33.78-12.89,46.67,0
		l156.71,156.71c12.89,12.89,12.89,33.78,0,46.67l0,0C427.24,229.51,406.34,229.51,393.46,216.62z"/>
	<path class="st0" d="M283.7,377.77L440.4,221.07c12.89-12.89,12.89-33.78,0-46.67l0,0c-12.89-12.89-33.78-12.89-46.67,0
		L237.03,331.1c-12.89,12.89-12.89,33.78,0,46.67l0,0C249.92,390.66,270.81,390.66,283.7,377.77z"/>
</g>
</svg>
