<?xml version="1.0" encoding="utf-8"?>
<!-- Generator: Adobe Illustrator 25.2.3, SVG Export Plug-In . SVG Version: 6.00 Build 0)  -->
<svg version="1.1" id="Слой_1" xmlns="http://www.w3.org/2000/svg" xmlns:xlink="http://www.w3.org/1999/xlink" x="0px" y="0px"
	 viewBox="0 0 400 445" style="enable-background:new 0 0 400 445;" xml:space="preserve">
<style type="text/css">
	.st0{fill:none;stroke:#FF0000;stroke-width:23;stroke-miterlimit:10;}
	.st1{fill:#777777;}
	.st2{fill:none;stroke:#777777;stroke-width:23;stroke-linecap:round;stroke-miterlimit:10;}
</style>
<g>
	<path class="st1" d="M381,29.5H19.5c-6.08,0-11-4.92-11-11v0c0-6.08,4.92-11,11-11H381c6.08,0,11,4.92,11,11v0
		C392,24.58,387.08,29.5,381,29.5z"/>
	<path class="st1" d="M72,8v32c0,17.67,14.77,32,33,32h190c18.23,0,33-14.33,33-32V8H72z M307,40c0,5.89-4.92,10.67-11,10.67H105
		c-6.08,0-11-4.78-11-10.67V29.33h213V40z"/>
	<path class="st1" d="M135,50.87v72.74c0,30.47,24.7,55.16,55.16,55.16h19.67c30.47,0,55.16-24.7,55.16-55.16V50.87H135z
		 M243,123.41c0,20.21-16.38,36.59-36.59,36.59h-11.82c-20.21,0-36.59-16.38-36.59-36.59V72h85V123.41z"/>
	<path class="st1" d="M168,161v54.21c0,13.69,11.1,24.79,24.79,24.79h15.41c13.69,0,24.79-11.1,24.79-24.79V161H168z M211,210.5
		c0,5.8-4.7,10.5-10.5,10.5s-10.5-4.7-10.5-10.5V175h21V210.5z"/>
	<path class="st1" d="M200,264L200,264c-6.63,0-12-5.37-12-12v-16c0-6.63,5.37-12,12-12h0c6.63,0,12,5.37,12,12v16
		C212,258.63,206.63,264,200,264z"/>
	<path class="st2" d="M381.5,424.5H40.42c-11,0-19.92-8.92-19.92-19.92v-7.05c0-9.96,8.07-18.03,18.03-18.03h282.78
		c10.05,0,18.19-8.14,18.19-18.19v-3.18c0-10.29-8.34-18.63-18.63-18.63h-98.05c-12.33,0-22.33-10-22.33-22.33V295.5"/>
</g>
</svg>
