<?xml version="1.0" encoding="utf-8"?>
<!-- Generator: Adobe Illustrator 25.2.3, SVG Export Plug-In . SVG Version: 6.00 Build 0)  -->
<svg version="1.1" id="Слой_1" xmlns="http://www.w3.org/2000/svg" xmlns:xlink="http://www.w3.org/1999/xlink" x="0px" y="0px"
	 viewBox="0 0 460 339" style="enable-background:new 0 0 460 339;" xml:space="preserve">
<style type="text/css">
	.st0{fill:#777777;}
	.st1{fill:none;stroke:#777777;stroke-width:62;stroke-linecap:round;stroke-miterlimit:10;}
</style>
<g>
	<g>
		<path class="st0" d="M137.94,200H70.06C36.89,200,10,173.11,10,139.94V72.06C10,38.89,36.89,12,70.06,12h67.88
			C171.11,12,198,38.89,198,72.06v67.88C198,173.11,171.11,200,137.94,200z"/>
		<path class="st1" d="M167,84v124.17c0,47.96-38.88,86.83-86.83,86.83H67"/>
	</g>
	<g>
		<path class="st0" d="M388.94,200h-67.88c-33.17,0-60.06-26.89-60.06-60.06V72.06C261,38.89,287.89,12,321.06,12h67.88
			C422.11,12,449,38.89,449,72.06v67.88C449,173.11,422.11,200,388.94,200z"/>
		<path class="st1" d="M418,84v124.17c0,47.96-38.88,86.83-86.83,86.83H318"/>
	</g>
</g>
</svg>
