<?xml version="1.0" encoding="utf-8"?>
<!-- Generator: Adobe Illustrator 25.2.3, SVG Export Plug-In . SVG Version: 6.00 Build 0)  -->
<svg version="1.1" id="Слой_1" xmlns="http://www.w3.org/2000/svg" xmlns:xlink="http://www.w3.org/1999/xlink" x="0px" y="0px"
	 viewBox="0 0 375 376" style="enable-background:new 0 0 375 376;" xml:space="preserve">
<style type="text/css">
	.st0{fill:#777777;}
</style>
<g>
	<path class="st0" d="M186.5,9C87.36,9,7,89.36,7,188.5S87.36,368,186.5,368S366,287.64,366,188.5S285.64,9,186.5,9z M187,333
		c-80.08,0-145-64.92-145-145S106.92,43,187,43s145,64.92,145,145S267.08,333,187,333z"/>
	<path class="st0" d="M186.5,205L186.5,205c-9.11,0-16.5-7.39-16.5-16.5v-97c0-9.11,7.39-16.5,16.5-16.5h0
		c9.11,0,16.5,7.39,16.5,16.5v97C203,197.61,195.61,205,186.5,205z"/>
	<path class="st0" d="M244.36,247.06L244.36,247.06c-6.44,6.44-16.89,6.44-23.33,0l-46.3-46.3c-6.44-6.44-6.44-16.89,0-23.33l0,0
		c6.44-6.44,16.89-6.44,23.33,0l46.3,46.3C250.8,230.17,250.8,240.62,244.36,247.06z"/>
</g>
</svg>
