<svg width="846" height="551" viewBox="0 0 846 551" fill="none" xmlns="http://www.w3.org/2000/svg">
<path d="M243 351L388 290" stroke="white"/>
<g filter="url(#filter0_i)">
<circle cx="242.5" cy="351.5" r="8.5" fill="white" fill-opacity="0.2"/>
</g>
<circle cx="242.5" cy="351.5" r="8" stroke="white" stroke-opacity="0.5"/>
<circle cx="242.5" cy="351.5" r="4.5" fill="white"/>
<g filter="url(#filter1_i)">
<rect x="387" y="266" width="286" height="43" rx="21.5" fill="white" fill-opacity="0.2"/>
</g>
<rect x="387.5" y="266.5" width="285" height="42" rx="21" stroke="white"/>
<rect x="390" y="269" width="280" height="37" rx="18.5" fill="white"/>
<path d="M410.117 293H408.789V282.758H402.922V293H401.594V281.578H410.117V293ZM419.453 293H418.141V285.547H415.57C415.43 287.401 415.234 288.872 414.984 289.961C414.734 291.049 414.409 291.846 414.008 292.352C413.612 292.857 413.107 293.109 412.492 293.109C412.211 293.109 411.987 293.078 411.82 293.016V292.055C411.935 292.086 412.065 292.102 412.211 292.102C412.81 292.102 413.286 291.469 413.641 290.203C413.995 288.938 414.263 287.016 414.445 284.438H419.453V293ZM427.477 293L427.219 291.781H427.156C426.729 292.318 426.302 292.682 425.875 292.875C425.453 293.062 424.924 293.156 424.289 293.156C423.44 293.156 422.773 292.938 422.289 292.5C421.81 292.062 421.57 291.44 421.57 290.633C421.57 288.904 422.953 287.997 425.719 287.914L427.172 287.867V287.336C427.172 286.664 427.026 286.169 426.734 285.852C426.448 285.529 425.987 285.367 425.352 285.367C424.638 285.367 423.831 285.586 422.93 286.023L422.531 285.031C422.953 284.802 423.414 284.622 423.914 284.492C424.419 284.362 424.924 284.297 425.43 284.297C426.451 284.297 427.206 284.523 427.695 284.977C428.19 285.43 428.438 286.156 428.438 287.156V293H427.477ZM424.547 292.086C425.354 292.086 425.987 291.865 426.445 291.422C426.909 290.979 427.141 290.359 427.141 289.562V288.789L425.844 288.844C424.812 288.88 424.068 289.042 423.609 289.328C423.156 289.609 422.93 290.049 422.93 290.648C422.93 291.117 423.07 291.474 423.352 291.719C423.638 291.964 424.036 292.086 424.547 292.086ZM434.539 293.156C433.299 293.156 432.339 292.776 431.656 292.016C430.979 291.25 430.641 290.169 430.641 288.773C430.641 287.341 430.984 286.234 431.672 285.453C432.365 284.672 433.349 284.281 434.625 284.281C435.036 284.281 435.448 284.326 435.859 284.414C436.271 284.503 436.594 284.607 436.828 284.727L436.43 285.828C436.143 285.714 435.831 285.62 435.492 285.547C435.154 285.469 434.854 285.43 434.594 285.43C432.854 285.43 431.984 286.539 431.984 288.758C431.984 289.81 432.195 290.617 432.617 291.18C433.044 291.742 433.674 292.023 434.508 292.023C435.221 292.023 435.953 291.87 436.703 291.562V292.711C436.13 293.008 435.409 293.156 434.539 293.156ZM444.516 285.547H441.734V293H440.438V285.547H437.688V284.438H444.516V285.547ZM447.43 284.438V289.867L447.375 291.289L447.352 291.734L451.984 284.438H453.602V293H452.391V287.766L452.414 286.734L452.453 285.719L447.828 293H446.211V284.438H447.43ZM461.344 284.438H462.766L459.07 288.57L463.07 293H461.555L457.648 288.664V293H456.352V284.438H457.648V288.602L461.344 284.438ZM472.055 288.711C472.055 290.107 471.703 291.198 471 291.984C470.297 292.766 469.326 293.156 468.086 293.156C467.32 293.156 466.641 292.977 466.047 292.617C465.453 292.258 464.995 291.742 464.672 291.07C464.349 290.398 464.188 289.612 464.188 288.711C464.188 287.315 464.536 286.229 465.234 285.453C465.932 284.672 466.901 284.281 468.141 284.281C469.339 284.281 470.289 284.68 470.992 285.477C471.701 286.273 472.055 287.352 472.055 288.711ZM465.531 288.711C465.531 289.805 465.75 290.638 466.188 291.211C466.625 291.784 467.268 292.07 468.117 292.07C468.966 292.07 469.609 291.786 470.047 291.219C470.49 290.646 470.711 289.81 470.711 288.711C470.711 287.622 470.49 286.797 470.047 286.234C469.609 285.667 468.961 285.383 468.102 285.383C467.253 285.383 466.612 285.661 466.18 286.219C465.747 286.776 465.531 287.607 465.531 288.711ZM481.281 286.586C481.281 287.143 481.12 287.568 480.797 287.859C480.479 288.146 480.031 288.339 479.453 288.438V288.508C480.182 288.607 480.714 288.82 481.047 289.148C481.385 289.477 481.555 289.93 481.555 290.508C481.555 291.305 481.26 291.919 480.672 292.352C480.089 292.784 479.234 293 478.109 293H474.336V284.438H478.094C480.219 284.438 481.281 285.154 481.281 286.586ZM480.258 290.422C480.258 289.958 480.081 289.622 479.727 289.414C479.378 289.201 478.797 289.094 477.984 289.094H475.633V291.914H478.016C479.51 291.914 480.258 291.417 480.258 290.422ZM480.016 286.711C480.016 286.294 479.854 286 479.531 285.828C479.214 285.651 478.729 285.562 478.078 285.562H475.633V287.977H477.828C478.63 287.977 479.195 287.878 479.523 287.68C479.852 287.482 480.016 287.159 480.016 286.711ZM490.836 288.711C490.836 290.107 490.484 291.198 489.781 291.984C489.078 292.766 488.107 293.156 486.867 293.156C486.102 293.156 485.422 292.977 484.828 292.617C484.234 292.258 483.776 291.742 483.453 291.07C483.13 290.398 482.969 289.612 482.969 288.711C482.969 287.315 483.318 286.229 484.016 285.453C484.714 284.672 485.682 284.281 486.922 284.281C488.12 284.281 489.07 284.68 489.773 285.477C490.482 286.273 490.836 287.352 490.836 288.711ZM484.312 288.711C484.312 289.805 484.531 290.638 484.969 291.211C485.406 291.784 486.049 292.07 486.898 292.07C487.747 292.07 488.391 291.786 488.828 291.219C489.271 290.646 489.492 289.81 489.492 288.711C489.492 287.622 489.271 286.797 488.828 286.234C488.391 285.667 487.742 285.383 486.883 285.383C486.034 285.383 485.393 285.661 484.961 286.219C484.529 286.776 484.312 287.607 484.312 288.711ZM496.734 293.156C495.469 293.156 494.469 292.771 493.734 292C493.005 291.229 492.641 290.159 492.641 288.789C492.641 287.409 492.979 286.312 493.656 285.5C494.339 284.688 495.253 284.281 496.398 284.281C497.471 284.281 498.32 284.635 498.945 285.344C499.57 286.047 499.883 286.977 499.883 288.133V288.953H493.984C494.01 289.958 494.263 290.721 494.742 291.242C495.227 291.763 495.906 292.023 496.781 292.023C497.703 292.023 498.615 291.831 499.516 291.445V292.602C499.057 292.799 498.622 292.94 498.211 293.023C497.805 293.112 497.312 293.156 496.734 293.156ZM496.383 285.367C495.695 285.367 495.146 285.591 494.734 286.039C494.328 286.487 494.089 287.107 494.016 287.898H498.492C498.492 287.081 498.31 286.456 497.945 286.023C497.581 285.586 497.06 285.367 496.383 285.367ZM511.25 284.438H512.672L508.977 288.57L512.977 293H511.461L507.555 288.664V293H506.258V284.438H507.555V288.602L511.25 284.438ZM518.555 293.156C517.997 293.156 517.487 293.055 517.023 292.852C516.565 292.643 516.18 292.326 515.867 291.898H515.773C515.836 292.398 515.867 292.872 515.867 293.32V296.844H514.57V284.438H515.625L515.805 285.609H515.867C516.201 285.141 516.589 284.802 517.031 284.594C517.474 284.385 517.982 284.281 518.555 284.281C519.69 284.281 520.565 284.669 521.18 285.445C521.799 286.221 522.109 287.31 522.109 288.711C522.109 290.117 521.794 291.211 521.164 291.992C520.539 292.768 519.669 293.156 518.555 293.156ZM518.367 285.383C517.492 285.383 516.859 285.625 516.469 286.109C516.078 286.594 515.878 287.365 515.867 288.422V288.711C515.867 289.914 516.068 290.776 516.469 291.297C516.87 291.812 517.513 292.07 518.398 292.07C519.138 292.07 519.716 291.771 520.133 291.172C520.555 290.573 520.766 289.747 520.766 288.695C520.766 287.628 520.555 286.81 520.133 286.242C519.716 285.669 519.128 285.383 518.367 285.383ZM531.773 288.711C531.773 290.107 531.422 291.198 530.719 291.984C530.016 292.766 529.044 293.156 527.805 293.156C527.039 293.156 526.359 292.977 525.766 292.617C525.172 292.258 524.714 291.742 524.391 291.07C524.068 290.398 523.906 289.612 523.906 288.711C523.906 287.315 524.255 286.229 524.953 285.453C525.651 284.672 526.62 284.281 527.859 284.281C529.057 284.281 530.008 284.68 530.711 285.477C531.419 286.273 531.773 287.352 531.773 288.711ZM525.25 288.711C525.25 289.805 525.469 290.638 525.906 291.211C526.344 291.784 526.987 292.07 527.836 292.07C528.685 292.07 529.328 291.786 529.766 291.219C530.208 290.646 530.43 289.81 530.43 288.711C530.43 287.622 530.208 286.797 529.766 286.234C529.328 285.667 528.68 285.383 527.82 285.383C526.971 285.383 526.331 285.661 525.898 286.219C525.466 286.776 525.25 287.607 525.25 288.711ZM538.5 291.75L538.742 291.023L539.078 290.102L541.398 284.453H543.047V293H541.898V285.93L541.742 286.383L541.289 287.578L539.078 293H537.992L535.781 287.562C535.505 286.865 535.315 286.32 535.211 285.93V293H534.055V284.453H535.641L537.883 289.883C538.107 290.456 538.312 291.078 538.5 291.75ZM550.812 284.438H552.234L548.539 288.57L552.539 293H551.023L547.117 288.664V293H545.82V284.438H547.117V288.602L550.812 284.438ZM561.523 288.711C561.523 290.107 561.172 291.198 560.469 291.984C559.766 292.766 558.794 293.156 557.555 293.156C556.789 293.156 556.109 292.977 555.516 292.617C554.922 292.258 554.464 291.742 554.141 291.07C553.818 290.398 553.656 289.612 553.656 288.711C553.656 287.315 554.005 286.229 554.703 285.453C555.401 284.672 556.37 284.281 557.609 284.281C558.807 284.281 559.758 284.68 560.461 285.477C561.169 286.273 561.523 287.352 561.523 288.711ZM555 288.711C555 289.805 555.219 290.638 555.656 291.211C556.094 291.784 556.737 292.07 557.586 292.07C558.435 292.07 559.078 291.786 559.516 291.219C559.958 290.646 560.18 289.81 560.18 288.711C560.18 287.622 559.958 286.797 559.516 286.234C559.078 285.667 558.43 285.383 557.57 285.383C556.721 285.383 556.081 285.661 555.648 286.219C555.216 286.776 555 287.607 555 288.711ZM570.75 286.586C570.75 287.143 570.589 287.568 570.266 287.859C569.948 288.146 569.5 288.339 568.922 288.438V288.508C569.651 288.607 570.182 288.82 570.516 289.148C570.854 289.477 571.023 289.93 571.023 290.508C571.023 291.305 570.729 291.919 570.141 292.352C569.557 292.784 568.703 293 567.578 293H563.805V284.438H567.562C569.688 284.438 570.75 285.154 570.75 286.586ZM569.727 290.422C569.727 289.958 569.549 289.622 569.195 289.414C568.846 289.201 568.266 289.094 567.453 289.094H565.102V291.914H567.484C568.979 291.914 569.727 291.417 569.727 290.422ZM569.484 286.711C569.484 286.294 569.323 286 569 285.828C568.682 285.651 568.198 285.562 567.547 285.562H565.102V287.977H567.297C568.099 287.977 568.664 287.878 568.992 287.68C569.32 287.482 569.484 287.159 569.484 286.711ZM578.18 293L577.922 291.781H577.859C577.432 292.318 577.005 292.682 576.578 292.875C576.156 293.062 575.628 293.156 574.992 293.156C574.143 293.156 573.477 292.938 572.992 292.5C572.513 292.062 572.273 291.44 572.273 290.633C572.273 288.904 573.656 287.997 576.422 287.914L577.875 287.867V287.336C577.875 286.664 577.729 286.169 577.438 285.852C577.151 285.529 576.69 285.367 576.055 285.367C575.341 285.367 574.534 285.586 573.633 286.023L573.234 285.031C573.656 284.802 574.117 284.622 574.617 284.492C575.122 284.362 575.628 284.297 576.133 284.297C577.154 284.297 577.909 284.523 578.398 284.977C578.893 285.43 579.141 286.156 579.141 287.156V293H578.18ZM575.25 292.086C576.057 292.086 576.69 291.865 577.148 291.422C577.612 290.979 577.844 290.359 577.844 289.562V288.789L576.547 288.844C575.516 288.88 574.771 289.042 574.312 289.328C573.859 289.609 573.633 290.049 573.633 290.648C573.633 291.117 573.773 291.474 574.055 291.719C574.341 291.964 574.74 292.086 575.25 292.086ZM583.117 284.438V288.023H587.914V284.438H589.211V293H587.914V289.141H583.117V293H581.82V284.438H583.117ZM593.18 284.438V289.867L593.125 291.289L593.102 291.734L597.734 284.438H599.352V293H598.141V287.766L598.164 286.734L598.203 285.719L593.578 293H591.961V284.438H593.18ZM605.719 293.156C604.453 293.156 603.453 292.771 602.719 292C601.99 291.229 601.625 290.159 601.625 288.789C601.625 287.409 601.964 286.312 602.641 285.5C603.323 284.688 604.237 284.281 605.383 284.281C606.456 284.281 607.305 284.635 607.93 285.344C608.555 286.047 608.867 286.977 608.867 288.133V288.953H602.969C602.995 289.958 603.247 290.721 603.727 291.242C604.211 291.763 604.891 292.023 605.766 292.023C606.688 292.023 607.599 291.831 608.5 291.445V292.602C608.042 292.799 607.607 292.94 607.195 293.023C606.789 293.112 606.297 293.156 605.719 293.156ZM605.367 285.367C604.68 285.367 604.13 285.591 603.719 286.039C603.312 286.487 603.073 287.107 603 287.898H607.477C607.477 287.081 607.294 286.456 606.93 286.023C606.565 285.586 606.044 285.367 605.367 285.367ZM622.156 293H614.648V291.883L617.656 288.859C618.573 287.932 619.177 287.271 619.469 286.875C619.76 286.479 619.979 286.094 620.125 285.719C620.271 285.344 620.344 284.94 620.344 284.508C620.344 283.898 620.159 283.417 619.789 283.062C619.419 282.703 618.906 282.523 618.25 282.523C617.776 282.523 617.326 282.602 616.898 282.758C616.477 282.914 616.005 283.198 615.484 283.609L614.797 282.727C615.849 281.852 616.995 281.414 618.234 281.414C619.307 281.414 620.148 281.69 620.758 282.242C621.367 282.789 621.672 283.526 621.672 284.453C621.672 285.177 621.469 285.893 621.062 286.602C620.656 287.31 619.896 288.206 618.781 289.289L616.281 291.734V291.797H622.156V293ZM624.211 292.172C624.211 291.823 624.289 291.56 624.445 291.383C624.607 291.201 624.836 291.109 625.133 291.109C625.435 291.109 625.669 291.201 625.836 291.383C626.008 291.56 626.094 291.823 626.094 292.172C626.094 292.51 626.008 292.771 625.836 292.953C625.664 293.135 625.43 293.227 625.133 293.227C624.867 293.227 624.646 293.146 624.469 292.984C624.297 292.818 624.211 292.547 624.211 292.172ZM635.641 287.273C635.641 289.247 635.328 290.721 634.703 291.695C634.083 292.669 633.133 293.156 631.852 293.156C630.622 293.156 629.688 292.659 629.047 291.664C628.406 290.664 628.086 289.201 628.086 287.273C628.086 285.284 628.396 283.807 629.016 282.844C629.635 281.88 630.581 281.398 631.852 281.398C633.091 281.398 634.031 281.901 634.672 282.906C635.318 283.911 635.641 285.367 635.641 287.273ZM629.398 287.273C629.398 288.935 629.594 290.146 629.984 290.906C630.375 291.661 630.997 292.039 631.852 292.039C632.716 292.039 633.341 291.656 633.727 290.891C634.117 290.12 634.312 288.914 634.312 287.273C634.312 285.633 634.117 284.432 633.727 283.672C633.341 282.906 632.716 282.523 631.852 282.523C630.997 282.523 630.375 282.901 629.984 283.656C629.594 284.406 629.398 285.612 629.398 287.273ZM642.266 291.75L642.508 291.023L642.844 290.102L645.164 284.453H646.812V293H645.664V285.93L645.508 286.383L645.055 287.578L642.844 293H641.758L639.547 287.562C639.271 286.865 639.081 286.32 638.977 285.93V293H637.82V284.453H639.406L641.648 289.883C641.872 290.456 642.078 291.078 642.266 291.75ZM654.031 291.75L654.273 291.023L654.609 290.102L656.93 284.453H658.578V293H657.43V285.93L657.273 286.383L656.82 287.578L654.609 293H653.523L651.312 287.562C651.036 286.865 650.846 286.32 650.742 285.93V293H649.586V284.453H651.172L653.414 289.883C653.638 290.456 653.844 291.078 654.031 291.75Z" fill="#353535"/>
<g filter="url(#filter2_i)">
<circle cx="414.5" cy="542.5" r="8.5" fill="white" fill-opacity="0.2"/>
</g>
<circle cx="414.5" cy="542.5" r="8" stroke="white" stroke-opacity="0.5"/>
<circle cx="414.5" cy="542.5" r="4.5" fill="white"/>
<path d="M413.992 542.217L551.044 465" stroke="white"/>
<g filter="url(#filter3_i)">
<rect x="550" y="444" width="296" height="43" rx="21.5" fill="white" fill-opacity="0.2"/>
</g>
<rect x="550.5" y="444.5" width="295" height="42" rx="21" stroke="white"/>
<rect x="553" y="447" width="290" height="37" rx="18.5" fill="white"/>
<path d="M572.852 460.602C571.596 460.602 570.604 461.021 569.875 461.859C569.151 462.693 568.789 463.836 568.789 465.289C568.789 466.784 569.138 467.94 569.836 468.758C570.539 469.57 571.539 469.977 572.836 469.977C573.633 469.977 574.542 469.833 575.562 469.547V470.711C574.771 471.008 573.794 471.156 572.633 471.156C570.951 471.156 569.651 470.646 568.734 469.625C567.823 468.604 567.367 467.154 567.367 465.273C567.367 464.096 567.586 463.065 568.023 462.18C568.466 461.294 569.102 460.612 569.93 460.133C570.763 459.654 571.742 459.414 572.867 459.414C574.065 459.414 575.112 459.633 576.008 460.07L575.445 461.211C574.581 460.805 573.716 460.602 572.852 460.602ZM579.078 462.438V467.867L579.023 469.289L579 469.734L583.633 462.438H585.25V471H584.039V465.766L584.062 464.734L584.102 463.719L579.477 471H577.859V462.438H579.078ZM594.383 471H593.07V463.547H590.5C590.359 465.401 590.164 466.872 589.914 467.961C589.664 469.049 589.339 469.846 588.938 470.352C588.542 470.857 588.036 471.109 587.422 471.109C587.141 471.109 586.917 471.078 586.75 471.016V470.055C586.865 470.086 586.995 470.102 587.141 470.102C587.74 470.102 588.216 469.469 588.57 468.203C588.924 466.938 589.193 465.016 589.375 462.438H594.383V471ZM598.359 462.438V467.867L598.305 469.289L598.281 469.734L602.914 462.438H604.531V471H603.32V465.766L603.344 464.734L603.383 463.719L598.758 471H597.141V462.438H598.359ZM612.273 462.438H613.695L610 466.57L614 471H612.484L608.578 466.664V471H607.281V462.438H608.578V466.602L612.273 462.438ZM622.984 466.711C622.984 468.107 622.633 469.198 621.93 469.984C621.227 470.766 620.255 471.156 619.016 471.156C618.25 471.156 617.57 470.977 616.977 470.617C616.383 470.258 615.924 469.742 615.602 469.07C615.279 468.398 615.117 467.612 615.117 466.711C615.117 465.315 615.466 464.229 616.164 463.453C616.862 462.672 617.831 462.281 619.07 462.281C620.268 462.281 621.219 462.68 621.922 463.477C622.63 464.273 622.984 465.352 622.984 466.711ZM616.461 466.711C616.461 467.805 616.68 468.638 617.117 469.211C617.555 469.784 618.198 470.07 619.047 470.07C619.896 470.07 620.539 469.786 620.977 469.219C621.419 468.646 621.641 467.81 621.641 466.711C621.641 465.622 621.419 464.797 620.977 464.234C620.539 463.667 619.891 463.383 619.031 463.383C618.182 463.383 617.542 463.661 617.109 464.219C616.677 464.776 616.461 465.607 616.461 466.711ZM626.562 462.438V466.023H631.359V462.438H632.656V471H631.359V467.141H626.562V471H625.266V462.438H626.562ZM642.797 466.711C642.797 468.107 642.445 469.198 641.742 469.984C641.039 470.766 640.068 471.156 638.828 471.156C638.062 471.156 637.383 470.977 636.789 470.617C636.195 470.258 635.737 469.742 635.414 469.07C635.091 468.398 634.93 467.612 634.93 466.711C634.93 465.315 635.279 464.229 635.977 463.453C636.674 462.672 637.643 462.281 638.883 462.281C640.081 462.281 641.031 462.68 641.734 463.477C642.443 464.273 642.797 465.352 642.797 466.711ZM636.273 466.711C636.273 467.805 636.492 468.638 636.93 469.211C637.367 469.784 638.01 470.07 638.859 470.07C639.708 470.07 640.352 469.786 640.789 469.219C641.232 468.646 641.453 467.81 641.453 466.711C641.453 465.622 641.232 464.797 640.789 464.234C640.352 463.667 639.703 463.383 638.844 463.383C637.995 463.383 637.354 463.661 636.922 464.219C636.49 464.776 636.273 465.607 636.273 466.711ZM652.023 464.586C652.023 465.143 651.862 465.568 651.539 465.859C651.221 466.146 650.773 466.339 650.195 466.438V466.508C650.924 466.607 651.456 466.82 651.789 467.148C652.128 467.477 652.297 467.93 652.297 468.508C652.297 469.305 652.003 469.919 651.414 470.352C650.831 470.784 649.977 471 648.852 471H645.078V462.438H648.836C650.961 462.438 652.023 463.154 652.023 464.586ZM651 468.422C651 467.958 650.823 467.622 650.469 467.414C650.12 467.201 649.539 467.094 648.727 467.094H646.375V469.914H648.758C650.253 469.914 651 469.417 651 468.422ZM650.758 464.711C650.758 464.294 650.596 464 650.273 463.828C649.956 463.651 649.471 463.562 648.82 463.562H646.375V465.977H648.57C649.372 465.977 649.938 465.878 650.266 465.68C650.594 465.482 650.758 465.159 650.758 464.711ZM659.453 471L659.195 469.781H659.133C658.706 470.318 658.279 470.682 657.852 470.875C657.43 471.062 656.901 471.156 656.266 471.156C655.417 471.156 654.75 470.938 654.266 470.5C653.786 470.062 653.547 469.44 653.547 468.633C653.547 466.904 654.93 465.997 657.695 465.914L659.148 465.867V465.336C659.148 464.664 659.003 464.169 658.711 463.852C658.424 463.529 657.964 463.367 657.328 463.367C656.615 463.367 655.807 463.586 654.906 464.023L654.508 463.031C654.93 462.802 655.391 462.622 655.891 462.492C656.396 462.362 656.901 462.297 657.406 462.297C658.427 462.297 659.182 462.523 659.672 462.977C660.167 463.43 660.414 464.156 660.414 465.156V471H659.453ZM656.523 470.086C657.331 470.086 657.964 469.865 658.422 469.422C658.885 468.979 659.117 468.359 659.117 467.562V466.789L657.82 466.844C656.789 466.88 656.044 467.042 655.586 467.328C655.133 467.609 654.906 468.049 654.906 468.648C654.906 469.117 655.047 469.474 655.328 469.719C655.615 469.964 656.013 470.086 656.523 470.086ZM663.523 471H662.008L664.469 467.383C663.807 467.237 663.299 466.956 662.945 466.539C662.596 466.117 662.422 465.589 662.422 464.953C662.422 464.172 662.685 463.557 663.211 463.109C663.737 462.661 664.471 462.438 665.414 462.438H669.227V471H667.93V467.578H665.766L663.523 471ZM663.688 464.969C663.688 465.958 664.406 466.453 665.844 466.453H667.93V463.562H665.578C664.318 463.562 663.688 464.031 663.688 464.969ZM675.695 465.867C675.695 463.992 675.971 462.531 676.523 461.484C677.076 460.432 677.951 459.776 679.148 459.516C680.638 459.198 681.951 458.94 683.086 458.742L683.328 459.883C681.521 460.185 680.229 460.424 679.453 460.602C678.698 460.773 678.13 461.18 677.75 461.82C677.375 462.461 677.169 463.333 677.133 464.438H677.227C677.549 464 677.966 463.656 678.477 463.406C678.987 463.156 679.521 463.031 680.078 463.031C681.13 463.031 681.951 463.372 682.539 464.055C683.128 464.737 683.422 465.682 683.422 466.891C683.422 468.229 683.081 469.276 682.398 470.031C681.716 470.781 680.766 471.156 679.547 471.156C678.344 471.156 677.401 470.695 676.719 469.773C676.036 468.852 675.695 467.549 675.695 465.867ZM679.664 470.07C681.253 470.07 682.047 469.057 682.047 467.031C682.047 465.099 681.326 464.133 679.883 464.133C679.487 464.133 679.104 464.216 678.734 464.383C678.37 464.544 678.034 464.76 677.727 465.031C677.424 465.302 677.19 465.581 677.023 465.867C677.023 467.237 677.24 468.281 677.672 469C678.104 469.714 678.768 470.07 679.664 470.07ZM689.305 471.156C688.039 471.156 687.039 470.771 686.305 470C685.576 469.229 685.211 468.159 685.211 466.789C685.211 465.409 685.549 464.312 686.227 463.5C686.909 462.688 687.823 462.281 688.969 462.281C690.042 462.281 690.891 462.635 691.516 463.344C692.141 464.047 692.453 464.977 692.453 466.133V466.953H686.555C686.581 467.958 686.833 468.721 687.312 469.242C687.797 469.763 688.477 470.023 689.352 470.023C690.273 470.023 691.185 469.831 692.086 469.445V470.602C691.628 470.799 691.193 470.94 690.781 471.023C690.375 471.112 689.883 471.156 689.305 471.156ZM688.953 463.367C688.266 463.367 687.716 463.591 687.305 464.039C686.898 464.487 686.659 465.107 686.586 465.898H691.062C691.062 465.081 690.88 464.456 690.516 464.023C690.151 463.586 689.63 463.367 688.953 463.367ZM698.094 471.156C696.854 471.156 695.893 470.776 695.211 470.016C694.534 469.25 694.195 468.169 694.195 466.773C694.195 465.341 694.539 464.234 695.227 463.453C695.919 462.672 696.904 462.281 698.18 462.281C698.591 462.281 699.003 462.326 699.414 462.414C699.826 462.503 700.148 462.607 700.383 462.727L699.984 463.828C699.698 463.714 699.385 463.62 699.047 463.547C698.708 463.469 698.409 463.43 698.148 463.43C696.409 463.43 695.539 464.539 695.539 466.758C695.539 467.81 695.75 468.617 696.172 469.18C696.599 469.742 697.229 470.023 698.062 470.023C698.776 470.023 699.508 469.87 700.258 469.562V470.711C699.685 471.008 698.964 471.156 698.094 471.156ZM708.68 469.883H712.477V462.438H713.789V471H702.297V462.438H703.594V469.883H707.383V462.438H708.68V469.883ZM715.188 462.438H716.578L718.453 467.32C718.865 468.435 719.12 469.24 719.219 469.734H719.281C719.349 469.469 719.49 469.016 719.703 468.375C719.922 467.729 720.63 465.75 721.828 462.438H723.219L719.539 472.188C719.174 473.151 718.747 473.833 718.258 474.234C717.773 474.641 717.177 474.844 716.469 474.844C716.073 474.844 715.682 474.799 715.297 474.711V473.672C715.583 473.734 715.904 473.766 716.258 473.766C717.148 473.766 717.784 473.266 718.164 472.266L718.641 471.047L715.188 462.438ZM729.055 469.75L729.297 469.023L729.633 468.102L731.953 462.453H733.602V471H732.453V463.93L732.297 464.383L731.844 465.578L729.633 471H728.547L726.336 465.562C726.06 464.865 725.87 464.32 725.766 463.93V471H724.609V462.453H726.195L728.438 467.883C728.661 468.456 728.867 469.078 729.055 469.75ZM737.672 462.438V466.023H742.469V462.438H743.766V471H742.469V467.141H737.672V471H736.375V462.438H737.672ZM751.781 471L751.523 469.781H751.461C751.034 470.318 750.607 470.682 750.18 470.875C749.758 471.062 749.229 471.156 748.594 471.156C747.745 471.156 747.078 470.938 746.594 470.5C746.115 470.062 745.875 469.44 745.875 468.633C745.875 466.904 747.258 465.997 750.023 465.914L751.477 465.867V465.336C751.477 464.664 751.331 464.169 751.039 463.852C750.753 463.529 750.292 463.367 749.656 463.367C748.943 463.367 748.135 463.586 747.234 464.023L746.836 463.031C747.258 462.802 747.719 462.622 748.219 462.492C748.724 462.362 749.229 462.297 749.734 462.297C750.755 462.297 751.51 462.523 752 462.977C752.495 463.43 752.742 464.156 752.742 465.156V471H751.781ZM748.852 470.086C749.659 470.086 750.292 469.865 750.75 469.422C751.214 468.979 751.445 468.359 751.445 467.562V466.789L750.148 466.844C749.117 466.88 748.372 467.042 747.914 467.328C747.461 467.609 747.234 468.049 747.234 468.648C747.234 469.117 747.375 469.474 747.656 469.719C747.943 469.964 748.341 470.086 748.852 470.086ZM755.852 471H754.336L756.797 467.383C756.135 467.237 755.628 466.956 755.273 466.539C754.924 466.117 754.75 465.589 754.75 464.953C754.75 464.172 755.013 463.557 755.539 463.109C756.065 462.661 756.799 462.438 757.742 462.438H761.555V471H760.258V467.578H758.094L755.852 471ZM756.016 464.969C756.016 465.958 756.734 466.453 758.172 466.453H760.258V463.562H757.906C756.646 463.562 756.016 464.031 756.016 464.969ZM771.891 471.156C770.651 471.156 769.69 470.776 769.008 470.016C768.331 469.25 767.992 468.169 767.992 466.773C767.992 465.341 768.336 464.234 769.023 463.453C769.716 462.672 770.701 462.281 771.977 462.281C772.388 462.281 772.799 462.326 773.211 462.414C773.622 462.503 773.945 462.607 774.18 462.727L773.781 463.828C773.495 463.714 773.182 463.62 772.844 463.547C772.505 463.469 772.206 463.43 771.945 463.43C770.206 463.43 769.336 464.539 769.336 466.758C769.336 467.81 769.547 468.617 769.969 469.18C770.396 469.742 771.026 470.023 771.859 470.023C772.573 470.023 773.305 469.87 774.055 469.562V470.711C773.482 471.008 772.76 471.156 771.891 471.156ZM777.312 462.438V467.867L777.258 469.289L777.234 469.734L781.867 462.438H783.484V471H782.273V465.766L782.297 464.734L782.336 463.719L777.711 471H776.094V462.438H777.312ZM789.656 471.156C788.417 471.156 787.456 470.776 786.773 470.016C786.096 469.25 785.758 468.169 785.758 466.773C785.758 465.341 786.102 464.234 786.789 463.453C787.482 462.672 788.466 462.281 789.742 462.281C790.154 462.281 790.565 462.326 790.977 462.414C791.388 462.503 791.711 462.607 791.945 462.727L791.547 463.828C791.26 463.714 790.948 463.62 790.609 463.547C790.271 463.469 789.971 463.43 789.711 463.43C787.971 463.43 787.102 464.539 787.102 466.758C787.102 467.81 787.312 468.617 787.734 469.18C788.161 469.742 788.792 470.023 789.625 470.023C790.339 470.023 791.07 469.87 791.82 469.562V470.711C791.247 471.008 790.526 471.156 789.656 471.156ZM799.633 463.547H796.852V471H795.555V463.547H792.805V462.438H799.633V463.547ZM804.945 471.156C803.68 471.156 802.68 470.771 801.945 470C801.216 469.229 800.852 468.159 800.852 466.789C800.852 465.409 801.19 464.312 801.867 463.5C802.549 462.688 803.464 462.281 804.609 462.281C805.682 462.281 806.531 462.635 807.156 463.344C807.781 464.047 808.094 464.977 808.094 466.133V466.953H802.195C802.221 467.958 802.474 468.721 802.953 469.242C803.438 469.763 804.117 470.023 804.992 470.023C805.914 470.023 806.826 469.831 807.727 469.445V470.602C807.268 470.799 806.833 470.94 806.422 471.023C806.016 471.112 805.523 471.156 804.945 471.156ZM804.594 463.367C803.906 463.367 803.357 463.591 802.945 464.039C802.539 464.487 802.299 465.107 802.227 465.898H806.703C806.703 465.081 806.521 464.456 806.156 464.023C805.792 463.586 805.271 463.367 804.594 463.367ZM814.758 469.75L815 469.023L815.336 468.102L817.656 462.453H819.305V471H818.156V463.93L818 464.383L817.547 465.578L815.336 471H814.25L812.039 465.562C811.763 464.865 811.573 464.32 811.469 463.93V471H810.312V462.453H811.898L814.141 467.883C814.365 468.456 814.57 469.078 814.758 469.75ZM827.344 471L827.086 469.781H827.023C826.596 470.318 826.169 470.682 825.742 470.875C825.32 471.062 824.792 471.156 824.156 471.156C823.307 471.156 822.641 470.938 822.156 470.5C821.677 470.062 821.438 469.44 821.438 468.633C821.438 466.904 822.82 465.997 825.586 465.914L827.039 465.867V465.336C827.039 464.664 826.893 464.169 826.602 463.852C826.315 463.529 825.854 463.367 825.219 463.367C824.505 463.367 823.698 463.586 822.797 464.023L822.398 463.031C822.82 462.802 823.281 462.622 823.781 462.492C824.286 462.362 824.792 462.297 825.297 462.297C826.318 462.297 827.073 462.523 827.562 462.977C828.057 463.43 828.305 464.156 828.305 465.156V471H827.344ZM824.414 470.086C825.221 470.086 825.854 469.865 826.312 469.422C826.776 468.979 827.008 468.359 827.008 467.562V466.789L825.711 466.844C824.68 466.88 823.935 467.042 823.477 467.328C823.023 467.609 822.797 468.049 822.797 468.648C822.797 469.117 822.938 469.474 823.219 469.719C823.505 469.964 823.904 470.086 824.414 470.086Z" fill="black"/>
<g filter="url(#filter4_i)">
<circle cx="242.5" cy="58.3545" r="8.5" fill="white" fill-opacity="0.2"/>
</g>
<circle cx="242.5" cy="58.3545" r="8" stroke="white" stroke-opacity="0.5"/>
<circle cx="242.5" cy="58.3545" r="4.5" fill="white"/>
<path d="M242 58.8545L149 25.784" stroke="white"/>
<g filter="url(#filter5_i)">
<rect y="2" width="150" height="43" rx="21.5" fill="white" fill-opacity="0.2"/>
</g>
<rect x="0.5" y="2.5" width="149" height="42" rx="21" stroke="white"/>
<rect x="3" y="4.99994" width="144" height="37" rx="18.5" fill="white"/>
<path d="M39.7109 28.8545H38.3828V18.6123H34.6719L34.4297 20.4873C34.112 22.9821 33.8307 24.8076 33.5859 25.9639C33.3464 27.1149 33.0286 27.917 32.6328 28.3701C32.237 28.8232 31.7109 29.0446 31.0547 29.0342C30.6693 29.0342 30.3229 28.9691 30.0156 28.8389V27.7217C30.2969 27.8571 30.5911 27.9248 30.8984 27.9248C31.1745 27.9248 31.4141 27.8128 31.6172 27.5889C31.8255 27.3597 32.0078 26.9665 32.1641 26.4092C32.3255 25.8467 32.526 24.7842 32.7656 23.2217C33.0104 21.654 33.2786 19.7243 33.5703 17.4326H39.7109V28.8545ZM51.8594 31.8311H50.5938V28.8545H42.6562V31.8311H41.3906V27.6514H42.2734C43.0755 26.3024 43.7604 24.6618 44.3281 22.7295C44.901 20.7972 45.2188 19.0316 45.2812 17.4326H50.4141V27.6514H51.8594V31.8311ZM49.0859 27.6514V18.6279H46.4844C46.3906 19.8883 46.0755 21.404 45.5391 23.1748C45.0026 24.9404 44.3776 26.4326 43.6641 27.6514H49.0859ZM58.6797 18.4561C57.4245 18.4561 56.4323 18.8753 55.7031 19.7139C54.9792 20.5472 54.6172 21.6904 54.6172 23.1436C54.6172 24.6383 54.9661 25.7946 55.6641 26.6123C56.3672 27.4248 57.3672 27.8311 58.6641 27.8311C59.4609 27.8311 60.3698 27.6878 61.3906 27.4014V28.5654C60.599 28.8623 59.6224 29.0107 58.4609 29.0107C56.7786 29.0107 55.4792 28.5003 54.5625 27.4795C53.651 26.4587 53.1953 25.0081 53.1953 23.1279C53.1953 21.9508 53.4141 20.9196 53.8516 20.0342C54.2943 19.1488 54.9297 18.4665 55.7578 17.9873C56.5911 17.5081 57.5703 17.2686 58.6953 17.2686C59.8932 17.2686 60.9401 17.4873 61.8359 17.9248L61.2734 19.0654C60.4089 18.6592 59.5443 18.4561 58.6797 18.4561ZM72.4062 28.8545H71.0781V18.6123H65.2109V28.8545H63.8828V17.4326H72.4062V28.8545ZM83.7266 28.8545H82.4609V20.7139C82.4609 20.0368 82.4818 19.3962 82.5234 18.792C82.4141 18.9014 82.2917 19.016 82.1562 19.1357C82.0208 19.2555 81.401 19.7633 80.2969 20.6592L79.6094 19.7686L82.6328 17.4326H83.7266V28.8545ZM88.2109 23.9717C88.2109 21.7269 88.6458 20.0498 89.5156 18.9404C90.3906 17.8258 91.6823 17.2686 93.3906 17.2686C93.9792 17.2686 94.4427 17.318 94.7812 17.417V18.5342C94.3802 18.404 93.9219 18.3389 93.4062 18.3389C92.1823 18.3389 91.2474 18.7217 90.6016 19.4873C89.9557 20.2477 89.6016 21.4456 89.5391 23.0811H89.6328C90.2057 22.1852 91.112 21.7373 92.3516 21.7373C93.3776 21.7373 94.1849 22.0472 94.7734 22.667C95.3672 23.2868 95.6641 24.1279 95.6641 25.1904C95.6641 26.3779 95.3385 27.3128 94.6875 27.9951C94.0417 28.6722 93.1667 29.0107 92.0625 29.0107C90.8802 29.0107 89.9427 28.568 89.25 27.6826C88.5573 26.792 88.2109 25.555 88.2109 23.9717ZM92.0469 27.9092C92.7865 27.9092 93.3594 27.6774 93.7656 27.2139C94.1771 26.7451 94.3828 26.0706 94.3828 25.1904C94.3828 24.4352 94.1927 23.8415 93.8125 23.4092C93.4323 22.9769 92.8646 22.7607 92.1094 22.7607C91.6406 22.7607 91.2109 22.8571 90.8203 23.0498C90.4297 23.2425 90.1172 23.5081 89.8828 23.8467C89.6536 24.1852 89.5391 24.5368 89.5391 24.9014C89.5391 25.4378 89.6432 25.9378 89.8516 26.4014C90.0599 26.8649 90.3542 27.2321 90.7344 27.5029C91.1198 27.7738 91.5573 27.9092 92.0469 27.9092ZM102.273 27.6045L102.516 26.8779L102.852 25.9561L105.172 20.3076H106.82V28.8545H105.672V21.7842L105.516 22.2373L105.062 23.4326L102.852 28.8545H101.766L99.5547 23.417C99.2786 22.7191 99.0885 22.1748 98.9844 21.7842V28.8545H97.8281V20.3076H99.4141L101.656 25.7373C101.88 26.3102 102.086 26.9326 102.273 27.6045ZM114.039 27.6045L114.281 26.8779L114.617 25.9561L116.938 20.3076H118.586V28.8545H117.438V21.7842L117.281 22.2373L116.828 23.4326L114.617 28.8545H113.531L111.32 23.417C111.044 22.7191 110.854 22.1748 110.75 21.7842V28.8545H109.594V20.3076H111.18L113.422 25.7373C113.646 26.3102 113.852 26.9326 114.039 27.6045Z" fill="#353535"/>
<g filter="url(#filter6_i)">
<circle cx="642.5" cy="124.354" r="8.5" fill="white" fill-opacity="0.2"/>
</g>
<circle cx="642.5" cy="124.354" r="8" stroke="white" stroke-opacity="0.5"/>
<circle cx="642.5" cy="124.354" r="4.5" fill="white"/>
<path d="M642 124.854L549 91.784" stroke="white"/>
<g filter="url(#filter7_i)">
<rect x="376" y="68" width="174" height="43" rx="21.5" fill="white" fill-opacity="0.2"/>
</g>
<rect x="376.5" y="68.5" width="173" height="42" rx="21" stroke="white"/>
<rect x="379" y="71" width="168" height="37" rx="18.5" fill="white"/>
<path d="M399.703 94.8544H398.438V86.7138C398.438 86.0367 398.458 85.3961 398.5 84.7919C398.391 84.9013 398.268 85.0159 398.133 85.1357C397.997 85.2555 397.378 85.7633 396.273 86.6591L395.586 85.7685L398.609 83.4326H399.703V94.8544ZM411.625 89.1279C411.625 91.1018 411.312 92.5758 410.688 93.5497C410.068 94.5237 409.117 95.0107 407.836 95.0107C406.607 95.0107 405.672 94.5133 405.031 93.5185C404.391 92.5185 404.07 91.055 404.07 89.1279C404.07 87.1383 404.38 85.6617 405 84.6982C405.62 83.7346 406.565 83.2529 407.836 83.2529C409.076 83.2529 410.016 83.7555 410.656 84.7607C411.302 85.7659 411.625 87.2216 411.625 89.1279ZM405.383 89.1279C405.383 90.7893 405.578 92.0003 405.969 92.7607C406.359 93.5159 406.982 93.8935 407.836 93.8935C408.701 93.8935 409.326 93.5107 409.711 92.7451C410.102 91.9742 410.297 90.7685 410.297 89.1279C410.297 87.4872 410.102 86.2867 409.711 85.5263C409.326 84.7607 408.701 84.3779 407.836 84.3779C406.982 84.3779 406.359 84.7555 405.969 85.5107C405.578 86.2607 405.383 87.4664 405.383 89.1279ZM423.734 87.4013H420.953V94.8544H419.656V87.4013H416.906V86.2919H423.734V87.4013ZM426.648 86.2919V91.7216L426.594 93.1435L426.57 93.5888L431.203 86.2919H432.82V94.8544H431.609V89.6201L431.633 88.5888L431.672 87.5732L427.047 94.8544H425.43V86.2919H426.648ZM436.867 94.8544H435.57V86.2919H442.758V94.8544H441.445V87.4169H436.867V94.8544ZM452.898 90.5654C452.898 91.9612 452.547 93.0523 451.844 93.8388C451.141 94.6201 450.169 95.0107 448.93 95.0107C448.164 95.0107 447.484 94.831 446.891 94.4716C446.297 94.1122 445.839 93.5966 445.516 92.9247C445.193 92.2529 445.031 91.4664 445.031 90.5654C445.031 89.1695 445.38 88.0836 446.078 87.3076C446.776 86.5263 447.745 86.1357 448.984 86.1357C450.182 86.1357 451.133 86.5341 451.836 87.331C452.544 88.1279 452.898 89.206 452.898 90.5654ZM446.375 90.5654C446.375 91.6591 446.594 92.4925 447.031 93.0654C447.469 93.6383 448.112 93.9247 448.961 93.9247C449.81 93.9247 450.453 93.6409 450.891 93.0732C451.333 92.5003 451.555 91.6643 451.555 90.5654C451.555 89.4768 451.333 88.6513 450.891 88.0888C450.453 87.5211 449.805 87.2372 448.945 87.2372C448.096 87.2372 447.456 87.5159 447.023 88.0732C446.591 88.6305 446.375 89.4612 446.375 90.5654ZM462.125 88.4404C462.125 88.9977 461.964 89.4221 461.641 89.7138C461.323 90.0003 460.875 90.193 460.297 90.2919V90.3622C461.026 90.4612 461.557 90.6747 461.891 91.0029C462.229 91.331 462.398 91.7841 462.398 92.3622C462.398 93.1591 462.104 93.7737 461.516 94.206C460.932 94.6383 460.078 94.8544 458.953 94.8544H455.18V86.2919H458.938C461.062 86.2919 462.125 87.0081 462.125 88.4404ZM461.102 92.2763C461.102 91.8128 460.924 91.4768 460.57 91.2685C460.221 91.055 459.641 90.9482 458.828 90.9482H456.477V93.7685H458.859C460.354 93.7685 461.102 93.2711 461.102 92.2763ZM460.859 88.5654C460.859 88.1487 460.698 87.8544 460.375 87.6826C460.057 87.5055 459.573 87.4169 458.922 87.4169H456.477V89.831H458.672C459.474 89.831 460.039 89.732 460.367 89.5341C460.695 89.3362 460.859 89.0133 460.859 88.5654ZM477.617 90.5654C477.617 91.8622 477.247 92.8961 476.508 93.6669C475.773 94.4326 474.745 94.8701 473.422 94.9794V98.6982H472.141V94.9794C470.849 94.8805 469.828 94.4378 469.078 93.6513C468.328 92.8648 467.953 91.8362 467.953 90.5654C467.953 89.2685 468.326 88.2372 469.07 87.4716C469.82 86.706 470.859 86.2711 472.188 86.1669V82.6982H473.422V86.1669C474.729 86.2867 475.755 86.7372 476.5 87.5185C477.245 88.2997 477.617 89.3154 477.617 90.5654ZM469.312 90.5654C469.312 91.5654 469.542 92.3492 470 92.9169C470.458 93.4846 471.188 93.8154 472.188 93.9091V87.2529C471.224 87.3414 470.503 87.6565 470.023 88.1982C469.549 88.7346 469.312 89.5237 469.312 90.5654ZM476.273 90.5654C476.273 88.5706 475.323 87.4716 473.422 87.2685V93.9091C474.411 93.8102 475.133 93.4768 475.586 92.9091C476.044 92.3414 476.273 91.5602 476.273 90.5654ZM485.148 94.8544L484.891 93.6357H484.828C484.401 94.1721 483.974 94.5367 483.547 94.7294C483.125 94.9169 482.596 95.0107 481.961 95.0107C481.112 95.0107 480.445 94.7919 479.961 94.3544C479.482 93.9169 479.242 93.2945 479.242 92.4872C479.242 90.7581 480.625 89.8518 483.391 89.7685L484.844 89.7216V89.1904C484.844 88.5185 484.698 88.0237 484.406 87.706C484.12 87.3831 483.659 87.2216 483.023 87.2216C482.31 87.2216 481.503 87.4404 480.602 87.8779L480.203 86.8857C480.625 86.6565 481.086 86.4768 481.586 86.3466C482.091 86.2164 482.596 86.1513 483.102 86.1513C484.122 86.1513 484.878 86.3779 485.367 86.831C485.862 87.2841 486.109 88.0107 486.109 89.0107V94.8544H485.148ZM482.219 93.9404C483.026 93.9404 483.659 93.719 484.117 93.2763C484.581 92.8336 484.812 92.2138 484.812 91.4169V90.6435L483.516 90.6982C482.484 90.7346 481.74 90.8961 481.281 91.1826C480.828 91.4638 480.602 91.9039 480.602 92.5029C480.602 92.9716 480.742 93.3284 481.023 93.5732C481.31 93.818 481.708 93.9404 482.219 93.9404ZM492.211 95.0107C490.971 95.0107 490.01 94.6305 489.328 93.8701C488.651 93.1044 488.312 92.0237 488.312 90.6279C488.312 89.1956 488.656 88.0888 489.344 87.3076C490.036 86.5263 491.021 86.1357 492.297 86.1357C492.708 86.1357 493.12 86.18 493.531 86.2685C493.943 86.357 494.266 86.4612 494.5 86.581L494.102 87.6826C493.815 87.568 493.503 87.4742 493.164 87.4013C492.826 87.3232 492.526 87.2841 492.266 87.2841C490.526 87.2841 489.656 88.3935 489.656 90.6122C489.656 91.6643 489.867 92.4716 490.289 93.0341C490.716 93.5966 491.346 93.8779 492.18 93.8779C492.893 93.8779 493.625 93.7242 494.375 93.4169V94.5654C493.802 94.8622 493.081 95.0107 492.211 95.0107ZM501.68 94.8544L501.422 93.6357H501.359C500.932 94.1721 500.505 94.5367 500.078 94.7294C499.656 94.9169 499.128 95.0107 498.492 95.0107C497.643 95.0107 496.977 94.7919 496.492 94.3544C496.013 93.9169 495.773 93.2945 495.773 92.4872C495.773 90.7581 497.156 89.8518 499.922 89.7685L501.375 89.7216V89.1904C501.375 88.5185 501.229 88.0237 500.938 87.706C500.651 87.3831 500.19 87.2216 499.555 87.2216C498.841 87.2216 498.034 87.4404 497.133 87.8779L496.734 86.8857C497.156 86.6565 497.617 86.4768 498.117 86.3466C498.622 86.2164 499.128 86.1513 499.633 86.1513C500.654 86.1513 501.409 86.3779 501.898 86.831C502.393 87.2841 502.641 88.0107 502.641 89.0107V94.8544H501.68ZM498.75 93.9404C499.557 93.9404 500.19 93.719 500.648 93.2763C501.112 92.8336 501.344 92.2138 501.344 91.4169V90.6435L500.047 90.6982C499.016 90.7346 498.271 90.8961 497.812 91.1826C497.359 91.4638 497.133 91.9039 497.133 92.5029C497.133 92.9716 497.273 93.3284 497.555 93.5732C497.841 93.818 498.24 93.9404 498.75 93.9404ZM512.758 97.8154H511.5V94.8544H505.516V97.8154H504.266V93.7372H504.938C505.635 92.7893 506.182 91.6773 506.578 90.4013C506.974 89.1253 507.18 87.7555 507.195 86.2919H511.531V93.7372H512.758V97.8154ZM510.281 93.7372V87.3154H508.359C508.292 88.4716 508.068 89.6435 507.688 90.831C507.312 92.0133 506.844 92.982 506.281 93.7372H510.281ZM521.867 90.5654C521.867 91.9612 521.516 93.0523 520.812 93.8388C520.109 94.6201 519.138 95.0107 517.898 95.0107C517.133 95.0107 516.453 94.831 515.859 94.4716C515.266 94.1122 514.807 93.5966 514.484 92.9247C514.161 92.2529 514 91.4664 514 90.5654C514 89.1695 514.349 88.0836 515.047 87.3076C515.745 86.5263 516.714 86.1357 517.953 86.1357C519.151 86.1357 520.102 86.5341 520.805 87.331C521.513 88.1279 521.867 89.206 521.867 90.5654ZM515.344 90.5654C515.344 91.6591 515.562 92.4925 516 93.0654C516.438 93.6383 517.081 93.9247 517.93 93.9247C518.779 93.9247 519.422 93.6409 519.859 93.0732C520.302 92.5003 520.523 91.6643 520.523 90.5654C520.523 89.4768 520.302 88.6513 519.859 88.0888C519.422 87.5211 518.773 87.2372 517.914 87.2372C517.065 87.2372 516.424 87.5159 515.992 88.0732C515.56 88.6305 515.344 89.4612 515.344 90.5654ZM531.094 88.4404C531.094 88.9977 530.932 89.4221 530.609 89.7138C530.292 90.0003 529.844 90.193 529.266 90.2919V90.3622C529.995 90.4612 530.526 90.6747 530.859 91.0029C531.198 91.331 531.367 91.7841 531.367 92.3622C531.367 93.1591 531.073 93.7737 530.484 94.206C529.901 94.6383 529.047 94.8544 527.922 94.8544H524.148V86.2919H527.906C530.031 86.2919 531.094 87.0081 531.094 88.4404ZM530.07 92.2763C530.07 91.8128 529.893 91.4768 529.539 91.2685C529.19 91.055 528.609 90.9482 527.797 90.9482H525.445V93.7685H527.828C529.323 93.7685 530.07 93.2711 530.07 92.2763ZM529.828 88.5654C529.828 88.1487 529.667 87.8544 529.344 87.6826C529.026 87.5055 528.542 87.4169 527.891 87.4169H525.445V89.831H527.641C528.443 89.831 529.008 89.732 529.336 89.5341C529.664 89.3362 529.828 89.0133 529.828 88.5654Z" fill="#353535"/>
<defs>
<filter id="filter0_i" x="234" y="343" width="17" height="17" filterUnits="userSpaceOnUse" color-interpolation-filters="sRGB">
<feFlood flood-opacity="0" result="BackgroundImageFix"/>
<feBlend mode="normal" in="SourceGraphic" in2="BackgroundImageFix" result="shape"/>
<feColorMatrix in="SourceAlpha" type="matrix" values="0 0 0 0 0 0 0 0 0 0 0 0 0 0 0 0 0 0 127 0" result="hardAlpha"/>
<feOffset/>
<feGaussianBlur stdDeviation="2"/>
<feComposite in2="hardAlpha" operator="arithmetic" k2="-1" k3="1"/>
<feColorMatrix type="matrix" values="0 0 0 0 1 0 0 0 0 1 0 0 0 0 1 0 0 0 1 0"/>
<feBlend mode="normal" in2="shape" result="effect1_innerShadow"/>
</filter>
<filter id="filter1_i" x="387" y="266" width="286" height="43" filterUnits="userSpaceOnUse" color-interpolation-filters="sRGB">
<feFlood flood-opacity="0" result="BackgroundImageFix"/>
<feBlend mode="normal" in="SourceGraphic" in2="BackgroundImageFix" result="shape"/>
<feColorMatrix in="SourceAlpha" type="matrix" values="0 0 0 0 0 0 0 0 0 0 0 0 0 0 0 0 0 0 127 0" result="hardAlpha"/>
<feOffset/>
<feGaussianBlur stdDeviation="2"/>
<feComposite in2="hardAlpha" operator="arithmetic" k2="-1" k3="1"/>
<feColorMatrix type="matrix" values="0 0 0 0 1 0 0 0 0 1 0 0 0 0 1 0 0 0 1 0"/>
<feBlend mode="normal" in2="shape" result="effect1_innerShadow"/>
</filter>
<filter id="filter2_i" x="406" y="534" width="17" height="17" filterUnits="userSpaceOnUse" color-interpolation-filters="sRGB">
<feFlood flood-opacity="0" result="BackgroundImageFix"/>
<feBlend mode="normal" in="SourceGraphic" in2="BackgroundImageFix" result="shape"/>
<feColorMatrix in="SourceAlpha" type="matrix" values="0 0 0 0 0 0 0 0 0 0 0 0 0 0 0 0 0 0 127 0" result="hardAlpha"/>
<feOffset/>
<feGaussianBlur stdDeviation="2"/>
<feComposite in2="hardAlpha" operator="arithmetic" k2="-1" k3="1"/>
<feColorMatrix type="matrix" values="0 0 0 0 1 0 0 0 0 1 0 0 0 0 1 0 0 0 1 0"/>
<feBlend mode="normal" in2="shape" result="effect1_innerShadow"/>
</filter>
<filter id="filter3_i" x="550" y="444" width="296" height="43" filterUnits="userSpaceOnUse" color-interpolation-filters="sRGB">
<feFlood flood-opacity="0" result="BackgroundImageFix"/>
<feBlend mode="normal" in="SourceGraphic" in2="BackgroundImageFix" result="shape"/>
<feColorMatrix in="SourceAlpha" type="matrix" values="0 0 0 0 0 0 0 0 0 0 0 0 0 0 0 0 0 0 127 0" result="hardAlpha"/>
<feOffset/>
<feGaussianBlur stdDeviation="2"/>
<feComposite in2="hardAlpha" operator="arithmetic" k2="-1" k3="1"/>
<feColorMatrix type="matrix" values="0 0 0 0 1 0 0 0 0 1 0 0 0 0 1 0 0 0 1 0"/>
<feBlend mode="normal" in2="shape" result="effect1_innerShadow"/>
</filter>
<filter id="filter4_i" x="234" y="49.8545" width="17" height="17" filterUnits="userSpaceOnUse" color-interpolation-filters="sRGB">
<feFlood flood-opacity="0" result="BackgroundImageFix"/>
<feBlend mode="normal" in="SourceGraphic" in2="BackgroundImageFix" result="shape"/>
<feColorMatrix in="SourceAlpha" type="matrix" values="0 0 0 0 0 0 0 0 0 0 0 0 0 0 0 0 0 0 127 0" result="hardAlpha"/>
<feOffset/>
<feGaussianBlur stdDeviation="2"/>
<feComposite in2="hardAlpha" operator="arithmetic" k2="-1" k3="1"/>
<feColorMatrix type="matrix" values="0 0 0 0 1 0 0 0 0 1 0 0 0 0 1 0 0 0 1 0"/>
<feBlend mode="normal" in2="shape" result="effect1_innerShadow"/>
</filter>
<filter id="filter5_i" x="0" y="2" width="150" height="43" filterUnits="userSpaceOnUse" color-interpolation-filters="sRGB">
<feFlood flood-opacity="0" result="BackgroundImageFix"/>
<feBlend mode="normal" in="SourceGraphic" in2="BackgroundImageFix" result="shape"/>
<feColorMatrix in="SourceAlpha" type="matrix" values="0 0 0 0 0 0 0 0 0 0 0 0 0 0 0 0 0 0 127 0" result="hardAlpha"/>
<feOffset/>
<feGaussianBlur stdDeviation="2"/>
<feComposite in2="hardAlpha" operator="arithmetic" k2="-1" k3="1"/>
<feColorMatrix type="matrix" values="0 0 0 0 1 0 0 0 0 1 0 0 0 0 1 0 0 0 1 0"/>
<feBlend mode="normal" in2="shape" result="effect1_innerShadow"/>
</filter>
<filter id="filter6_i" x="634" y="115.854" width="17" height="17" filterUnits="userSpaceOnUse" color-interpolation-filters="sRGB">
<feFlood flood-opacity="0" result="BackgroundImageFix"/>
<feBlend mode="normal" in="SourceGraphic" in2="BackgroundImageFix" result="shape"/>
<feColorMatrix in="SourceAlpha" type="matrix" values="0 0 0 0 0 0 0 0 0 0 0 0 0 0 0 0 0 0 127 0" result="hardAlpha"/>
<feOffset/>
<feGaussianBlur stdDeviation="2"/>
<feComposite in2="hardAlpha" operator="arithmetic" k2="-1" k3="1"/>
<feColorMatrix type="matrix" values="0 0 0 0 1 0 0 0 0 1 0 0 0 0 1 0 0 0 1 0"/>
<feBlend mode="normal" in2="shape" result="effect1_innerShadow"/>
</filter>
<filter id="filter7_i" x="376" y="68" width="174" height="43" filterUnits="userSpaceOnUse" color-interpolation-filters="sRGB">
<feFlood flood-opacity="0" result="BackgroundImageFix"/>
<feBlend mode="normal" in="SourceGraphic" in2="BackgroundImageFix" result="shape"/>
<feColorMatrix in="SourceAlpha" type="matrix" values="0 0 0 0 0 0 0 0 0 0 0 0 0 0 0 0 0 0 127 0" result="hardAlpha"/>
<feOffset/>
<feGaussianBlur stdDeviation="2"/>
<feComposite in2="hardAlpha" operator="arithmetic" k2="-1" k3="1"/>
<feColorMatrix type="matrix" values="0 0 0 0 1 0 0 0 0 1 0 0 0 0 1 0 0 0 1 0"/>
<feBlend mode="normal" in2="shape" result="effect1_innerShadow"/>
</filter>
</defs>
</svg>
