<svg width="1117" height="576" viewBox="0 0 1117 576" fill="none" xmlns="http://www.w3.org/2000/svg">
<g filter="url(#filter0_i)">
<circle cx="141.5" cy="98.5" r="8.5" fill="white" fill-opacity="0.2"/>
</g>
<circle cx="141.5" cy="98.5" r="8" stroke="white" stroke-opacity="0.5"/>
<circle cx="141.5" cy="98.5" r="4.5" fill="white"/>
<path d="M140.992 98.2173L278.044 21" stroke="white"/>
<g filter="url(#filter1_i)">
<rect x="277" width="321" height="43" rx="21.5" fill="white" fill-opacity="0.2"/>
</g>
<rect x="277.5" y="0.5" width="320" height="42" rx="21" stroke="white"/>
<rect x="280" y="3" width="315" height="37" rx="18.5" fill="white"/>
<path d="M300.844 27H299.234L293.953 21.2109V27H292.625V15.5781H293.953V21.1094L299.102 15.5781H300.625L295.57 21.125L300.844 27ZM306.211 27.1562C305.654 27.1562 305.143 27.0547 304.68 26.8516C304.221 26.6432 303.836 26.3255 303.523 25.8984H303.43C303.492 26.3984 303.523 26.8724 303.523 27.3203V30.8438H302.227V18.4375H303.281L303.461 19.6094H303.523C303.857 19.1406 304.245 18.8021 304.688 18.5938C305.13 18.3854 305.638 18.2812 306.211 18.2812C307.346 18.2812 308.221 18.6693 308.836 19.4453C309.456 20.2214 309.766 21.3099 309.766 22.7109C309.766 24.1172 309.451 25.2109 308.82 25.9922C308.195 26.7682 307.326 27.1562 306.211 27.1562ZM306.023 19.3828C305.148 19.3828 304.516 19.625 304.125 20.1094C303.734 20.5938 303.534 21.3646 303.523 22.4219V22.7109C303.523 23.9141 303.724 24.776 304.125 25.2969C304.526 25.8125 305.169 26.0703 306.055 26.0703C306.794 26.0703 307.372 25.7708 307.789 25.1719C308.211 24.5729 308.422 23.7474 308.422 22.6953C308.422 21.6276 308.211 20.8099 307.789 20.2422C307.372 19.6693 306.784 19.3828 306.023 19.3828ZM319.43 22.7109C319.43 24.1068 319.078 25.1979 318.375 25.9844C317.672 26.7656 316.701 27.1562 315.461 27.1562C314.695 27.1562 314.016 26.9766 313.422 26.6172C312.828 26.2578 312.37 25.7422 312.047 25.0703C311.724 24.3984 311.562 23.612 311.562 22.7109C311.562 21.3151 311.911 20.2292 312.609 19.4531C313.307 18.6719 314.276 18.2812 315.516 18.2812C316.714 18.2812 317.664 18.6797 318.367 19.4766C319.076 20.2734 319.43 21.3516 319.43 22.7109ZM312.906 22.7109C312.906 23.8047 313.125 24.638 313.562 25.2109C314 25.7839 314.643 26.0703 315.492 26.0703C316.341 26.0703 316.984 25.7865 317.422 25.2188C317.865 24.6458 318.086 23.8099 318.086 22.7109C318.086 21.6224 317.865 20.7969 317.422 20.2344C316.984 19.6667 316.336 19.3828 315.477 19.3828C314.628 19.3828 313.987 19.6615 313.555 20.2188C313.122 20.776 312.906 21.6068 312.906 22.7109ZM326.156 25.75L326.398 25.0234L326.734 24.1016L329.055 18.4531H330.703V27H329.555V19.9297L329.398 20.3828L328.945 21.5781L326.734 27H325.648L323.438 21.5625C323.161 20.8646 322.971 20.3203 322.867 19.9297V27H321.711V18.4531H323.297L325.539 23.8828C325.763 24.4557 325.969 25.0781 326.156 25.75ZM338.469 18.4375H339.891L336.195 22.5703L340.195 27H338.68L334.773 22.6641V27H333.477V18.4375H334.773V22.6016L338.469 18.4375ZM349.18 22.7109C349.18 24.1068 348.828 25.1979 348.125 25.9844C347.422 26.7656 346.451 27.1562 345.211 27.1562C344.445 27.1562 343.766 26.9766 343.172 26.6172C342.578 26.2578 342.12 25.7422 341.797 25.0703C341.474 24.3984 341.312 23.612 341.312 22.7109C341.312 21.3151 341.661 20.2292 342.359 19.4531C343.057 18.6719 344.026 18.2812 345.266 18.2812C346.464 18.2812 347.414 18.6797 348.117 19.4766C348.826 20.2734 349.18 21.3516 349.18 22.7109ZM342.656 22.7109C342.656 23.8047 342.875 24.638 343.312 25.2109C343.75 25.7839 344.393 26.0703 345.242 26.0703C346.091 26.0703 346.734 25.7865 347.172 25.2188C347.615 24.6458 347.836 23.8099 347.836 22.7109C347.836 21.6224 347.615 20.7969 347.172 20.2344C346.734 19.6667 346.086 19.3828 345.227 19.3828C344.378 19.3828 343.737 19.6615 343.305 20.2188C342.872 20.776 342.656 21.6068 342.656 22.7109ZM358.406 20.5859C358.406 21.1432 358.245 21.5677 357.922 21.8594C357.604 22.1458 357.156 22.3385 356.578 22.4375V22.5078C357.307 22.6068 357.839 22.8203 358.172 23.1484C358.51 23.4766 358.68 23.9297 358.68 24.5078C358.68 25.3047 358.385 25.9193 357.797 26.3516C357.214 26.7839 356.359 27 355.234 27H351.461V18.4375H355.219C357.344 18.4375 358.406 19.1536 358.406 20.5859ZM357.383 24.4219C357.383 23.9583 357.206 23.6224 356.852 23.4141C356.503 23.2005 355.922 23.0938 355.109 23.0938H352.758V25.9141H355.141C356.635 25.9141 357.383 25.4167 357.383 24.4219ZM357.141 20.7109C357.141 20.2943 356.979 20 356.656 19.8281C356.339 19.651 355.854 19.5625 355.203 19.5625H352.758V21.9766H354.953C355.755 21.9766 356.32 21.8776 356.648 21.6797C356.977 21.4818 357.141 21.1589 357.141 20.7109ZM365.836 27L365.578 25.7812H365.516C365.089 26.3177 364.661 26.6823 364.234 26.875C363.812 27.0625 363.284 27.1562 362.648 27.1562C361.799 27.1562 361.133 26.9375 360.648 26.5C360.169 26.0625 359.93 25.4401 359.93 24.6328C359.93 22.9036 361.312 21.9974 364.078 21.9141L365.531 21.8672V21.3359C365.531 20.6641 365.385 20.1693 365.094 19.8516C364.807 19.5286 364.346 19.3672 363.711 19.3672C362.997 19.3672 362.19 19.5859 361.289 20.0234L360.891 19.0312C361.312 18.8021 361.773 18.6224 362.273 18.4922C362.779 18.362 363.284 18.2969 363.789 18.2969C364.81 18.2969 365.565 18.5234 366.055 18.9766C366.549 19.4297 366.797 20.1562 366.797 21.1562V27H365.836ZM362.906 26.0859C363.714 26.0859 364.346 25.8646 364.805 25.4219C365.268 24.9792 365.5 24.3594 365.5 23.5625V22.7891L364.203 22.8438C363.172 22.8802 362.427 23.0417 361.969 23.3281C361.516 23.6094 361.289 24.0495 361.289 24.6484C361.289 25.1172 361.43 25.474 361.711 25.7188C361.997 25.9635 362.396 26.0859 362.906 26.0859ZM370.773 18.4375V22.0234H375.57V18.4375H376.867V27H375.57V23.1406H370.773V27H369.477V18.4375H370.773ZM380.836 18.4375V23.8672L380.781 25.2891L380.758 25.7344L385.391 18.4375H387.008V27H385.797V21.7656L385.82 20.7344L385.859 19.7188L381.234 27H379.617V18.4375H380.836ZM393.375 27.1562C392.109 27.1562 391.109 26.7708 390.375 26C389.646 25.2292 389.281 24.1589 389.281 22.7891C389.281 21.4089 389.62 20.3125 390.297 19.5C390.979 18.6875 391.893 18.2812 393.039 18.2812C394.112 18.2812 394.961 18.6354 395.586 19.3438C396.211 20.0469 396.523 20.9766 396.523 22.1328V22.9531H390.625C390.651 23.9583 390.904 24.7214 391.383 25.2422C391.867 25.763 392.547 26.0234 393.422 26.0234C394.344 26.0234 395.255 25.8307 396.156 25.4453V26.6016C395.698 26.7995 395.263 26.9401 394.852 27.0234C394.445 27.112 393.953 27.1562 393.375 27.1562ZM393.023 19.3672C392.336 19.3672 391.786 19.5911 391.375 20.0391C390.969 20.487 390.729 21.1068 390.656 21.8984H395.133C395.133 21.0807 394.951 20.4557 394.586 20.0234C394.221 19.5859 393.701 19.3672 393.023 19.3672ZM409.812 27H402.305V25.8828L405.312 22.8594C406.229 21.9323 406.833 21.2708 407.125 20.875C407.417 20.4792 407.635 20.0938 407.781 19.7188C407.927 19.3438 408 18.9401 408 18.5078C408 17.8984 407.815 17.4167 407.445 17.0625C407.076 16.7031 406.562 16.5234 405.906 16.5234C405.432 16.5234 404.982 16.6016 404.555 16.7578C404.133 16.9141 403.661 17.1979 403.141 17.6094L402.453 16.7266C403.505 15.8516 404.651 15.4141 405.891 15.4141C406.964 15.4141 407.805 15.6901 408.414 16.2422C409.023 16.7891 409.328 17.526 409.328 18.4531C409.328 19.1771 409.125 19.8932 408.719 20.6016C408.312 21.3099 407.552 22.2057 406.438 23.2891L403.938 25.7344V25.7969H409.812V27ZM411.867 26.1719C411.867 25.8229 411.945 25.5599 412.102 25.3828C412.263 25.2005 412.492 25.1094 412.789 25.1094C413.091 25.1094 413.326 25.2005 413.492 25.3828C413.664 25.5599 413.75 25.8229 413.75 26.1719C413.75 26.5104 413.664 26.7708 413.492 26.9531C413.32 27.1354 413.086 27.2266 412.789 27.2266C412.523 27.2266 412.302 27.1458 412.125 26.9844C411.953 26.8177 411.867 26.5469 411.867 26.1719ZM423.297 21.2734C423.297 23.2474 422.984 24.7214 422.359 25.6953C421.74 26.6693 420.789 27.1562 419.508 27.1562C418.279 27.1562 417.344 26.6589 416.703 25.6641C416.062 24.6641 415.742 23.2005 415.742 21.2734C415.742 19.2839 416.052 17.8073 416.672 16.8438C417.292 15.8802 418.237 15.3984 419.508 15.3984C420.747 15.3984 421.688 15.901 422.328 16.9062C422.974 17.9115 423.297 19.3672 423.297 21.2734ZM417.055 21.2734C417.055 22.9349 417.25 24.1458 417.641 24.9062C418.031 25.6615 418.654 26.0391 419.508 26.0391C420.372 26.0391 420.997 25.6562 421.383 24.8906C421.773 24.1198 421.969 22.9141 421.969 21.2734C421.969 19.6328 421.773 18.4323 421.383 17.6719C420.997 16.9062 420.372 16.5234 419.508 16.5234C418.654 16.5234 418.031 16.901 417.641 17.6562C417.25 18.4062 417.055 19.612 417.055 21.2734ZM429.922 25.75L430.164 25.0234L430.5 24.1016L432.82 18.4531H434.469V27H433.32V19.9297L433.164 20.3828L432.711 21.5781L430.5 27H429.414L427.203 21.5625C426.927 20.8646 426.737 20.3203 426.633 19.9297V27H425.477V18.4531H427.062L429.305 23.8828C429.529 24.4557 429.734 25.0781 429.922 25.75ZM441.688 25.75L441.93 25.0234L442.266 24.1016L444.586 18.4531H446.234V27H445.086V19.9297L444.93 20.3828L444.477 21.5781L442.266 27H441.18L438.969 21.5625C438.693 20.8646 438.503 20.3203 438.398 19.9297V27H437.242V18.4531H438.828L441.07 23.8828C441.294 24.4557 441.5 25.0781 441.688 25.75ZM454.461 27H453.164V18.4375H460.352V27H459.039V19.5625H454.461V27ZM469.484 27H468.172V19.5469H465.602C465.461 21.401 465.266 22.8724 465.016 23.9609C464.766 25.0495 464.44 25.8464 464.039 26.3516C463.643 26.8568 463.138 27.1094 462.523 27.1094C462.242 27.1094 462.018 27.0781 461.852 27.0156V26.0547C461.966 26.0859 462.096 26.1016 462.242 26.1016C462.841 26.1016 463.318 25.4688 463.672 24.2031C464.026 22.9375 464.294 21.0156 464.477 18.4375H469.484V27ZM477.508 27L477.25 25.7812H477.188C476.76 26.3177 476.333 26.6823 475.906 26.875C475.484 27.0625 474.956 27.1562 474.32 27.1562C473.471 27.1562 472.805 26.9375 472.32 26.5C471.841 26.0625 471.602 25.4401 471.602 24.6328C471.602 22.9036 472.984 21.9974 475.75 21.9141L477.203 21.8672V21.3359C477.203 20.6641 477.057 20.1693 476.766 19.8516C476.479 19.5286 476.018 19.3672 475.383 19.3672C474.669 19.3672 473.862 19.5859 472.961 20.0234L472.562 19.0312C472.984 18.8021 473.445 18.6224 473.945 18.4922C474.451 18.362 474.956 18.2969 475.461 18.2969C476.482 18.2969 477.237 18.5234 477.727 18.9766C478.221 19.4297 478.469 20.1562 478.469 21.1562V27H477.508ZM474.578 26.0859C475.385 26.0859 476.018 25.8646 476.477 25.4219C476.94 24.9792 477.172 24.3594 477.172 23.5625V22.7891L475.875 22.8438C474.844 22.8802 474.099 23.0417 473.641 23.3281C473.188 23.6094 472.961 24.0495 472.961 24.6484C472.961 25.1172 473.102 25.474 473.383 25.7188C473.669 25.9635 474.068 26.0859 474.578 26.0859ZM484.57 27.1562C483.331 27.1562 482.37 26.776 481.688 26.0156C481.01 25.25 480.672 24.1693 480.672 22.7734C480.672 21.3411 481.016 20.2344 481.703 19.4531C482.396 18.6719 483.38 18.2812 484.656 18.2812C485.068 18.2812 485.479 18.3255 485.891 18.4141C486.302 18.5026 486.625 18.6068 486.859 18.7266L486.461 19.8281C486.174 19.7135 485.862 19.6198 485.523 19.5469C485.185 19.4688 484.885 19.4297 484.625 19.4297C482.885 19.4297 482.016 20.5391 482.016 22.7578C482.016 23.8099 482.227 24.6172 482.648 25.1797C483.076 25.7422 483.706 26.0234 484.539 26.0234C485.253 26.0234 485.984 25.8698 486.734 25.5625V26.7109C486.161 27.0078 485.44 27.1562 484.57 27.1562ZM494.547 19.5469H491.766V27H490.469V19.5469H487.719V18.4375H494.547V19.5469ZM497.461 18.4375V23.8672L497.406 25.2891L497.383 25.7344L502.016 18.4375H503.633V27H502.422V21.7656L502.445 20.7344L502.484 19.7188L497.859 27H496.242V18.4375H497.461ZM511.375 18.4375H512.797L509.102 22.5703L513.102 27H511.586L507.68 22.6641V27H506.383V18.4375H507.68V22.6016L511.375 18.4375ZM522.273 27.1562C521.034 27.1562 520.073 26.776 519.391 26.0156C518.714 25.25 518.375 24.1693 518.375 22.7734C518.375 21.3411 518.719 20.2344 519.406 19.4531C520.099 18.6719 521.083 18.2812 522.359 18.2812C522.771 18.2812 523.182 18.3255 523.594 18.4141C524.005 18.5026 524.328 18.6068 524.562 18.7266L524.164 19.8281C523.878 19.7135 523.565 19.6198 523.227 19.5469C522.888 19.4688 522.589 19.4297 522.328 19.4297C520.589 19.4297 519.719 20.5391 519.719 22.7578C519.719 23.8099 519.93 24.6172 520.352 25.1797C520.779 25.7422 521.409 26.0234 522.242 26.0234C522.956 26.0234 523.688 25.8698 524.438 25.5625V26.7109C523.865 27.0078 523.143 27.1562 522.273 27.1562ZM527.773 18.4375V22.0234H532.57V18.4375H533.867V27H532.57V23.1406H527.773V27H526.477V18.4375H527.773ZM541.883 27L541.625 25.7812H541.562C541.135 26.3177 540.708 26.6823 540.281 26.875C539.859 27.0625 539.331 27.1562 538.695 27.1562C537.846 27.1562 537.18 26.9375 536.695 26.5C536.216 26.0625 535.977 25.4401 535.977 24.6328C535.977 22.9036 537.359 21.9974 540.125 21.9141L541.578 21.8672V21.3359C541.578 20.6641 541.432 20.1693 541.141 19.8516C540.854 19.5286 540.393 19.3672 539.758 19.3672C539.044 19.3672 538.237 19.5859 537.336 20.0234L536.938 19.0312C537.359 18.8021 537.82 18.6224 538.32 18.4922C538.826 18.362 539.331 18.2969 539.836 18.2969C540.857 18.2969 541.612 18.5234 542.102 18.9766C542.596 19.4297 542.844 20.1562 542.844 21.1562V27H541.883ZM538.953 26.0859C539.76 26.0859 540.393 25.8646 540.852 25.4219C541.315 24.9792 541.547 24.3594 541.547 23.5625V22.7891L540.25 22.8438C539.219 22.8802 538.474 23.0417 538.016 23.3281C537.562 23.6094 537.336 24.0495 537.336 24.6484C537.336 25.1172 537.477 25.474 537.758 25.7188C538.044 25.9635 538.443 26.0859 538.953 26.0859ZM549.508 27.1562C548.951 27.1562 548.44 27.0547 547.977 26.8516C547.518 26.6432 547.133 26.3255 546.82 25.8984H546.727C546.789 26.3984 546.82 26.8724 546.82 27.3203V30.8438H545.523V18.4375H546.578L546.758 19.6094H546.82C547.154 19.1406 547.542 18.8021 547.984 18.5938C548.427 18.3854 548.935 18.2812 549.508 18.2812C550.643 18.2812 551.518 18.6693 552.133 19.4453C552.753 20.2214 553.062 21.3099 553.062 22.7109C553.062 24.1172 552.747 25.2109 552.117 25.9922C551.492 26.7682 550.622 27.1562 549.508 27.1562ZM549.32 19.3828C548.445 19.3828 547.812 19.625 547.422 20.1094C547.031 20.5938 546.831 21.3646 546.82 22.4219V22.7109C546.82 23.9141 547.021 24.776 547.422 25.2969C547.823 25.8125 548.466 26.0703 549.352 26.0703C550.091 26.0703 550.669 25.7708 551.086 25.1719C551.508 24.5729 551.719 23.7474 551.719 22.6953C551.719 21.6276 551.508 20.8099 551.086 20.2422C550.669 19.6693 550.081 19.3828 549.32 19.3828ZM553.977 18.4375H555.367L557.242 23.3203C557.654 24.4349 557.909 25.2396 558.008 25.7344H558.07C558.138 25.4688 558.279 25.0156 558.492 24.375C558.711 23.7292 559.419 21.75 560.617 18.4375H562.008L558.328 28.1875C557.964 29.151 557.536 29.8333 557.047 30.2344C556.562 30.6406 555.966 30.8438 555.258 30.8438C554.862 30.8438 554.471 30.7995 554.086 30.7109V29.6719C554.372 29.7344 554.693 29.7656 555.047 29.7656C555.938 29.7656 556.573 29.2656 556.953 28.2656L557.43 27.0469L553.977 18.4375ZM567.305 18.4531H568.5V22.6016L572.039 18.4531H573.461L569.883 22.6016L573.766 27H572.266L568.5 22.6641V27H567.305V22.6641L563.547 27H562.055L565.93 22.6016L562.359 18.4531H563.781L567.305 22.6016V18.4531ZM576.398 18.4375V23.8672L576.344 25.2891L576.32 25.7344L580.953 18.4375H582.57V27H581.359V21.7656L581.383 20.7344L581.422 19.7188L576.797 27H575.18V18.4375H576.398Z" fill="black"/>
<g filter="url(#filter2_i)">
<circle cx="810.5" cy="303.354" r="8.5" fill="white" fill-opacity="0.2"/>
</g>
<circle cx="810.5" cy="303.354" r="8" stroke="white" stroke-opacity="0.5"/>
<circle cx="810.5" cy="303.354" r="4.5" fill="white"/>
<path d="M810 303.854L717 270.784" stroke="white"/>
<g filter="url(#filter3_i)">
<rect x="410" y="247" width="308" height="43" rx="21.5" fill="white" fill-opacity="0.2"/>
</g>
<rect x="410.5" y="247.5" width="307" height="42" rx="21" stroke="white"/>
<rect x="413" y="250" width="302" height="37" rx="18.5" fill="white"/>
<path d="M433.211 274H431.602L426.32 268.211V274H424.992V262.578H426.32V268.109L431.469 262.578H432.992L427.938 268.125L433.211 274ZM438.578 274.156C438.021 274.156 437.51 274.055 437.047 273.852C436.589 273.643 436.203 273.326 435.891 272.898H435.797C435.859 273.398 435.891 273.872 435.891 274.32V277.844H434.594V265.438H435.648L435.828 266.609H435.891C436.224 266.141 436.612 265.802 437.055 265.594C437.497 265.385 438.005 265.281 438.578 265.281C439.714 265.281 440.589 265.669 441.203 266.445C441.823 267.221 442.133 268.31 442.133 269.711C442.133 271.117 441.818 272.211 441.188 272.992C440.562 273.768 439.693 274.156 438.578 274.156ZM438.391 266.383C437.516 266.383 436.883 266.625 436.492 267.109C436.102 267.594 435.901 268.365 435.891 269.422V269.711C435.891 270.914 436.091 271.776 436.492 272.297C436.893 272.812 437.536 273.07 438.422 273.07C439.161 273.07 439.74 272.771 440.156 272.172C440.578 271.573 440.789 270.747 440.789 269.695C440.789 268.628 440.578 267.81 440.156 267.242C439.74 266.669 439.151 266.383 438.391 266.383ZM451.797 269.711C451.797 271.107 451.445 272.198 450.742 272.984C450.039 273.766 449.068 274.156 447.828 274.156C447.062 274.156 446.383 273.977 445.789 273.617C445.195 273.258 444.737 272.742 444.414 272.07C444.091 271.398 443.93 270.612 443.93 269.711C443.93 268.315 444.279 267.229 444.977 266.453C445.674 265.672 446.643 265.281 447.883 265.281C449.081 265.281 450.031 265.68 450.734 266.477C451.443 267.273 451.797 268.352 451.797 269.711ZM445.273 269.711C445.273 270.805 445.492 271.638 445.93 272.211C446.367 272.784 447.01 273.07 447.859 273.07C448.708 273.07 449.352 272.786 449.789 272.219C450.232 271.646 450.453 270.81 450.453 269.711C450.453 268.622 450.232 267.797 449.789 267.234C449.352 266.667 448.703 266.383 447.844 266.383C446.995 266.383 446.354 266.661 445.922 267.219C445.49 267.776 445.273 268.607 445.273 269.711ZM458.523 272.75L458.766 272.023L459.102 271.102L461.422 265.453H463.07V274H461.922V266.93L461.766 267.383L461.312 268.578L459.102 274H458.016L455.805 268.562C455.529 267.865 455.339 267.32 455.234 266.93V274H454.078V265.453H455.664L457.906 270.883C458.13 271.456 458.336 272.078 458.523 272.75ZM470.836 265.438H472.258L468.562 269.57L472.562 274H471.047L467.141 269.664V274H465.844V265.438H467.141V269.602L470.836 265.438ZM481.547 269.711C481.547 271.107 481.195 272.198 480.492 272.984C479.789 273.766 478.818 274.156 477.578 274.156C476.812 274.156 476.133 273.977 475.539 273.617C474.945 273.258 474.487 272.742 474.164 272.07C473.841 271.398 473.68 270.612 473.68 269.711C473.68 268.315 474.029 267.229 474.727 266.453C475.424 265.672 476.393 265.281 477.633 265.281C478.831 265.281 479.781 265.68 480.484 266.477C481.193 267.273 481.547 268.352 481.547 269.711ZM475.023 269.711C475.023 270.805 475.242 271.638 475.68 272.211C476.117 272.784 476.76 273.07 477.609 273.07C478.458 273.07 479.102 272.786 479.539 272.219C479.982 271.646 480.203 270.81 480.203 269.711C480.203 268.622 479.982 267.797 479.539 267.234C479.102 266.667 478.453 266.383 477.594 266.383C476.745 266.383 476.104 266.661 475.672 267.219C475.24 267.776 475.023 268.607 475.023 269.711ZM490.773 267.586C490.773 268.143 490.612 268.568 490.289 268.859C489.971 269.146 489.523 269.339 488.945 269.438V269.508C489.674 269.607 490.206 269.82 490.539 270.148C490.878 270.477 491.047 270.93 491.047 271.508C491.047 272.305 490.753 272.919 490.164 273.352C489.581 273.784 488.727 274 487.602 274H483.828V265.438H487.586C489.711 265.438 490.773 266.154 490.773 267.586ZM489.75 271.422C489.75 270.958 489.573 270.622 489.219 270.414C488.87 270.201 488.289 270.094 487.477 270.094H485.125V272.914H487.508C489.003 272.914 489.75 272.417 489.75 271.422ZM489.508 267.711C489.508 267.294 489.346 267 489.023 266.828C488.706 266.651 488.221 266.562 487.57 266.562H485.125V268.977H487.32C488.122 268.977 488.688 268.878 489.016 268.68C489.344 268.482 489.508 268.159 489.508 267.711ZM498.203 274L497.945 272.781H497.883C497.456 273.318 497.029 273.682 496.602 273.875C496.18 274.062 495.651 274.156 495.016 274.156C494.167 274.156 493.5 273.938 493.016 273.5C492.536 273.062 492.297 272.44 492.297 271.633C492.297 269.904 493.68 268.997 496.445 268.914L497.898 268.867V268.336C497.898 267.664 497.753 267.169 497.461 266.852C497.174 266.529 496.714 266.367 496.078 266.367C495.365 266.367 494.557 266.586 493.656 267.023L493.258 266.031C493.68 265.802 494.141 265.622 494.641 265.492C495.146 265.362 495.651 265.297 496.156 265.297C497.177 265.297 497.932 265.523 498.422 265.977C498.917 266.43 499.164 267.156 499.164 268.156V274H498.203ZM495.273 273.086C496.081 273.086 496.714 272.865 497.172 272.422C497.635 271.979 497.867 271.359 497.867 270.562V269.789L496.57 269.844C495.539 269.88 494.794 270.042 494.336 270.328C493.883 270.609 493.656 271.049 493.656 271.648C493.656 272.117 493.797 272.474 494.078 272.719C494.365 272.964 494.763 273.086 495.273 273.086ZM503.141 265.438V269.023H507.938V265.438H509.234V274H507.938V270.141H503.141V274H501.844V265.438H503.141ZM513.203 265.438V270.867L513.148 272.289L513.125 272.734L517.758 265.438H519.375V274H518.164V268.766L518.188 267.734L518.227 266.719L513.602 274H511.984V265.438H513.203ZM525.742 274.156C524.477 274.156 523.477 273.771 522.742 273C522.013 272.229 521.648 271.159 521.648 269.789C521.648 268.409 521.987 267.312 522.664 266.5C523.346 265.688 524.26 265.281 525.406 265.281C526.479 265.281 527.328 265.635 527.953 266.344C528.578 267.047 528.891 267.977 528.891 269.133V269.953H522.992C523.018 270.958 523.271 271.721 523.75 272.242C524.234 272.763 524.914 273.023 525.789 273.023C526.711 273.023 527.622 272.831 528.523 272.445V273.602C528.065 273.799 527.63 273.94 527.219 274.023C526.812 274.112 526.32 274.156 525.742 274.156ZM525.391 266.367C524.703 266.367 524.154 266.591 523.742 267.039C523.336 267.487 523.096 268.107 523.023 268.898H527.5C527.5 268.081 527.318 267.456 526.953 267.023C526.589 266.586 526.068 266.367 525.391 266.367ZM542.242 268.273C542.242 270.247 541.93 271.721 541.305 272.695C540.685 273.669 539.734 274.156 538.453 274.156C537.224 274.156 536.289 273.659 535.648 272.664C535.008 271.664 534.688 270.201 534.688 268.273C534.688 266.284 534.997 264.807 535.617 263.844C536.237 262.88 537.182 262.398 538.453 262.398C539.693 262.398 540.633 262.901 541.273 263.906C541.919 264.911 542.242 266.367 542.242 268.273ZM536 268.273C536 269.935 536.195 271.146 536.586 271.906C536.977 272.661 537.599 273.039 538.453 273.039C539.318 273.039 539.943 272.656 540.328 271.891C540.719 271.12 540.914 269.914 540.914 268.273C540.914 266.633 540.719 265.432 540.328 264.672C539.943 263.906 539.318 263.523 538.453 263.523C537.599 263.523 536.977 263.901 536.586 264.656C536.195 265.406 536 266.612 536 268.273ZM544.234 273.172C544.234 272.823 544.312 272.56 544.469 272.383C544.63 272.201 544.859 272.109 545.156 272.109C545.458 272.109 545.693 272.201 545.859 272.383C546.031 272.56 546.117 272.823 546.117 273.172C546.117 273.51 546.031 273.771 545.859 273.953C545.688 274.135 545.453 274.227 545.156 274.227C544.891 274.227 544.669 274.146 544.492 273.984C544.32 273.818 544.234 273.547 544.234 273.172ZM551.664 267.023C552.867 267.023 553.812 267.323 554.5 267.922C555.193 268.516 555.539 269.331 555.539 270.367C555.539 271.549 555.161 272.477 554.406 273.148C553.656 273.82 552.62 274.156 551.297 274.156C550.01 274.156 549.029 273.951 548.352 273.539V272.289C548.716 272.523 549.169 272.708 549.711 272.844C550.253 272.974 550.786 273.039 551.312 273.039C552.229 273.039 552.94 272.823 553.445 272.391C553.956 271.958 554.211 271.333 554.211 270.516C554.211 268.922 553.234 268.125 551.281 268.125C550.786 268.125 550.125 268.201 549.297 268.352L548.625 267.922L549.055 262.578H554.734V263.773H550.164L549.875 267.203C550.474 267.083 551.07 267.023 551.664 267.023ZM562.289 272.75L562.531 272.023L562.867 271.102L565.188 265.453H566.836V274H565.688V266.93L565.531 267.383L565.078 268.578L562.867 274H561.781L559.57 268.562C559.294 267.865 559.104 267.32 559 266.93V274H557.844V265.453H559.43L561.672 270.883C561.896 271.456 562.102 272.078 562.289 272.75ZM574.055 272.75L574.297 272.023L574.633 271.102L576.953 265.453H578.602V274H577.453V266.93L577.297 267.383L576.844 268.578L574.633 274H573.547L571.336 268.562C571.06 267.865 570.87 267.32 570.766 266.93V274H569.609V265.453H571.195L573.438 270.883C573.661 271.456 573.867 272.078 574.055 272.75ZM586.828 274H585.531V265.438H592.719V274H591.406V266.562H586.828V274ZM601.852 274H600.539V266.547H597.969C597.828 268.401 597.633 269.872 597.383 270.961C597.133 272.049 596.807 272.846 596.406 273.352C596.01 273.857 595.505 274.109 594.891 274.109C594.609 274.109 594.385 274.078 594.219 274.016V273.055C594.333 273.086 594.464 273.102 594.609 273.102C595.208 273.102 595.685 272.469 596.039 271.203C596.393 269.938 596.661 268.016 596.844 265.438H601.852V274ZM609.875 274L609.617 272.781H609.555C609.128 273.318 608.701 273.682 608.273 273.875C607.852 274.062 607.323 274.156 606.688 274.156C605.839 274.156 605.172 273.938 604.688 273.5C604.208 273.062 603.969 272.44 603.969 271.633C603.969 269.904 605.352 268.997 608.117 268.914L609.57 268.867V268.336C609.57 267.664 609.424 267.169 609.133 266.852C608.846 266.529 608.385 266.367 607.75 266.367C607.036 266.367 606.229 266.586 605.328 267.023L604.93 266.031C605.352 265.802 605.812 265.622 606.312 265.492C606.818 265.362 607.323 265.297 607.828 265.297C608.849 265.297 609.604 265.523 610.094 265.977C610.589 266.43 610.836 267.156 610.836 268.156V274H609.875ZM606.945 273.086C607.753 273.086 608.385 272.865 608.844 272.422C609.307 271.979 609.539 271.359 609.539 270.562V269.789L608.242 269.844C607.211 269.88 606.466 270.042 606.008 270.328C605.555 270.609 605.328 271.049 605.328 271.648C605.328 272.117 605.469 272.474 605.75 272.719C606.036 272.964 606.435 273.086 606.945 273.086ZM616.938 274.156C615.698 274.156 614.737 273.776 614.055 273.016C613.378 272.25 613.039 271.169 613.039 269.773C613.039 268.341 613.383 267.234 614.07 266.453C614.763 265.672 615.747 265.281 617.023 265.281C617.435 265.281 617.846 265.326 618.258 265.414C618.669 265.503 618.992 265.607 619.227 265.727L618.828 266.828C618.542 266.714 618.229 266.62 617.891 266.547C617.552 266.469 617.253 266.43 616.992 266.43C615.253 266.43 614.383 267.539 614.383 269.758C614.383 270.81 614.594 271.617 615.016 272.18C615.443 272.742 616.073 273.023 616.906 273.023C617.62 273.023 618.352 272.87 619.102 272.562V273.711C618.529 274.008 617.807 274.156 616.938 274.156ZM626.914 266.547H624.133V274H622.836V266.547H620.086V265.438H626.914V266.547ZM629.828 265.438V270.867L629.773 272.289L629.75 272.734L634.383 265.438H636V274H634.789V268.766L634.812 267.734L634.852 266.719L630.227 274H628.609V265.438H629.828ZM643.742 265.438H645.164L641.469 269.57L645.469 274H643.953L640.047 269.664V274H638.75V265.438H640.047V269.602L643.742 265.438ZM658.164 267.586C658.164 268.143 658.003 268.568 657.68 268.859C657.362 269.146 656.914 269.339 656.336 269.438V269.508C657.065 269.607 657.596 269.82 657.93 270.148C658.268 270.477 658.438 270.93 658.438 271.508C658.438 272.305 658.143 272.919 657.555 273.352C656.971 273.784 656.117 274 654.992 274H651.219V265.438H654.977C657.102 265.438 658.164 266.154 658.164 267.586ZM657.141 271.422C657.141 270.958 656.964 270.622 656.609 270.414C656.26 270.201 655.68 270.094 654.867 270.094H652.516V272.914H654.898C656.393 272.914 657.141 272.417 657.141 271.422ZM656.898 267.711C656.898 267.294 656.737 267 656.414 266.828C656.096 266.651 655.612 266.562 654.961 266.562H652.516V268.977H654.711C655.513 268.977 656.078 268.878 656.406 268.68C656.734 268.482 656.898 268.159 656.898 267.711ZM661.625 265.438V269.023H666.422V265.438H667.719V274H666.422V270.141H661.625V274H660.328V265.438H661.625ZM669.109 265.438H670.5L672.375 270.32C672.786 271.435 673.042 272.24 673.141 272.734H673.203C673.271 272.469 673.411 272.016 673.625 271.375C673.844 270.729 674.552 268.75 675.75 265.438H677.141L673.461 275.188C673.096 276.151 672.669 276.833 672.18 277.234C671.695 277.641 671.099 277.844 670.391 277.844C669.995 277.844 669.604 277.799 669.219 277.711V276.672C669.505 276.734 669.826 276.766 670.18 276.766C671.07 276.766 671.706 276.266 672.086 275.266L672.562 274.047L669.109 265.438ZM684.305 266.547H681.523V274H680.227V266.547H677.477V265.438H684.305V266.547ZM689.984 274.156C689.427 274.156 688.917 274.055 688.453 273.852C687.995 273.643 687.609 273.326 687.297 272.898H687.203C687.266 273.398 687.297 273.872 687.297 274.32V277.844H686V265.438H687.055L687.234 266.609H687.297C687.63 266.141 688.018 265.802 688.461 265.594C688.904 265.385 689.411 265.281 689.984 265.281C691.12 265.281 691.995 265.669 692.609 266.445C693.229 267.221 693.539 268.31 693.539 269.711C693.539 271.117 693.224 272.211 692.594 272.992C691.969 273.768 691.099 274.156 689.984 274.156ZM689.797 266.383C688.922 266.383 688.289 266.625 687.898 267.109C687.508 267.594 687.307 268.365 687.297 269.422V269.711C687.297 270.914 687.497 271.776 687.898 272.297C688.299 272.812 688.943 273.07 689.828 273.07C690.568 273.07 691.146 272.771 691.562 272.172C691.984 271.573 692.195 270.747 692.195 269.695C692.195 268.628 691.984 267.81 691.562 267.242C691.146 266.669 690.557 266.383 689.797 266.383ZM697.031 265.438V270.867L696.977 272.289L696.953 272.734L701.586 265.438H703.203V274H701.992V268.766L702.016 267.734L702.055 266.719L697.43 274H695.812V265.438H697.031Z" fill="#353535"/>
<g filter="url(#filter4_i)">
<circle cx="743.5" cy="567.5" r="8.5" fill="white" fill-opacity="0.2"/>
</g>
<circle cx="743.5" cy="567.5" r="8" stroke="white" stroke-opacity="0.5"/>
<circle cx="743.5" cy="567.5" r="4.5" fill="white"/>
<path d="M750.535 564.156L831.841 515.104" stroke="white"/>
<g filter="url(#filter5_i)">
<rect x="829.612" y="487" width="287" height="43" rx="21.5" fill="white" fill-opacity="0.2"/>
</g>
<rect x="830.112" y="487.5" width="286" height="42" rx="21" stroke="white"/>
<rect x="832.612" y="490" width="281" height="37" rx="18.5" fill="white"/>
<path d="M848.057 509.234L845.065 514H843.495L846.698 509.008C845.859 508.742 845.25 508.341 844.87 507.805C844.489 507.263 844.299 506.581 844.299 505.758C844.299 504.737 844.651 503.953 845.354 503.406C846.062 502.854 847.133 502.578 848.565 502.578H851.706V514H850.377V509.234H848.057ZM850.377 503.727H848.604C847.651 503.727 846.927 503.891 846.432 504.219C845.937 504.547 845.69 505.081 845.69 505.82C845.69 507.336 846.677 508.094 848.651 508.094H850.377V503.727ZM861.042 512.883H864.838V505.453H866.135V512.883H867.362V516.945H866.049V514H854.659V505.453H855.956V512.883H859.745V505.453H861.042V512.883ZM870.237 505.438V510.867L870.182 512.289L870.159 512.734L874.792 505.438H876.409V514H875.198V508.766L875.221 507.734L875.26 506.719L870.635 514H869.018V505.438H870.237ZM884.151 505.438H885.573L881.877 509.57L885.877 514H884.362L880.456 509.664V514H879.159V505.438H880.456V509.602L884.151 505.438ZM888.69 505.438V510.867L888.635 512.289L888.612 512.734L893.245 505.438H894.862V514H893.651V508.766L893.674 507.734L893.713 506.719L889.088 514H887.471V505.438H888.69ZM902.987 505.438V510.867L902.932 512.289L902.909 512.734L907.542 505.438H909.159V514H907.948V508.766L907.971 507.734L908.01 506.719L903.385 514H901.768V505.438H902.987ZM923.502 516.961H922.245V514H916.26V516.961H915.01V512.883H915.682C916.38 511.935 916.927 510.823 917.323 509.547C917.719 508.271 917.924 506.901 917.94 505.438H922.276V512.883H923.502V516.961ZM921.026 512.883V506.461H919.104C919.036 507.617 918.812 508.789 918.432 509.977C918.057 511.159 917.588 512.128 917.026 512.883H921.026ZM932.612 509.711C932.612 511.107 932.26 512.198 931.557 512.984C930.854 513.766 929.883 514.156 928.643 514.156C927.877 514.156 927.198 513.977 926.604 513.617C926.01 513.258 925.552 512.742 925.229 512.07C924.906 511.398 924.745 510.612 924.745 509.711C924.745 508.315 925.094 507.229 925.792 506.453C926.489 505.672 927.458 505.281 928.698 505.281C929.896 505.281 930.846 505.68 931.549 506.477C932.258 507.273 932.612 508.352 932.612 509.711ZM926.088 509.711C926.088 510.805 926.307 511.638 926.745 512.211C927.182 512.784 927.825 513.07 928.674 513.07C929.523 513.07 930.167 512.786 930.604 512.219C931.047 511.646 931.268 510.81 931.268 509.711C931.268 508.622 931.047 507.797 930.604 507.234C930.167 506.667 929.518 506.383 928.659 506.383C927.81 506.383 927.169 506.661 926.737 507.219C926.305 507.776 926.088 508.607 926.088 509.711ZM936.19 514H934.893V505.438H942.081V514H940.768V506.562H936.19V514ZM952.221 509.711C952.221 511.107 951.87 512.198 951.167 512.984C950.463 513.766 949.492 514.156 948.252 514.156C947.487 514.156 946.807 513.977 946.213 513.617C945.62 513.258 945.161 512.742 944.838 512.07C944.515 511.398 944.354 510.612 944.354 509.711C944.354 508.315 944.703 507.229 945.401 506.453C946.099 505.672 947.068 505.281 948.307 505.281C949.505 505.281 950.456 505.68 951.159 506.477C951.867 507.273 952.221 508.352 952.221 509.711ZM945.698 509.711C945.698 510.805 945.917 511.638 946.354 512.211C946.792 512.784 947.435 513.07 948.284 513.07C949.133 513.07 949.776 512.786 950.213 512.219C950.656 511.646 950.877 510.81 950.877 509.711C950.877 508.622 950.656 507.797 950.213 507.234C949.776 506.667 949.127 506.383 948.268 506.383C947.419 506.383 946.778 506.661 946.346 507.219C945.914 507.776 945.698 508.607 945.698 509.711ZM960.885 514H959.573V506.547H957.002C956.862 508.401 956.667 509.872 956.417 510.961C956.167 512.049 955.841 512.846 955.44 513.352C955.044 513.857 954.539 514.109 953.924 514.109C953.643 514.109 953.419 514.078 953.252 514.016V513.055C953.367 513.086 953.497 513.102 953.643 513.102C954.242 513.102 954.719 512.469 955.073 511.203C955.427 509.938 955.695 508.016 955.877 505.438H960.885V514ZM964.94 505.438V509.023H969.737V505.438H971.034V514H969.737V510.141H964.94V514H963.643V505.438H964.94ZM975.002 505.438V510.867L974.948 512.289L974.924 512.734L979.557 505.438H981.174V514H979.963V508.766L979.987 507.734L980.026 506.719L975.401 514H973.784V505.438H975.002ZM989.698 506.547H986.917V514H985.62V506.547H982.87V505.438H989.698V506.547ZM995.01 514.156C993.745 514.156 992.745 513.771 992.01 513C991.281 512.229 990.917 511.159 990.917 509.789C990.917 508.409 991.255 507.312 991.932 506.5C992.614 505.688 993.528 505.281 994.674 505.281C995.747 505.281 996.596 505.635 997.221 506.344C997.846 507.047 998.159 507.977 998.159 509.133V509.953H992.26C992.286 510.958 992.539 511.721 993.018 512.242C993.502 512.763 994.182 513.023 995.057 513.023C995.979 513.023 996.89 512.831 997.792 512.445V513.602C997.333 513.799 996.898 513.94 996.487 514.023C996.081 514.112 995.588 514.156 995.01 514.156ZM994.659 506.367C993.971 506.367 993.422 506.591 993.01 507.039C992.604 507.487 992.364 508.107 992.292 508.898H996.768C996.768 508.081 996.586 507.456 996.221 507.023C995.857 506.586 995.336 506.367 994.659 506.367ZM1006.76 514H1005.45V506.547H1002.88C1002.74 508.401 1002.54 509.872 1002.29 510.961C1002.04 512.049 1001.72 512.846 1001.31 513.352C1000.92 513.857 1000.41 514.109 999.799 514.109C999.518 514.109 999.294 514.078 999.127 514.016V513.055C999.242 513.086 999.372 513.102 999.518 513.102C1000.12 513.102 1000.59 512.469 1000.95 511.203C1001.3 509.938 1001.57 508.016 1001.75 505.438H1006.76V514ZM1010.81 508.977H1013.46C1015.64 508.977 1016.74 509.781 1016.74 511.391C1016.74 512.234 1016.45 512.88 1015.88 513.328C1015.31 513.776 1014.48 514 1013.38 514H1009.52V505.438H1010.81V508.977ZM1010.81 510.094V512.914H1013.31C1014 512.914 1014.53 512.794 1014.89 512.555C1015.26 512.315 1015.44 511.953 1015.44 511.469C1015.44 510.995 1015.27 510.648 1014.93 510.43C1014.6 510.206 1014.05 510.094 1013.28 510.094H1010.81ZM1020.28 505.438V509.023H1025.08V505.438H1026.38V514H1025.08V510.141H1020.28V514H1018.99V505.438H1020.28ZM1030.42 508.977H1032.76C1033.85 508.977 1034.65 509.18 1035.17 509.586C1035.7 509.987 1035.96 510.589 1035.96 511.391C1035.96 512.25 1035.68 512.901 1035.13 513.344C1034.58 513.781 1033.76 514 1032.68 514H1029.13V505.438H1030.42V508.977ZM1038.7 514H1037.4V505.438H1038.7V514ZM1030.42 510.094V512.914H1032.62C1033.99 512.914 1034.68 512.432 1034.68 511.469C1034.68 510.99 1034.52 510.641 1034.21 510.422C1033.89 510.203 1033.35 510.094 1032.58 510.094H1030.42ZM1045.07 514.156C1043.81 514.156 1042.81 513.771 1042.07 513C1041.34 512.229 1040.98 511.159 1040.98 509.789C1040.98 508.409 1041.32 507.312 1041.99 506.5C1042.68 505.688 1043.59 505.281 1044.74 505.281C1045.81 505.281 1046.66 505.635 1047.28 506.344C1047.91 507.047 1048.22 507.977 1048.22 509.133V509.953H1042.32C1042.35 510.958 1042.6 511.721 1043.08 512.242C1043.56 512.763 1044.24 513.023 1045.12 513.023C1046.04 513.023 1046.95 512.831 1047.85 512.445V513.602C1047.4 513.799 1046.96 513.94 1046.55 514.023C1046.14 514.112 1045.65 514.156 1045.07 514.156ZM1044.72 506.367C1044.03 506.367 1043.48 506.591 1043.07 507.039C1042.67 507.487 1042.43 508.107 1042.35 508.898H1046.83C1046.83 508.081 1046.65 507.456 1046.28 507.023C1045.92 506.586 1045.4 506.367 1044.72 506.367ZM1061.99 509.711C1061.99 511.107 1061.64 512.198 1060.93 512.984C1060.23 513.766 1059.26 514.156 1058.02 514.156C1057.25 514.156 1056.57 513.977 1055.98 513.617C1055.39 513.258 1054.93 512.742 1054.6 512.07C1054.28 511.398 1054.12 510.612 1054.12 509.711C1054.12 508.315 1054.47 507.229 1055.17 506.453C1055.86 505.672 1056.83 505.281 1058.07 505.281C1059.27 505.281 1060.22 505.68 1060.92 506.477C1061.63 507.273 1061.99 508.352 1061.99 509.711ZM1055.46 509.711C1055.46 510.805 1055.68 511.638 1056.12 512.211C1056.56 512.784 1057.2 513.07 1058.05 513.07C1058.9 513.07 1059.54 512.786 1059.98 512.219C1060.42 511.646 1060.64 510.81 1060.64 509.711C1060.64 508.622 1060.42 507.797 1059.98 507.234C1059.54 506.667 1058.89 506.383 1058.03 506.383C1057.18 506.383 1056.54 506.661 1056.11 507.219C1055.68 507.776 1055.46 508.607 1055.46 509.711ZM1065.56 514H1064.27V505.438H1071.46V514H1070.14V506.562H1065.56V514ZM1082.56 516.961H1081.26V514H1074.21V505.438H1075.5V512.883H1080.05V505.438H1081.35V512.883H1082.56V516.961ZM1085.44 505.438V510.867L1085.39 512.289L1085.36 512.734L1089.99 505.438H1091.61V514H1090.4V508.766L1090.42 507.734L1090.46 506.719L1085.84 514H1084.22V505.438H1085.44ZM1095.58 505.438V510.867L1095.53 512.289L1095.5 512.734L1100.14 505.438H1101.75V514H1100.54V508.766L1100.56 507.734L1100.6 506.719L1095.98 514H1094.36V505.438H1095.58Z" fill="#353535"/>
<path d="M251 416.279L320.096 458.454" stroke="white"/>
<g filter="url(#filter6_i)">
<circle cx="327.5" cy="462.5" r="8.5" fill="white" fill-opacity="0.2"/>
</g>
<circle cx="327.5" cy="462.5" r="8" stroke="white"/>
<circle cx="327.5" cy="462.5" r="4.5" fill="white"/>
<g filter="url(#filter7_i)">
<rect y="391" width="252" height="43" rx="21.5" fill="white" fill-opacity="0.2"/>
</g>
<rect x="0.5" y="391.5" width="251" height="42" rx="21" stroke="white"/>
<rect x="3" y="394" width="246" height="37" rx="18.5" fill="white"/>
<path d="M23.3125 418H21.9844V407.758H16.1172V418H14.7891V406.578H23.3125V418ZM30.25 418.156C29.6927 418.156 29.1823 418.055 28.7188 417.852C28.2604 417.643 27.875 417.326 27.5625 416.898H27.4688C27.5312 417.398 27.5625 417.872 27.5625 418.32V421.844H26.2656V409.438H27.3203L27.5 410.609H27.5625C27.8958 410.141 28.2839 409.802 28.7266 409.594C29.1693 409.385 29.6771 409.281 30.25 409.281C31.3854 409.281 32.2604 409.669 32.875 410.445C33.4948 411.221 33.8047 412.31 33.8047 413.711C33.8047 415.117 33.4896 416.211 32.8594 416.992C32.2344 417.768 31.3646 418.156 30.25 418.156ZM30.0625 410.383C29.1875 410.383 28.5547 410.625 28.1641 411.109C27.7734 411.594 27.5729 412.365 27.5625 413.422V413.711C27.5625 414.914 27.763 415.776 28.1641 416.297C28.5651 416.812 29.2083 417.07 30.0938 417.07C30.8333 417.07 31.4115 416.771 31.8281 416.172C32.25 415.573 32.4609 414.747 32.4609 413.695C32.4609 412.628 32.25 411.81 31.8281 411.242C31.4115 410.669 30.8229 410.383 30.0625 410.383ZM43.4688 413.711C43.4688 415.107 43.1172 416.198 42.4141 416.984C41.7109 417.766 40.7396 418.156 39.5 418.156C38.7344 418.156 38.0547 417.977 37.4609 417.617C36.8672 417.258 36.4089 416.742 36.0859 416.07C35.763 415.398 35.6016 414.612 35.6016 413.711C35.6016 412.315 35.9505 411.229 36.6484 410.453C37.3464 409.672 38.3151 409.281 39.5547 409.281C40.7526 409.281 41.7031 409.68 42.4062 410.477C43.1146 411.273 43.4688 412.352 43.4688 413.711ZM36.9453 413.711C36.9453 414.805 37.1641 415.638 37.6016 416.211C38.0391 416.784 38.6823 417.07 39.5312 417.07C40.3802 417.07 41.0234 416.786 41.4609 416.219C41.9036 415.646 42.125 414.81 42.125 413.711C42.125 412.622 41.9036 411.797 41.4609 411.234C41.0234 410.667 40.375 410.383 39.5156 410.383C38.6667 410.383 38.026 410.661 37.5938 411.219C37.1615 411.776 36.9453 412.607 36.9453 413.711ZM53.1875 420.961H51.9297V418H45.9453V420.961H44.6953V416.883H45.3672C46.0651 415.935 46.612 414.823 47.0078 413.547C47.4036 412.271 47.6094 410.901 47.625 409.438H51.9609V416.883H53.1875V420.961ZM50.7109 416.883V410.461H48.7891C48.7214 411.617 48.4974 412.789 48.1172 413.977C47.7422 415.159 47.2734 416.128 46.7109 416.883H50.7109ZM53.5469 409.438H54.9375L56.8125 414.32C57.224 415.435 57.4792 416.24 57.5781 416.734H57.6406C57.7083 416.469 57.849 416.016 58.0625 415.375C58.2812 414.729 58.9896 412.75 60.1875 409.438H61.5781L57.8984 419.188C57.5339 420.151 57.1068 420.833 56.6172 421.234C56.1328 421.641 55.5365 421.844 54.8281 421.844C54.4323 421.844 54.0417 421.799 53.6562 421.711V420.672C53.9427 420.734 54.263 420.766 54.6172 420.766C55.5078 420.766 56.1432 420.266 56.5234 419.266L57 418.047L53.5469 409.438ZM67.4141 416.75L67.6562 416.023L67.9922 415.102L70.3125 409.453H71.9609V418H70.8125V410.93L70.6562 411.383L70.2031 412.578L67.9922 418H66.9062L64.6953 412.562C64.4193 411.865 64.2292 411.32 64.125 410.93V418H62.9688V409.453H64.5547L66.7969 414.883C67.0208 415.456 67.2266 416.078 67.4141 416.75ZM80 418L79.7422 416.781H79.6797C79.2526 417.318 78.8255 417.682 78.3984 417.875C77.9766 418.062 77.4479 418.156 76.8125 418.156C75.9635 418.156 75.2969 417.938 74.8125 417.5C74.3333 417.062 74.0938 416.44 74.0938 415.633C74.0938 413.904 75.4766 412.997 78.2422 412.914L79.6953 412.867V412.336C79.6953 411.664 79.5495 411.169 79.2578 410.852C78.9714 410.529 78.5104 410.367 77.875 410.367C77.1615 410.367 76.3542 410.586 75.4531 411.023L75.0547 410.031C75.4766 409.802 75.9375 409.622 76.4375 409.492C76.9427 409.362 77.4479 409.297 77.9531 409.297C78.974 409.297 79.7292 409.523 80.2188 409.977C80.7135 410.43 80.9609 411.156 80.9609 412.156V418H80ZM77.0703 417.086C77.8776 417.086 78.5104 416.865 78.9688 416.422C79.4323 415.979 79.6641 415.359 79.6641 414.562V413.789L78.3672 413.844C77.3359 413.88 76.5911 414.042 76.1328 414.328C75.6797 414.609 75.4531 415.049 75.4531 415.648C75.4531 416.117 75.5938 416.474 75.875 416.719C76.1615 416.964 76.5599 417.086 77.0703 417.086ZM84.9375 409.438V413.023H89.7344V409.438H91.0312V418H89.7344V414.141H84.9375V418H83.6406V409.438H84.9375ZM95.0781 409.438V413.023H99.875V409.438H101.172V418H99.875V414.141H95.0781V418H93.7812V409.438H95.0781ZM109.188 418L108.93 416.781H108.867C108.44 417.318 108.013 417.682 107.586 417.875C107.164 418.062 106.635 418.156 106 418.156C105.151 418.156 104.484 417.938 104 417.5C103.521 417.062 103.281 416.44 103.281 415.633C103.281 413.904 104.664 412.997 107.43 412.914L108.883 412.867V412.336C108.883 411.664 108.737 411.169 108.445 410.852C108.159 410.529 107.698 410.367 107.062 410.367C106.349 410.367 105.542 410.586 104.641 411.023L104.242 410.031C104.664 409.802 105.125 409.622 105.625 409.492C106.13 409.362 106.635 409.297 107.141 409.297C108.161 409.297 108.917 409.523 109.406 409.977C109.901 410.43 110.148 411.156 110.148 412.156V418H109.188ZM106.258 417.086C107.065 417.086 107.698 416.865 108.156 416.422C108.62 415.979 108.852 415.359 108.852 414.562V413.789L107.555 413.844C106.523 413.88 105.779 414.042 105.32 414.328C104.867 414.609 104.641 415.049 104.641 415.648C104.641 416.117 104.781 416.474 105.062 416.719C105.349 416.964 105.747 417.086 106.258 417.086ZM113.258 418H111.742L114.203 414.383C113.542 414.237 113.034 413.956 112.68 413.539C112.331 413.117 112.156 412.589 112.156 411.953C112.156 411.172 112.419 410.557 112.945 410.109C113.471 409.661 114.206 409.438 115.148 409.438H118.961V418H117.664V414.578H115.5L113.258 418ZM113.422 411.969C113.422 412.958 114.141 413.453 115.578 413.453H117.664V410.562H115.312C114.052 410.562 113.422 411.031 113.422 411.969ZM132.258 416.883H136.055V409.438H137.367V418H125.875V409.438H127.172V416.883H130.961V409.438H132.258V416.883ZM141.344 409.438V414.867L141.289 416.289L141.266 416.734L145.898 409.438H147.516V418H146.305V412.766L146.328 411.734L146.367 410.719L141.742 418H140.125V409.438H141.344ZM154.25 418.156C153.693 418.156 153.182 418.055 152.719 417.852C152.26 417.643 151.875 417.326 151.562 416.898H151.469C151.531 417.398 151.562 417.872 151.562 418.32V421.844H150.266V409.438H151.32L151.5 410.609H151.562C151.896 410.141 152.284 409.802 152.727 409.594C153.169 409.385 153.677 409.281 154.25 409.281C155.385 409.281 156.26 409.669 156.875 410.445C157.495 411.221 157.805 412.31 157.805 413.711C157.805 415.117 157.49 416.211 156.859 416.992C156.234 417.768 155.365 418.156 154.25 418.156ZM154.062 410.383C153.188 410.383 152.555 410.625 152.164 411.109C151.773 411.594 151.573 412.365 151.562 413.422V413.711C151.562 414.914 151.763 415.776 152.164 416.297C152.565 416.812 153.208 417.07 154.094 417.07C154.833 417.07 155.411 416.771 155.828 416.172C156.25 415.573 156.461 414.747 156.461 413.695C156.461 412.628 156.25 411.81 155.828 411.242C155.411 410.669 154.823 410.383 154.062 410.383ZM161.297 409.438V414.867L161.242 416.289L161.219 416.734L165.852 409.438H167.469V418H166.258V412.766L166.281 411.734L166.32 410.719L161.695 418H160.078V409.438H161.297ZM171.516 409.438V413.023H176.312V409.438H177.609V418H176.312V414.141H171.516V418H170.219V409.438H171.516ZM185.625 418L185.367 416.781H185.305C184.878 417.318 184.451 417.682 184.023 417.875C183.602 418.062 183.073 418.156 182.438 418.156C181.589 418.156 180.922 417.938 180.438 417.5C179.958 417.062 179.719 416.44 179.719 415.633C179.719 413.904 181.102 412.997 183.867 412.914L185.32 412.867V412.336C185.32 411.664 185.174 411.169 184.883 410.852C184.596 410.529 184.135 410.367 183.5 410.367C182.786 410.367 181.979 410.586 181.078 411.023L180.68 410.031C181.102 409.802 181.562 409.622 182.062 409.492C182.568 409.362 183.073 409.297 183.578 409.297C184.599 409.297 185.354 409.523 185.844 409.977C186.339 410.43 186.586 411.156 186.586 412.156V418H185.625ZM182.695 417.086C183.503 417.086 184.135 416.865 184.594 416.422C185.057 415.979 185.289 415.359 185.289 414.562V413.789L183.992 413.844C182.961 413.88 182.216 414.042 181.758 414.328C181.305 414.609 181.078 415.049 181.078 415.648C181.078 416.117 181.219 416.474 181.5 416.719C181.786 416.964 182.185 417.086 182.695 417.086ZM194.719 418H193.422V409.438H200.609V418H199.297V410.562H194.719V418ZM210.75 413.711C210.75 415.107 210.398 416.198 209.695 416.984C208.992 417.766 208.021 418.156 206.781 418.156C206.016 418.156 205.336 417.977 204.742 417.617C204.148 417.258 203.69 416.742 203.367 416.07C203.044 415.398 202.883 414.612 202.883 413.711C202.883 412.315 203.232 411.229 203.93 410.453C204.628 409.672 205.596 409.281 206.836 409.281C208.034 409.281 208.984 409.68 209.688 410.477C210.396 411.273 210.75 412.352 210.75 413.711ZM204.227 413.711C204.227 414.805 204.445 415.638 204.883 416.211C205.32 416.784 205.964 417.07 206.812 417.07C207.661 417.07 208.305 416.786 208.742 416.219C209.185 415.646 209.406 414.81 209.406 413.711C209.406 412.622 209.185 411.797 208.742 411.234C208.305 410.667 207.656 410.383 206.797 410.383C205.948 410.383 205.307 410.661 204.875 411.219C204.443 411.776 204.227 412.607 204.227 413.711ZM219.414 418H218.102V410.547H215.531C215.391 412.401 215.195 413.872 214.945 414.961C214.695 416.049 214.37 416.846 213.969 417.352C213.573 417.857 213.068 418.109 212.453 418.109C212.172 418.109 211.948 418.078 211.781 418.016V417.055C211.896 417.086 212.026 417.102 212.172 417.102C212.771 417.102 213.247 416.469 213.602 415.203C213.956 413.938 214.224 412.016 214.406 409.438H219.414V418ZM229.562 413.711C229.562 415.107 229.211 416.198 228.508 416.984C227.805 417.766 226.833 418.156 225.594 418.156C224.828 418.156 224.148 417.977 223.555 417.617C222.961 417.258 222.503 416.742 222.18 416.07C221.857 415.398 221.695 414.612 221.695 413.711C221.695 412.315 222.044 411.229 222.742 410.453C223.44 409.672 224.409 409.281 225.648 409.281C226.846 409.281 227.797 409.68 228.5 410.477C229.208 411.273 229.562 412.352 229.562 413.711ZM223.039 413.711C223.039 414.805 223.258 415.638 223.695 416.211C224.133 416.784 224.776 417.07 225.625 417.07C226.474 417.07 227.117 416.786 227.555 416.219C227.997 415.646 228.219 414.81 228.219 413.711C228.219 412.622 227.997 411.797 227.555 411.234C227.117 410.667 226.469 410.383 225.609 410.383C224.76 410.383 224.12 410.661 223.688 411.219C223.255 411.776 223.039 412.607 223.039 413.711ZM236.836 409.438H238.258L234.562 413.57L238.562 418H237.047L233.141 413.664V418H231.844V409.438H233.141V413.602L236.836 409.438Z" fill="#353535"/>
<path d="M609 145L754 84" stroke="white"/>
<g filter="url(#filter8_i)">
<circle cx="608.5" cy="145.5" r="8.5" fill="white" fill-opacity="0.2"/>
</g>
<circle cx="608.5" cy="145.5" r="8" stroke="white" stroke-opacity="0.5"/>
<circle cx="608.5" cy="145.5" r="4.5" fill="white"/>
<g filter="url(#filter9_i)">
<rect x="753" y="60" width="276" height="43" rx="21.5" fill="white" fill-opacity="0.2"/>
</g>
<rect x="753.5" y="60.5" width="275" height="42" rx="21" stroke="white"/>
<rect x="756" y="63" width="270" height="37" rx="18.5" fill="white"/>
<path d="M776.18 87H774.852V76.7578H768.984V87H767.656V75.5781H776.18V87ZM783.117 87.1562C782.56 87.1562 782.049 87.0547 781.586 86.8516C781.128 86.6432 780.742 86.3255 780.43 85.8984H780.336C780.398 86.3984 780.43 86.8724 780.43 87.3203V90.8438H779.133V78.4375H780.188L780.367 79.6094H780.43C780.763 79.1406 781.151 78.8021 781.594 78.5938C782.036 78.3854 782.544 78.2812 783.117 78.2812C784.253 78.2812 785.128 78.6693 785.742 79.4453C786.362 80.2214 786.672 81.3099 786.672 82.7109C786.672 84.1172 786.357 85.2109 785.727 85.9922C785.102 86.7682 784.232 87.1562 783.117 87.1562ZM782.93 79.3828C782.055 79.3828 781.422 79.625 781.031 80.1094C780.641 80.5938 780.44 81.3646 780.43 82.4219V82.7109C780.43 83.9141 780.63 84.776 781.031 85.2969C781.432 85.8125 782.076 86.0703 782.961 86.0703C783.701 86.0703 784.279 85.7708 784.695 85.1719C785.117 84.5729 785.328 83.7474 785.328 82.6953C785.328 81.6276 785.117 80.8099 784.695 80.2422C784.279 79.6693 783.69 79.3828 782.93 79.3828ZM794.211 87L793.953 85.7812H793.891C793.464 86.3177 793.036 86.6823 792.609 86.875C792.188 87.0625 791.659 87.1562 791.023 87.1562C790.174 87.1562 789.508 86.9375 789.023 86.5C788.544 86.0625 788.305 85.4401 788.305 84.6328C788.305 82.9036 789.688 81.9974 792.453 81.9141L793.906 81.8672V81.3359C793.906 80.6641 793.76 80.1693 793.469 79.8516C793.182 79.5286 792.721 79.3672 792.086 79.3672C791.372 79.3672 790.565 79.5859 789.664 80.0234L789.266 79.0312C789.688 78.8021 790.148 78.6224 790.648 78.4922C791.154 78.362 791.659 78.2969 792.164 78.2969C793.185 78.2969 793.94 78.5234 794.43 78.9766C794.924 79.4297 795.172 80.1562 795.172 81.1562V87H794.211ZM791.281 86.0859C792.089 86.0859 792.721 85.8646 793.18 85.4219C793.643 84.9792 793.875 84.3594 793.875 83.5625V82.7891L792.578 82.8438C791.547 82.8802 790.802 83.0417 790.344 83.3281C789.891 83.6094 789.664 84.0495 789.664 84.6484C789.664 85.1172 789.805 85.474 790.086 85.7188C790.372 85.9635 790.771 86.0859 791.281 86.0859ZM802.844 78.4375H804.266L800.57 82.5703L804.57 87H803.055L799.148 82.6641V87H797.852V78.4375H799.148V82.6016L802.844 78.4375ZM811.938 79.5469H809.156V87H807.859V79.5469H805.109V78.4375H811.938V79.5469ZM814.852 78.4375V83.8672L814.797 85.2891L814.773 85.7344L819.406 78.4375H821.023V87H819.812V81.7656L819.836 80.7344L819.875 79.7188L815.25 87H813.633V78.4375H814.852ZM824.914 78.4375V81.5625C824.914 82.5625 825.484 83.0625 826.625 83.0625C827.099 83.0625 827.552 82.9896 827.984 82.8438C828.417 82.6979 828.906 82.4505 829.453 82.1016V78.4375H830.75V87H829.453V83.125C828.906 83.5 828.398 83.7656 827.93 83.9219C827.466 84.0729 826.94 84.1484 826.352 84.1484C825.497 84.1484 824.828 83.9245 824.344 83.4766C823.859 83.0286 823.617 82.4219 823.617 81.6562V78.4375H824.914ZM834.805 78.4375V82.0234H839.602V78.4375H840.898V87H839.602V83.1406H834.805V87H833.508V78.4375H834.805ZM848.914 87L848.656 85.7812H848.594C848.167 86.3177 847.74 86.6823 847.312 86.875C846.891 87.0625 846.362 87.1562 845.727 87.1562C844.878 87.1562 844.211 86.9375 843.727 86.5C843.247 86.0625 843.008 85.4401 843.008 84.6328C843.008 82.9036 844.391 81.9974 847.156 81.9141L848.609 81.8672V81.3359C848.609 80.6641 848.464 80.1693 848.172 79.8516C847.885 79.5286 847.424 79.3672 846.789 79.3672C846.076 79.3672 845.268 79.5859 844.367 80.0234L843.969 79.0312C844.391 78.8021 844.852 78.6224 845.352 78.4922C845.857 78.362 846.362 78.2969 846.867 78.2969C847.888 78.2969 848.643 78.5234 849.133 78.9766C849.628 79.4297 849.875 80.1562 849.875 81.1562V87H848.914ZM845.984 86.0859C846.792 86.0859 847.424 85.8646 847.883 85.4219C848.346 84.9792 848.578 84.3594 848.578 83.5625V82.7891L847.281 82.8438C846.25 82.8802 845.505 83.0417 845.047 83.3281C844.594 83.6094 844.367 84.0495 844.367 84.6484C844.367 85.1172 844.508 85.474 844.789 85.7188C845.076 85.9635 845.474 86.0859 845.984 86.0859ZM852.984 87H851.469L853.93 83.3828C853.268 83.237 852.76 82.9557 852.406 82.5391C852.057 82.1172 851.883 81.5885 851.883 80.9531C851.883 80.1719 852.146 79.5573 852.672 79.1094C853.198 78.6615 853.932 78.4375 854.875 78.4375H858.688V87H857.391V83.5781H855.227L852.984 87ZM853.148 80.9688C853.148 81.9583 853.867 82.4531 855.305 82.4531H857.391V79.5625H855.039C853.779 79.5625 853.148 80.0312 853.148 80.9688ZM872.547 80.5859C872.547 81.1432 872.385 81.5677 872.062 81.8594C871.745 82.1458 871.297 82.3385 870.719 82.4375V82.5078C871.448 82.6068 871.979 82.8203 872.312 83.1484C872.651 83.4766 872.82 83.9297 872.82 84.5078C872.82 85.3047 872.526 85.9193 871.938 86.3516C871.354 86.7839 870.5 87 869.375 87H865.602V78.4375H869.359C871.484 78.4375 872.547 79.1536 872.547 80.5859ZM871.523 84.4219C871.523 83.9583 871.346 83.6224 870.992 83.4141C870.643 83.2005 870.062 83.0938 869.25 83.0938H866.898V85.9141H869.281C870.776 85.9141 871.523 85.4167 871.523 84.4219ZM871.281 80.7109C871.281 80.2943 871.12 80 870.797 79.8281C870.479 79.651 869.995 79.5625 869.344 79.5625H866.898V81.9766H869.094C869.896 81.9766 870.461 81.8776 870.789 81.6797C871.117 81.4818 871.281 81.1589 871.281 80.7109ZM876.008 81.9766H878.344C879.432 81.9766 880.237 82.1797 880.758 82.5859C881.284 82.987 881.547 83.5885 881.547 84.3906C881.547 85.25 881.268 85.901 880.711 86.3438C880.159 86.7812 879.344 87 878.266 87H874.711V78.4375H876.008V81.9766ZM884.281 87H882.984V78.4375H884.281V87ZM876.008 83.0938V85.9141H878.203C879.578 85.9141 880.266 85.4323 880.266 84.4688C880.266 83.9896 880.107 83.6406 879.789 83.4219C879.471 83.2031 878.93 83.0938 878.164 83.0938H876.008ZM890.461 87.1562C889.221 87.1562 888.26 86.776 887.578 86.0156C886.901 85.25 886.562 84.1693 886.562 82.7734C886.562 81.3411 886.906 80.2344 887.594 79.4531C888.286 78.6719 889.271 78.2812 890.547 78.2812C890.958 78.2812 891.37 78.3255 891.781 78.4141C892.193 78.5026 892.516 78.6068 892.75 78.7266L892.352 79.8281C892.065 79.7135 891.753 79.6198 891.414 79.5469C891.076 79.4688 890.776 79.4297 890.516 79.4297C888.776 79.4297 887.906 80.5391 887.906 82.7578C887.906 83.8099 888.117 84.6172 888.539 85.1797C888.966 85.7422 889.596 86.0234 890.43 86.0234C891.143 86.0234 891.875 85.8698 892.625 85.5625V86.7109C892.052 87.0078 891.331 87.1562 890.461 87.1562ZM902.055 82.7109C902.055 84.1068 901.703 85.1979 901 85.9844C900.297 86.7656 899.326 87.1562 898.086 87.1562C897.32 87.1562 896.641 86.9766 896.047 86.6172C895.453 86.2578 894.995 85.7422 894.672 85.0703C894.349 84.3984 894.188 83.612 894.188 82.7109C894.188 81.3151 894.536 80.2292 895.234 79.4531C895.932 78.6719 896.901 78.2812 898.141 78.2812C899.339 78.2812 900.289 78.6797 900.992 79.4766C901.701 80.2734 902.055 81.3516 902.055 82.7109ZM895.531 82.7109C895.531 83.8047 895.75 84.638 896.188 85.2109C896.625 85.7839 897.268 86.0703 898.117 86.0703C898.966 86.0703 899.609 85.7865 900.047 85.2188C900.49 84.6458 900.711 83.8099 900.711 82.7109C900.711 81.6224 900.49 80.7969 900.047 80.2344C899.609 79.6667 898.961 79.3828 898.102 79.3828C897.253 79.3828 896.612 79.6615 896.18 80.2188C895.747 80.776 895.531 81.6068 895.531 82.7109ZM910.109 79.5469H907.328V87H906.031V79.5469H903.281V78.4375H910.109V79.5469ZM917.07 87L916.812 85.7812H916.75C916.323 86.3177 915.896 86.6823 915.469 86.875C915.047 87.0625 914.518 87.1562 913.883 87.1562C913.034 87.1562 912.367 86.9375 911.883 86.5C911.404 86.0625 911.164 85.4401 911.164 84.6328C911.164 82.9036 912.547 81.9974 915.312 81.9141L916.766 81.8672V81.3359C916.766 80.6641 916.62 80.1693 916.328 79.8516C916.042 79.5286 915.581 79.3672 914.945 79.3672C914.232 79.3672 913.424 79.5859 912.523 80.0234L912.125 79.0312C912.547 78.8021 913.008 78.6224 913.508 78.4922C914.013 78.362 914.518 78.2969 915.023 78.2969C916.044 78.2969 916.799 78.5234 917.289 78.9766C917.784 79.4297 918.031 80.1562 918.031 81.1562V87H917.07ZM914.141 86.0859C914.948 86.0859 915.581 85.8646 916.039 85.4219C916.503 84.9792 916.734 84.3594 916.734 83.5625V82.7891L915.438 82.8438C914.406 82.8802 913.661 83.0417 913.203 83.3281C912.75 83.6094 912.523 84.0495 912.523 84.6484C912.523 85.1172 912.664 85.474 912.945 85.7188C913.232 85.9635 913.63 86.0859 914.141 86.0859ZM932.305 89.9609H931.047V87H925.062V89.9609H923.812V85.8828H924.484C925.182 84.9349 925.729 83.8229 926.125 82.5469C926.521 81.2708 926.727 79.901 926.742 78.4375H931.078V85.8828H932.305V89.9609ZM929.828 85.8828V79.4609H927.906C927.839 80.6172 927.615 81.7891 927.234 82.9766C926.859 84.1589 926.391 85.1276 925.828 85.8828H929.828ZM940.406 87H939.094V79.5469H936.523C936.383 81.401 936.188 82.8724 935.938 83.9609C935.688 85.0495 935.362 85.8464 934.961 86.3516C934.565 86.8568 934.06 87.1094 933.445 87.1094C933.164 87.1094 932.94 87.0781 932.773 87.0156V86.0547C932.888 86.0859 933.018 86.1016 933.164 86.1016C933.763 86.1016 934.24 85.4688 934.594 84.2031C934.948 82.9375 935.216 81.0156 935.398 78.4375H940.406V87ZM943.594 87H942.078L944.539 83.3828C943.878 83.237 943.37 82.9557 943.016 82.5391C942.667 82.1172 942.492 81.5885 942.492 80.9531C942.492 80.1719 942.755 79.5573 943.281 79.1094C943.807 78.6615 944.542 78.4375 945.484 78.4375H949.297V87H948V83.5781H945.836L943.594 87ZM943.758 80.9688C943.758 81.9583 944.477 82.4531 945.914 82.4531H948V79.5625H945.648C944.388 79.5625 943.758 80.0312 943.758 80.9688ZM963.602 82.7109C963.602 84.1068 963.25 85.1979 962.547 85.9844C961.844 86.7656 960.872 87.1562 959.633 87.1562C958.867 87.1562 958.188 86.9766 957.594 86.6172C957 86.2578 956.542 85.7422 956.219 85.0703C955.896 84.3984 955.734 83.612 955.734 82.7109C955.734 81.3151 956.083 80.2292 956.781 79.4531C957.479 78.6719 958.448 78.2812 959.688 78.2812C960.885 78.2812 961.836 78.6797 962.539 79.4766C963.247 80.2734 963.602 81.3516 963.602 82.7109ZM957.078 82.7109C957.078 83.8047 957.297 84.638 957.734 85.2109C958.172 85.7839 958.815 86.0703 959.664 86.0703C960.513 86.0703 961.156 85.7865 961.594 85.2188C962.036 84.6458 962.258 83.8099 962.258 82.7109C962.258 81.6224 962.036 80.7969 961.594 80.2344C961.156 79.6667 960.508 79.3828 959.648 79.3828C958.799 79.3828 958.159 79.6615 957.727 80.2188C957.294 80.776 957.078 81.6068 957.078 82.7109ZM973.32 89.9609H972.062V87H966.078V89.9609H964.828V85.8828H965.5C966.198 84.9349 966.745 83.8229 967.141 82.5469C967.536 81.2708 967.742 79.901 967.758 78.4375H972.094V85.8828H973.32V89.9609ZM970.844 85.8828V79.4609H968.922C968.854 80.6172 968.63 81.7891 968.25 82.9766C967.875 84.1589 967.406 85.1276 966.844 85.8828H970.844ZM978.656 87.1562C977.391 87.1562 976.391 86.7708 975.656 86C974.927 85.2292 974.562 84.1589 974.562 82.7891C974.562 81.4089 974.901 80.3125 975.578 79.5C976.26 78.6875 977.174 78.2812 978.32 78.2812C979.393 78.2812 980.242 78.6354 980.867 79.3438C981.492 80.0469 981.805 80.9766 981.805 82.1328V82.9531H975.906C975.932 83.9583 976.185 84.7214 976.664 85.2422C977.148 85.763 977.828 86.0234 978.703 86.0234C979.625 86.0234 980.536 85.8307 981.438 85.4453V86.6016C980.979 86.7995 980.544 86.9401 980.133 87.0234C979.727 87.112 979.234 87.1562 978.656 87.1562ZM978.305 79.3672C977.617 79.3672 977.068 79.5911 976.656 80.0391C976.25 80.487 976.01 81.1068 975.938 81.8984H980.414C980.414 81.0807 980.232 80.4557 979.867 80.0234C979.503 79.5859 978.982 79.3672 978.305 79.3672ZM987.93 78.4531H989.125V82.6016L992.664 78.4531H994.086L990.508 82.6016L994.391 87H992.891L989.125 82.6641V87H987.93V82.6641L984.172 87H982.68L986.555 82.6016L982.984 78.4531H984.406L987.93 82.6016V78.4531ZM1003.24 89.9609H1001.98V87H996V89.9609H994.75V85.8828H995.422C996.12 84.9349 996.667 83.8229 997.062 82.5469C997.458 81.2708 997.664 79.901 997.68 78.4375H1002.02V85.8828H1003.24V89.9609ZM1000.77 85.8828V79.4609H998.844C998.776 80.6172 998.552 81.7891 998.172 82.9766C997.797 84.1589 997.328 85.1276 996.766 85.8828H1000.77ZM1006.26 81.9766H1008.59C1009.68 81.9766 1010.49 82.1797 1011.01 82.5859C1011.53 82.987 1011.8 83.5885 1011.8 84.3906C1011.8 85.25 1011.52 85.901 1010.96 86.3438C1010.41 86.7812 1009.59 87 1008.52 87H1004.96V78.4375H1006.26V81.9766ZM1014.53 87H1013.23V78.4375H1014.53V87ZM1006.26 83.0938V85.9141H1008.45C1009.83 85.9141 1010.52 85.4323 1010.52 84.4688C1010.52 83.9896 1010.36 83.6406 1010.04 83.4219C1009.72 83.2031 1009.18 83.0938 1008.41 83.0938H1006.26Z" fill="#353535"/>
<defs>
<filter id="filter0_i" x="133" y="90" width="17" height="17" filterUnits="userSpaceOnUse" color-interpolation-filters="sRGB">
<feFlood flood-opacity="0" result="BackgroundImageFix"/>
<feBlend mode="normal" in="SourceGraphic" in2="BackgroundImageFix" result="shape"/>
<feColorMatrix in="SourceAlpha" type="matrix" values="0 0 0 0 0 0 0 0 0 0 0 0 0 0 0 0 0 0 127 0" result="hardAlpha"/>
<feOffset/>
<feGaussianBlur stdDeviation="2"/>
<feComposite in2="hardAlpha" operator="arithmetic" k2="-1" k3="1"/>
<feColorMatrix type="matrix" values="0 0 0 0 1 0 0 0 0 1 0 0 0 0 1 0 0 0 1 0"/>
<feBlend mode="normal" in2="shape" result="effect1_innerShadow"/>
</filter>
<filter id="filter1_i" x="277" y="0" width="321" height="43" filterUnits="userSpaceOnUse" color-interpolation-filters="sRGB">
<feFlood flood-opacity="0" result="BackgroundImageFix"/>
<feBlend mode="normal" in="SourceGraphic" in2="BackgroundImageFix" result="shape"/>
<feColorMatrix in="SourceAlpha" type="matrix" values="0 0 0 0 0 0 0 0 0 0 0 0 0 0 0 0 0 0 127 0" result="hardAlpha"/>
<feOffset/>
<feGaussianBlur stdDeviation="2"/>
<feComposite in2="hardAlpha" operator="arithmetic" k2="-1" k3="1"/>
<feColorMatrix type="matrix" values="0 0 0 0 1 0 0 0 0 1 0 0 0 0 1 0 0 0 1 0"/>
<feBlend mode="normal" in2="shape" result="effect1_innerShadow"/>
</filter>
<filter id="filter2_i" x="802" y="294.854" width="17" height="17" filterUnits="userSpaceOnUse" color-interpolation-filters="sRGB">
<feFlood flood-opacity="0" result="BackgroundImageFix"/>
<feBlend mode="normal" in="SourceGraphic" in2="BackgroundImageFix" result="shape"/>
<feColorMatrix in="SourceAlpha" type="matrix" values="0 0 0 0 0 0 0 0 0 0 0 0 0 0 0 0 0 0 127 0" result="hardAlpha"/>
<feOffset/>
<feGaussianBlur stdDeviation="2"/>
<feComposite in2="hardAlpha" operator="arithmetic" k2="-1" k3="1"/>
<feColorMatrix type="matrix" values="0 0 0 0 1 0 0 0 0 1 0 0 0 0 1 0 0 0 1 0"/>
<feBlend mode="normal" in2="shape" result="effect1_innerShadow"/>
</filter>
<filter id="filter3_i" x="410" y="247" width="308" height="43" filterUnits="userSpaceOnUse" color-interpolation-filters="sRGB">
<feFlood flood-opacity="0" result="BackgroundImageFix"/>
<feBlend mode="normal" in="SourceGraphic" in2="BackgroundImageFix" result="shape"/>
<feColorMatrix in="SourceAlpha" type="matrix" values="0 0 0 0 0 0 0 0 0 0 0 0 0 0 0 0 0 0 127 0" result="hardAlpha"/>
<feOffset/>
<feGaussianBlur stdDeviation="2"/>
<feComposite in2="hardAlpha" operator="arithmetic" k2="-1" k3="1"/>
<feColorMatrix type="matrix" values="0 0 0 0 1 0 0 0 0 1 0 0 0 0 1 0 0 0 1 0"/>
<feBlend mode="normal" in2="shape" result="effect1_innerShadow"/>
</filter>
<filter id="filter4_i" x="735" y="559" width="17" height="17" filterUnits="userSpaceOnUse" color-interpolation-filters="sRGB">
<feFlood flood-opacity="0" result="BackgroundImageFix"/>
<feBlend mode="normal" in="SourceGraphic" in2="BackgroundImageFix" result="shape"/>
<feColorMatrix in="SourceAlpha" type="matrix" values="0 0 0 0 0 0 0 0 0 0 0 0 0 0 0 0 0 0 127 0" result="hardAlpha"/>
<feOffset/>
<feGaussianBlur stdDeviation="2"/>
<feComposite in2="hardAlpha" operator="arithmetic" k2="-1" k3="1"/>
<feColorMatrix type="matrix" values="0 0 0 0 1 0 0 0 0 1 0 0 0 0 1 0 0 0 1 0"/>
<feBlend mode="normal" in2="shape" result="effect1_innerShadow"/>
</filter>
<filter id="filter5_i" x="829.612" y="487" width="287" height="43" filterUnits="userSpaceOnUse" color-interpolation-filters="sRGB">
<feFlood flood-opacity="0" result="BackgroundImageFix"/>
<feBlend mode="normal" in="SourceGraphic" in2="BackgroundImageFix" result="shape"/>
<feColorMatrix in="SourceAlpha" type="matrix" values="0 0 0 0 0 0 0 0 0 0 0 0 0 0 0 0 0 0 127 0" result="hardAlpha"/>
<feOffset/>
<feGaussianBlur stdDeviation="2"/>
<feComposite in2="hardAlpha" operator="arithmetic" k2="-1" k3="1"/>
<feColorMatrix type="matrix" values="0 0 0 0 1 0 0 0 0 1 0 0 0 0 1 0 0 0 1 0"/>
<feBlend mode="normal" in2="shape" result="effect1_innerShadow"/>
</filter>
<filter id="filter6_i" x="319" y="454" width="17" height="17" filterUnits="userSpaceOnUse" color-interpolation-filters="sRGB">
<feFlood flood-opacity="0" result="BackgroundImageFix"/>
<feBlend mode="normal" in="SourceGraphic" in2="BackgroundImageFix" result="shape"/>
<feColorMatrix in="SourceAlpha" type="matrix" values="0 0 0 0 0 0 0 0 0 0 0 0 0 0 0 0 0 0 127 0" result="hardAlpha"/>
<feOffset/>
<feGaussianBlur stdDeviation="2"/>
<feComposite in2="hardAlpha" operator="arithmetic" k2="-1" k3="1"/>
<feColorMatrix type="matrix" values="0 0 0 0 1 0 0 0 0 1 0 0 0 0 1 0 0 0 1 0"/>
<feBlend mode="normal" in2="shape" result="effect1_innerShadow"/>
</filter>
<filter id="filter7_i" x="0" y="391" width="252" height="43" filterUnits="userSpaceOnUse" color-interpolation-filters="sRGB">
<feFlood flood-opacity="0" result="BackgroundImageFix"/>
<feBlend mode="normal" in="SourceGraphic" in2="BackgroundImageFix" result="shape"/>
<feColorMatrix in="SourceAlpha" type="matrix" values="0 0 0 0 0 0 0 0 0 0 0 0 0 0 0 0 0 0 127 0" result="hardAlpha"/>
<feOffset/>
<feGaussianBlur stdDeviation="2"/>
<feComposite in2="hardAlpha" operator="arithmetic" k2="-1" k3="1"/>
<feColorMatrix type="matrix" values="0 0 0 0 1 0 0 0 0 1 0 0 0 0 1 0 0 0 1 0"/>
<feBlend mode="normal" in2="shape" result="effect1_innerShadow"/>
</filter>
<filter id="filter8_i" x="600" y="137" width="17" height="17" filterUnits="userSpaceOnUse" color-interpolation-filters="sRGB">
<feFlood flood-opacity="0" result="BackgroundImageFix"/>
<feBlend mode="normal" in="SourceGraphic" in2="BackgroundImageFix" result="shape"/>
<feColorMatrix in="SourceAlpha" type="matrix" values="0 0 0 0 0 0 0 0 0 0 0 0 0 0 0 0 0 0 127 0" result="hardAlpha"/>
<feOffset/>
<feGaussianBlur stdDeviation="2"/>
<feComposite in2="hardAlpha" operator="arithmetic" k2="-1" k3="1"/>
<feColorMatrix type="matrix" values="0 0 0 0 1 0 0 0 0 1 0 0 0 0 1 0 0 0 1 0"/>
<feBlend mode="normal" in2="shape" result="effect1_innerShadow"/>
</filter>
<filter id="filter9_i" x="753" y="60" width="276" height="43" filterUnits="userSpaceOnUse" color-interpolation-filters="sRGB">
<feFlood flood-opacity="0" result="BackgroundImageFix"/>
<feBlend mode="normal" in="SourceGraphic" in2="BackgroundImageFix" result="shape"/>
<feColorMatrix in="SourceAlpha" type="matrix" values="0 0 0 0 0 0 0 0 0 0 0 0 0 0 0 0 0 0 127 0" result="hardAlpha"/>
<feOffset/>
<feGaussianBlur stdDeviation="2"/>
<feComposite in2="hardAlpha" operator="arithmetic" k2="-1" k3="1"/>
<feColorMatrix type="matrix" values="0 0 0 0 1 0 0 0 0 1 0 0 0 0 1 0 0 0 1 0"/>
<feBlend mode="normal" in2="shape" result="effect1_innerShadow"/>
</filter>
</defs>
</svg>
