<svg width="836" height="618" viewBox="0 0 836 618" fill="none" xmlns="http://www.w3.org/2000/svg">
<g filter="url(#filter0_i)">
<circle cx="827.5" cy="591.354" r="8.5" fill="white" fill-opacity="0.2"/>
</g>
<circle cx="827.5" cy="591.354" r="8" stroke="white" stroke-opacity="0.5"/>
<circle cx="827.5" cy="591.354" r="4.5" fill="white"/>
<path d="M827 591.854L734 558.784" stroke="white"/>
<g filter="url(#filter1_i)">
<rect x="446" y="535" width="289" height="43" rx="21.5" fill="white" fill-opacity="0.2"/>
</g>
<rect x="446.5" y="535.5" width="288" height="42" rx="21" stroke="white"/>
<rect x="449" y="538" width="283" height="37" rx="18.5" fill="white"/>
<path d="M461.32 562.011C460.742 562.011 460.234 561.933 459.797 561.776V560.479C460.281 560.703 460.773 560.815 461.273 560.815C461.846 560.815 462.305 560.685 462.648 560.425C462.997 560.159 463.344 559.664 463.688 558.94L459.242 550.433H460.711L464.086 556.925C464.216 557.18 464.318 557.43 464.391 557.675H464.453C464.599 557.237 464.701 556.961 464.758 556.847L467.562 550.433H468.969L465.32 558.604C464.883 559.578 464.487 560.287 464.133 560.729C463.784 561.172 463.388 561.498 462.945 561.706C462.508 561.909 461.966 562.011 461.32 562.011ZM477.781 564.815H476.523V561.854H470.539V564.815H469.289V560.737H469.961C470.659 559.789 471.206 558.677 471.602 557.401C471.997 556.125 472.203 554.756 472.219 553.292H476.555V560.737H477.781V564.815ZM475.305 560.737V554.315H473.383C473.315 555.472 473.091 556.644 472.711 557.831C472.336 559.013 471.867 559.982 471.305 560.737H475.305ZM486.891 557.565C486.891 558.961 486.539 560.052 485.836 560.839C485.133 561.62 484.161 562.011 482.922 562.011C482.156 562.011 481.477 561.831 480.883 561.472C480.289 561.112 479.831 560.597 479.508 559.925C479.185 559.253 479.023 558.466 479.023 557.565C479.023 556.17 479.372 555.084 480.07 554.308C480.768 553.526 481.737 553.136 482.977 553.136C484.174 553.136 485.125 553.534 485.828 554.331C486.536 555.128 486.891 556.206 486.891 557.565ZM480.367 557.565C480.367 558.659 480.586 559.493 481.023 560.065C481.461 560.638 482.104 560.925 482.953 560.925C483.802 560.925 484.445 560.641 484.883 560.073C485.326 559.5 485.547 558.664 485.547 557.565C485.547 556.477 485.326 555.651 484.883 555.089C484.445 554.521 483.797 554.237 482.938 554.237C482.089 554.237 481.448 554.516 481.016 555.073C480.583 555.631 480.367 556.461 480.367 557.565ZM488.727 556.722C488.727 554.847 489.003 553.386 489.555 552.339C490.107 551.287 490.982 550.631 492.18 550.37C493.669 550.052 494.982 549.795 496.117 549.597L496.359 550.737C494.552 551.039 493.26 551.279 492.484 551.456C491.729 551.628 491.161 552.034 490.781 552.675C490.406 553.315 490.201 554.188 490.164 555.292H490.258C490.581 554.854 490.997 554.511 491.508 554.261C492.018 554.011 492.552 553.886 493.109 553.886C494.161 553.886 494.982 554.227 495.57 554.909C496.159 555.591 496.453 556.537 496.453 557.745C496.453 559.084 496.112 560.131 495.43 560.886C494.747 561.636 493.797 562.011 492.578 562.011C491.375 562.011 490.432 561.55 489.75 560.628C489.068 559.706 488.727 558.404 488.727 556.722ZM492.695 560.925C494.284 560.925 495.078 559.912 495.078 557.886C495.078 555.953 494.357 554.987 492.914 554.987C492.518 554.987 492.135 555.071 491.766 555.237C491.401 555.399 491.065 555.615 490.758 555.886C490.456 556.157 490.221 556.435 490.055 556.722C490.055 558.091 490.271 559.136 490.703 559.854C491.135 560.568 491.799 560.925 492.695 560.925ZM500.016 553.292V556.878H504.812V553.292H506.109V561.854H504.812V557.995H500.016V561.854H498.719V553.292H500.016ZM510.156 556.831H512.492C513.581 556.831 514.385 557.034 514.906 557.44C515.432 557.841 515.695 558.443 515.695 559.245C515.695 560.104 515.417 560.756 514.859 561.198C514.307 561.636 513.492 561.854 512.414 561.854H508.859V553.292H510.156V556.831ZM518.43 561.854H517.133V553.292H518.43V561.854ZM510.156 557.948V560.769H512.352C513.727 560.769 514.414 560.287 514.414 559.323C514.414 558.844 514.255 558.495 513.938 558.276C513.62 558.058 513.078 557.948 512.312 557.948H510.156ZM522.406 553.292V558.722L522.352 560.144L522.328 560.589L526.961 553.292H528.578V561.854H527.367V556.62L527.391 555.589L527.43 554.573L522.805 561.854H521.188V553.292H522.406ZM524.852 552.159C523.888 552.159 523.185 551.974 522.742 551.604C522.299 551.229 522.052 550.615 522 549.761H523.219C523.266 550.302 523.406 550.68 523.641 550.894C523.88 551.107 524.294 551.214 524.883 551.214C525.419 551.214 525.815 551.099 526.07 550.87C526.331 550.641 526.49 550.271 526.547 549.761H527.773C527.711 550.584 527.448 551.19 526.984 551.581C526.521 551.966 525.81 552.159 524.852 552.159ZM540.75 561.854L540.492 560.636H540.43C540.003 561.172 539.576 561.537 539.148 561.729C538.727 561.917 538.198 562.011 537.562 562.011C536.714 562.011 536.047 561.792 535.562 561.354C535.083 560.917 534.844 560.295 534.844 559.487C534.844 557.758 536.227 556.852 538.992 556.769L540.445 556.722V556.19C540.445 555.519 540.299 555.024 540.008 554.706C539.721 554.383 539.26 554.222 538.625 554.222C537.911 554.222 537.104 554.44 536.203 554.878L535.805 553.886C536.227 553.657 536.688 553.477 537.188 553.347C537.693 553.216 538.198 553.151 538.703 553.151C539.724 553.151 540.479 553.378 540.969 553.831C541.464 554.284 541.711 555.011 541.711 556.011V561.854H540.75ZM537.82 560.94C538.628 560.94 539.26 560.719 539.719 560.276C540.182 559.834 540.414 559.214 540.414 558.417V557.644L539.117 557.698C538.086 557.735 537.341 557.896 536.883 558.183C536.43 558.464 536.203 558.904 536.203 559.503C536.203 559.972 536.344 560.328 536.625 560.573C536.911 560.818 537.31 560.94 537.82 560.94ZM550.773 561.854H549.461V554.401H546.891C546.75 556.256 546.555 557.727 546.305 558.815C546.055 559.904 545.729 560.701 545.328 561.206C544.932 561.711 544.427 561.964 543.812 561.964C543.531 561.964 543.307 561.933 543.141 561.87V560.909C543.255 560.94 543.385 560.956 543.531 560.956C544.13 560.956 544.607 560.323 544.961 559.058C545.315 557.792 545.583 555.87 545.766 553.292H550.773V561.854ZM564.555 557.565C564.555 558.966 564.219 560.058 563.547 560.839C562.88 561.62 561.964 562.011 560.797 562.011C559.688 562.011 558.807 561.664 558.156 560.972C557.505 560.274 557.143 559.282 557.07 557.995H554.828V561.854H553.531V553.292H554.828V556.878H557.086C557.19 555.69 557.57 554.771 558.227 554.12C558.883 553.464 559.75 553.136 560.828 553.136C561.974 553.136 562.88 553.534 563.547 554.331C564.219 555.123 564.555 556.201 564.555 557.565ZM558.414 557.565C558.414 558.664 558.604 559.5 558.984 560.073C559.365 560.641 559.974 560.925 560.812 560.925C561.635 560.925 562.24 560.649 562.625 560.097C563.016 559.539 563.211 558.696 563.211 557.565C563.211 556.472 563.021 555.644 562.641 555.081C562.26 554.519 561.651 554.237 560.812 554.237C559.974 554.237 559.365 554.519 558.984 555.081C558.604 555.644 558.414 556.472 558.414 557.565ZM571.273 560.604L571.516 559.878L571.852 558.956L574.172 553.308H575.82V561.854H574.672V554.784L574.516 555.237L574.062 556.433L571.852 561.854H570.766L568.555 556.417C568.279 555.719 568.089 555.175 567.984 554.784V561.854H566.828V553.308H568.414L570.656 558.737C570.88 559.31 571.086 559.933 571.273 560.604ZM579.812 553.292V558.722L579.758 560.144L579.734 560.589L584.367 553.292H585.984V561.854H584.773V556.62L584.797 555.589L584.836 554.573L580.211 561.854H578.594V553.292H579.812ZM590.031 553.292V556.878H594.828V553.292H596.125V561.854H594.828V557.995H590.031V561.854H588.734V553.292H590.031ZM600.094 553.292V558.722L600.039 560.144L600.016 560.589L604.648 553.292H606.266V561.854H605.055V556.62L605.078 555.589L605.117 554.573L600.492 561.854H598.875V553.292H600.094ZM612.633 562.011C611.367 562.011 610.367 561.625 609.633 560.854C608.904 560.084 608.539 559.013 608.539 557.644C608.539 556.263 608.878 555.167 609.555 554.354C610.237 553.542 611.151 553.136 612.297 553.136C613.37 553.136 614.219 553.49 614.844 554.198C615.469 554.901 615.781 555.831 615.781 556.987V557.808H609.883C609.909 558.813 610.161 559.576 610.641 560.097C611.125 560.618 611.805 560.878 612.68 560.878C613.602 560.878 614.513 560.685 615.414 560.3V561.456C614.956 561.654 614.521 561.795 614.109 561.878C613.703 561.966 613.211 562.011 612.633 562.011ZM612.281 554.222C611.594 554.222 611.044 554.446 610.633 554.894C610.227 555.341 609.987 555.961 609.914 556.753H614.391C614.391 555.935 614.208 555.31 613.844 554.878C613.479 554.44 612.958 554.222 612.281 554.222ZM624.945 555.44C624.945 555.998 624.784 556.422 624.461 556.714C624.143 557 623.695 557.193 623.117 557.292V557.362C623.846 557.461 624.378 557.675 624.711 558.003C625.049 558.331 625.219 558.784 625.219 559.362C625.219 560.159 624.924 560.774 624.336 561.206C623.753 561.638 622.898 561.854 621.773 561.854H618V553.292H621.758C623.883 553.292 624.945 554.008 624.945 555.44ZM623.922 559.276C623.922 558.813 623.745 558.477 623.391 558.269C623.042 558.055 622.461 557.948 621.648 557.948H619.297V560.769H621.68C623.174 560.769 623.922 560.271 623.922 559.276ZM623.68 555.565C623.68 555.149 623.518 554.854 623.195 554.683C622.878 554.506 622.393 554.417 621.742 554.417H619.297V556.831H621.492C622.294 556.831 622.859 556.732 623.188 556.534C623.516 556.336 623.68 556.013 623.68 555.565ZM628.406 556.831H630.742C631.831 556.831 632.635 557.034 633.156 557.44C633.682 557.841 633.945 558.443 633.945 559.245C633.945 560.104 633.667 560.756 633.109 561.198C632.557 561.636 631.742 561.854 630.664 561.854H627.109V553.292H628.406V556.831ZM636.68 561.854H635.383V553.292H636.68V561.854ZM628.406 557.948V560.769H630.602C631.977 560.769 632.664 560.287 632.664 559.323C632.664 558.844 632.505 558.495 632.188 558.276C631.87 558.058 631.328 557.948 630.562 557.948H628.406ZM640.656 553.292V558.722L640.602 560.144L640.578 560.589L645.211 553.292H646.828V561.854H645.617V556.62L645.641 555.589L645.68 554.573L641.055 561.854H639.438V553.292H640.656ZM643.102 552.159C642.138 552.159 641.435 551.974 640.992 551.604C640.549 551.229 640.302 550.615 640.25 549.761H641.469C641.516 550.302 641.656 550.68 641.891 550.894C642.13 551.107 642.544 551.214 643.133 551.214C643.669 551.214 644.065 551.099 644.32 550.87C644.581 550.641 644.74 550.271 644.797 549.761H646.023C645.961 550.584 645.698 551.19 645.234 551.581C644.771 551.966 644.06 552.159 643.102 552.159ZM655.031 561.854H653.734V553.292H660.922V561.854H659.609V554.417H655.031V561.854ZM667.656 562.011C667.099 562.011 666.589 561.909 666.125 561.706C665.667 561.498 665.281 561.18 664.969 560.753H664.875C664.938 561.253 664.969 561.727 664.969 562.175V565.698H663.672V553.292H664.727L664.906 554.464H664.969C665.302 553.995 665.69 553.657 666.133 553.448C666.576 553.24 667.083 553.136 667.656 553.136C668.792 553.136 669.667 553.524 670.281 554.3C670.901 555.076 671.211 556.164 671.211 557.565C671.211 558.972 670.896 560.065 670.266 560.847C669.641 561.623 668.771 562.011 667.656 562.011ZM667.469 554.237C666.594 554.237 665.961 554.479 665.57 554.964C665.18 555.448 664.979 556.219 664.969 557.276V557.565C664.969 558.769 665.169 559.631 665.57 560.151C665.971 560.667 666.615 560.925 667.5 560.925C668.24 560.925 668.818 560.625 669.234 560.026C669.656 559.427 669.867 558.602 669.867 557.55C669.867 556.482 669.656 555.664 669.234 555.097C668.818 554.524 668.229 554.237 667.469 554.237ZM680.875 557.565C680.875 558.961 680.523 560.052 679.82 560.839C679.117 561.62 678.146 562.011 676.906 562.011C676.141 562.011 675.461 561.831 674.867 561.472C674.273 561.112 673.815 560.597 673.492 559.925C673.169 559.253 673.008 558.466 673.008 557.565C673.008 556.17 673.357 555.084 674.055 554.308C674.753 553.526 675.721 553.136 676.961 553.136C678.159 553.136 679.109 553.534 679.812 554.331C680.521 555.128 680.875 556.206 680.875 557.565ZM674.352 557.565C674.352 558.659 674.57 559.493 675.008 560.065C675.445 560.638 676.089 560.925 676.938 560.925C677.786 560.925 678.43 560.641 678.867 560.073C679.31 559.5 679.531 558.664 679.531 557.565C679.531 556.477 679.31 555.651 678.867 555.089C678.43 554.521 677.781 554.237 676.922 554.237C676.073 554.237 675.432 554.516 675 555.073C674.568 555.631 674.352 556.461 674.352 557.565ZM692.328 557.565C692.328 558.862 691.958 559.896 691.219 560.667C690.484 561.433 689.456 561.87 688.133 561.979V565.698H686.852V561.979C685.56 561.881 684.539 561.438 683.789 560.651C683.039 559.865 682.664 558.836 682.664 557.565C682.664 556.269 683.036 555.237 683.781 554.472C684.531 553.706 685.57 553.271 686.898 553.167V549.698H688.133V553.167C689.44 553.287 690.466 553.737 691.211 554.519C691.956 555.3 692.328 556.315 692.328 557.565ZM684.023 557.565C684.023 558.565 684.253 559.349 684.711 559.917C685.169 560.485 685.898 560.815 686.898 560.909V554.253C685.935 554.341 685.214 554.657 684.734 555.198C684.26 555.735 684.023 556.524 684.023 557.565ZM690.984 557.565C690.984 555.571 690.034 554.472 688.133 554.269V560.909C689.122 560.81 689.844 560.477 690.297 559.909C690.755 559.341 690.984 558.56 690.984 557.565ZM695.812 553.292V558.722L695.758 560.144L695.734 560.589L700.367 553.292H701.984V561.854H700.773V556.62L700.797 555.589L700.836 554.573L696.211 561.854H694.594V553.292H695.812ZM711.117 561.854H709.805V554.401H707.234C707.094 556.256 706.898 557.727 706.648 558.815C706.398 559.904 706.073 560.701 705.672 561.206C705.276 561.711 704.771 561.964 704.156 561.964C703.875 561.964 703.651 561.933 703.484 561.87V560.909C703.599 560.94 703.729 560.956 703.875 560.956C704.474 560.956 704.951 560.323 705.305 559.058C705.659 557.792 705.927 555.87 706.109 553.292H711.117V561.854ZM715.172 556.831H717.812C720 556.831 721.094 557.636 721.094 559.245C721.094 560.089 720.807 560.735 720.234 561.183C719.667 561.631 718.833 561.854 717.734 561.854H713.875V553.292H715.172V556.831ZM715.172 557.948V560.769H717.672C718.359 560.769 718.885 560.649 719.25 560.409C719.615 560.17 719.797 559.808 719.797 559.323C719.797 558.849 719.628 558.503 719.289 558.284C718.956 558.06 718.404 557.948 717.633 557.948H715.172Z" fill="#353535"/>
<g filter="url(#filter2_i)">
<circle cx="437.5" cy="331.354" r="8.5" fill="white" fill-opacity="0.2"/>
</g>
<circle cx="437.5" cy="331.354" r="8" stroke="white" stroke-opacity="0.5"/>
<circle cx="437.5" cy="331.354" r="4.5" fill="white"/>
<path d="M437 331.854L344 298.784" stroke="white"/>
<g filter="url(#filter3_i)">
<rect y="275" width="345" height="43" rx="21.5" fill="white" fill-opacity="0.2"/>
</g>
<rect x="0.5" y="275.5" width="344" height="42" rx="21" stroke="white"/>
<rect x="3" y="278" width="339" height="37" rx="18.5" fill="white"/>
<path d="M23.1641 301.854H21.8359V291.612H18.125L17.8828 293.487C17.5651 295.982 17.2839 297.808 17.0391 298.964C16.7995 300.115 16.4818 300.917 16.0859 301.37C15.6901 301.823 15.1641 302.045 14.5078 302.034C14.1224 302.034 13.776 301.969 13.4688 301.839V300.722C13.75 300.857 14.0443 300.925 14.3516 300.925C14.6276 300.925 14.8672 300.813 15.0703 300.589C15.2786 300.36 15.4609 299.966 15.6172 299.409C15.7786 298.847 15.9792 297.784 16.2188 296.222C16.4635 294.654 16.7318 292.724 17.0234 290.433H23.1641V301.854ZM37.1328 297.565C37.1328 298.966 36.7969 300.058 36.125 300.839C35.4583 301.62 34.5417 302.011 33.375 302.011C32.2656 302.011 31.3854 301.664 30.7344 300.972C30.0833 300.274 29.7214 299.282 29.6484 297.995H27.4062V301.854H26.1094V293.292H27.4062V296.878H29.6641C29.7682 295.69 30.1484 294.771 30.8047 294.12C31.4609 293.464 32.3281 293.136 33.4062 293.136C34.5521 293.136 35.4583 293.534 36.125 294.331C36.7969 295.123 37.1328 296.201 37.1328 297.565ZM30.9922 297.565C30.9922 298.664 31.1823 299.5 31.5625 300.073C31.9427 300.641 32.5521 300.925 33.3906 300.925C34.2135 300.925 34.8177 300.649 35.2031 300.097C35.5938 299.539 35.7891 298.696 35.7891 297.565C35.7891 296.472 35.599 295.644 35.2188 295.081C34.8385 294.519 34.2292 294.237 33.3906 294.237C32.5521 294.237 31.9427 294.519 31.5625 295.081C31.1823 295.644 30.9922 296.472 30.9922 297.565ZM38.9609 296.722C38.9609 294.847 39.237 293.386 39.7891 292.339C40.3411 291.287 41.2161 290.631 42.4141 290.37C43.9036 290.052 45.2161 289.795 46.3516 289.597L46.5938 290.737C44.7865 291.039 43.4948 291.279 42.7188 291.456C41.9635 291.628 41.3958 292.034 41.0156 292.675C40.6406 293.315 40.4349 294.188 40.3984 295.292H40.4922C40.8151 294.854 41.2318 294.511 41.7422 294.261C42.2526 294.011 42.7865 293.886 43.3438 293.886C44.3958 293.886 45.2161 294.227 45.8047 294.909C46.3932 295.591 46.6875 296.537 46.6875 297.745C46.6875 299.084 46.3464 300.131 45.6641 300.886C44.9818 301.636 44.0312 302.011 42.8125 302.011C41.6094 302.011 40.6667 301.55 39.9844 300.628C39.3021 299.706 38.9609 298.404 38.9609 296.722ZM42.9297 300.925C44.5182 300.925 45.3125 299.912 45.3125 297.886C45.3125 295.953 44.5911 294.987 43.1484 294.987C42.7526 294.987 42.3698 295.071 42 295.237C41.6354 295.399 41.2995 295.615 40.9922 295.886C40.6901 296.157 40.4557 296.435 40.2891 296.722C40.2891 298.091 40.5052 299.136 40.9375 299.854C41.3698 300.568 42.0339 300.925 42.9297 300.925ZM56.3438 297.565C56.3438 298.961 55.9922 300.052 55.2891 300.839C54.5859 301.62 53.6146 302.011 52.375 302.011C51.6094 302.011 50.9297 301.831 50.3359 301.472C49.7422 301.112 49.2839 300.597 48.9609 299.925C48.638 299.253 48.4766 298.466 48.4766 297.565C48.4766 296.17 48.8255 295.084 49.5234 294.308C50.2214 293.526 51.1901 293.136 52.4297 293.136C53.6276 293.136 54.5781 293.534 55.2812 294.331C55.9896 295.128 56.3438 296.206 56.3438 297.565ZM49.8203 297.565C49.8203 298.659 50.0391 299.493 50.4766 300.065C50.9141 300.638 51.5573 300.925 52.4062 300.925C53.2552 300.925 53.8984 300.641 54.3359 300.073C54.7786 299.5 55 298.664 55 297.565C55 296.477 54.7786 295.651 54.3359 295.089C53.8984 294.521 53.25 294.237 52.3906 294.237C51.5417 294.237 50.901 294.516 50.4688 295.073C50.0365 295.631 49.8203 296.461 49.8203 297.565ZM62.2422 302.011C60.9766 302.011 59.9766 301.625 59.2422 300.854C58.513 300.084 58.1484 299.013 58.1484 297.644C58.1484 296.263 58.487 295.167 59.1641 294.354C59.8464 293.542 60.7604 293.136 61.9062 293.136C62.9792 293.136 63.8281 293.49 64.4531 294.198C65.0781 294.901 65.3906 295.831 65.3906 296.987V297.808H59.4922C59.5182 298.813 59.7708 299.576 60.25 300.097C60.7344 300.618 61.4141 300.878 62.2891 300.878C63.2109 300.878 64.1224 300.685 65.0234 300.3V301.456C64.5651 301.654 64.1302 301.795 63.7188 301.878C63.3125 301.966 62.8203 302.011 62.2422 302.011ZM61.8906 294.222C61.2031 294.222 60.6536 294.446 60.2422 294.894C59.8359 295.341 59.5964 295.961 59.5234 296.753H64C64 295.935 63.8177 295.31 63.4531 294.878C63.0885 294.44 62.5677 294.222 61.8906 294.222ZM78.7109 295.44C78.7109 295.998 78.5495 296.422 78.2266 296.714C77.9089 297 77.4609 297.193 76.8828 297.292V297.362C77.612 297.461 78.1432 297.675 78.4766 298.003C78.8151 298.331 78.9844 298.784 78.9844 299.362C78.9844 300.159 78.6901 300.774 78.1016 301.206C77.5182 301.638 76.6641 301.854 75.5391 301.854H71.7656V293.292H75.5234C77.6484 293.292 78.7109 294.008 78.7109 295.44ZM77.6875 299.276C77.6875 298.813 77.5104 298.477 77.1562 298.269C76.8073 298.055 76.2266 297.948 75.4141 297.948H73.0625V300.769H75.4453C76.9401 300.769 77.6875 300.271 77.6875 299.276ZM77.4453 295.565C77.4453 295.149 77.2839 294.854 76.9609 294.683C76.6432 294.506 76.1589 294.417 75.5078 294.417H73.0625V296.831H75.2578C76.0599 296.831 76.625 296.732 76.9531 296.534C77.2812 296.336 77.4453 296.013 77.4453 295.565ZM82.1719 293.292V296.878H86.9688V293.292H88.2656V301.854H86.9688V297.995H82.1719V301.854H80.875V293.292H82.1719ZM89.6562 293.292H91.0469L92.9219 298.175C93.3333 299.289 93.5885 300.094 93.6875 300.589H93.75C93.8177 300.323 93.9583 299.87 94.1719 299.229C94.3906 298.584 95.099 296.604 96.2969 293.292H97.6875L94.0078 303.042C93.6432 304.006 93.2161 304.688 92.7266 305.089C92.2422 305.495 91.6458 305.698 90.9375 305.698C90.5417 305.698 90.151 305.654 89.7656 305.565V304.526C90.0521 304.589 90.3724 304.62 90.7266 304.62C91.6172 304.62 92.2526 304.12 92.6328 303.12L93.1094 301.901L89.6562 293.292ZM104.852 294.401H102.07V301.854H100.773V294.401H98.0234V293.292H104.852V294.401ZM110.531 302.011C109.974 302.011 109.464 301.909 109 301.706C108.542 301.498 108.156 301.18 107.844 300.753H107.75C107.812 301.253 107.844 301.727 107.844 302.175V305.698H106.547V293.292H107.602L107.781 294.464H107.844C108.177 293.995 108.565 293.657 109.008 293.448C109.451 293.24 109.958 293.136 110.531 293.136C111.667 293.136 112.542 293.524 113.156 294.3C113.776 295.076 114.086 296.164 114.086 297.565C114.086 298.972 113.771 300.065 113.141 300.847C112.516 301.623 111.646 302.011 110.531 302.011ZM110.344 294.237C109.469 294.237 108.836 294.479 108.445 294.964C108.055 295.448 107.854 296.219 107.844 297.276V297.565C107.844 298.769 108.044 299.631 108.445 300.151C108.846 300.667 109.49 300.925 110.375 300.925C111.115 300.925 111.693 300.625 112.109 300.026C112.531 299.427 112.742 298.602 112.742 297.55C112.742 296.482 112.531 295.664 112.109 295.097C111.693 294.524 111.104 294.237 110.344 294.237ZM119.977 302.011C118.711 302.011 117.711 301.625 116.977 300.854C116.247 300.084 115.883 299.013 115.883 297.644C115.883 296.263 116.221 295.167 116.898 294.354C117.581 293.542 118.495 293.136 119.641 293.136C120.714 293.136 121.562 293.49 122.188 294.198C122.812 294.901 123.125 295.831 123.125 296.987V297.808H117.227C117.253 298.813 117.505 299.576 117.984 300.097C118.469 300.618 119.148 300.878 120.023 300.878C120.945 300.878 121.857 300.685 122.758 300.3V301.456C122.299 301.654 121.865 301.795 121.453 301.878C121.047 301.966 120.555 302.011 119.977 302.011ZM119.625 294.222C118.938 294.222 118.388 294.446 117.977 294.894C117.57 295.341 117.331 295.961 117.258 296.753H121.734C121.734 295.935 121.552 295.31 121.188 294.878C120.823 294.44 120.302 294.222 119.625 294.222ZM126.641 293.292V296.878H131.438V293.292H132.734V301.854H131.438V297.995H126.641V301.854H125.344V293.292H126.641ZM136.781 293.292V296.878H141.578V293.292H142.875V301.854H141.578V297.995H136.781V301.854H135.484V293.292H136.781ZM149.242 302.011C147.977 302.011 146.977 301.625 146.242 300.854C145.513 300.084 145.148 299.013 145.148 297.644C145.148 296.263 145.487 295.167 146.164 294.354C146.846 293.542 147.76 293.136 148.906 293.136C149.979 293.136 150.828 293.49 151.453 294.198C152.078 294.901 152.391 295.831 152.391 296.987V297.808H146.492C146.518 298.813 146.771 299.576 147.25 300.097C147.734 300.618 148.414 300.878 149.289 300.878C150.211 300.878 151.122 300.685 152.023 300.3V301.456C151.565 301.654 151.13 301.795 150.719 301.878C150.312 301.966 149.82 302.011 149.242 302.011ZM148.891 294.222C148.203 294.222 147.654 294.446 147.242 294.894C146.836 295.341 146.596 295.961 146.523 296.753H151C151 295.935 150.818 295.31 150.453 294.878C150.089 294.44 149.568 294.222 148.891 294.222ZM158.227 302.011C156.961 302.011 155.961 301.625 155.227 300.854C154.497 300.084 154.133 299.013 154.133 297.644C154.133 296.263 154.471 295.167 155.148 294.354C155.831 293.542 156.745 293.136 157.891 293.136C158.964 293.136 159.812 293.49 160.438 294.198C161.062 294.901 161.375 295.831 161.375 296.987V297.808H155.477C155.503 298.813 155.755 299.576 156.234 300.097C156.719 300.618 157.398 300.878 158.273 300.878C159.195 300.878 160.107 300.685 161.008 300.3V301.456C160.549 301.654 160.115 301.795 159.703 301.878C159.297 301.966 158.805 302.011 158.227 302.011ZM157.875 294.222C157.188 294.222 156.638 294.446 156.227 294.894C155.82 295.341 155.581 295.961 155.508 296.753H159.984C159.984 295.935 159.802 295.31 159.438 294.878C159.073 294.44 158.552 294.222 157.875 294.222ZM169.047 293.292V296.878H173.844V293.292H175.141V301.854H173.844V297.995H169.047V301.854H167.75V293.292H169.047ZM183.156 301.854L182.898 300.636H182.836C182.409 301.172 181.982 301.537 181.555 301.729C181.133 301.917 180.604 302.011 179.969 302.011C179.12 302.011 178.453 301.792 177.969 301.354C177.49 300.917 177.25 300.295 177.25 299.487C177.25 297.758 178.633 296.852 181.398 296.769L182.852 296.722V296.19C182.852 295.519 182.706 295.024 182.414 294.706C182.128 294.383 181.667 294.222 181.031 294.222C180.318 294.222 179.51 294.44 178.609 294.878L178.211 293.886C178.633 293.657 179.094 293.477 179.594 293.347C180.099 293.216 180.604 293.151 181.109 293.151C182.13 293.151 182.885 293.378 183.375 293.831C183.87 294.284 184.117 295.011 184.117 296.011V301.854H183.156ZM180.227 300.94C181.034 300.94 181.667 300.719 182.125 300.276C182.589 299.834 182.82 299.214 182.82 298.417V297.644L181.523 297.698C180.492 297.735 179.747 297.896 179.289 298.183C178.836 298.464 178.609 298.904 178.609 299.503C178.609 299.972 178.75 300.328 179.031 300.573C179.318 300.818 179.716 300.94 180.227 300.94ZM188.094 301.854H186.797V293.292H193.984V301.854H192.672V294.417H188.094V301.854ZM204.125 297.565C204.125 298.961 203.773 300.052 203.07 300.839C202.367 301.62 201.396 302.011 200.156 302.011C199.391 302.011 198.711 301.831 198.117 301.472C197.523 301.112 197.065 300.597 196.742 299.925C196.419 299.253 196.258 298.466 196.258 297.565C196.258 296.17 196.607 295.084 197.305 294.308C198.003 293.526 198.971 293.136 200.211 293.136C201.409 293.136 202.359 293.534 203.062 294.331C203.771 295.128 204.125 296.206 204.125 297.565ZM197.602 297.565C197.602 298.659 197.82 299.493 198.258 300.065C198.695 300.638 199.339 300.925 200.188 300.925C201.036 300.925 201.68 300.641 202.117 300.073C202.56 299.5 202.781 298.664 202.781 297.565C202.781 296.477 202.56 295.651 202.117 295.089C201.68 294.521 201.031 294.237 200.172 294.237C199.323 294.237 198.682 294.516 198.25 295.073C197.818 295.631 197.602 296.461 197.602 297.565ZM212.789 301.854H211.477V294.401H208.906C208.766 296.256 208.57 297.727 208.32 298.815C208.07 299.904 207.745 300.701 207.344 301.206C206.948 301.711 206.443 301.964 205.828 301.964C205.547 301.964 205.323 301.933 205.156 301.87V300.909C205.271 300.94 205.401 300.956 205.547 300.956C206.146 300.956 206.622 300.323 206.977 299.058C207.331 297.792 207.599 295.87 207.781 293.292H212.789V301.854ZM216.844 293.292V296.878H221.641V293.292H222.938V301.854H221.641V297.995H216.844V301.854H215.547V293.292H216.844ZM229.305 302.011C228.039 302.011 227.039 301.625 226.305 300.854C225.576 300.084 225.211 299.013 225.211 297.644C225.211 296.263 225.549 295.167 226.227 294.354C226.909 293.542 227.823 293.136 228.969 293.136C230.042 293.136 230.891 293.49 231.516 294.198C232.141 294.901 232.453 295.831 232.453 296.987V297.808H226.555C226.581 298.813 226.833 299.576 227.312 300.097C227.797 300.618 228.477 300.878 229.352 300.878C230.273 300.878 231.185 300.685 232.086 300.3V301.456C231.628 301.654 231.193 301.795 230.781 301.878C230.375 301.966 229.883 302.011 229.305 302.011ZM228.953 294.222C228.266 294.222 227.716 294.446 227.305 294.894C226.898 295.341 226.659 295.961 226.586 296.753H231.062C231.062 295.935 230.88 295.31 230.516 294.878C230.151 294.44 229.63 294.222 228.953 294.222ZM235.969 293.292V296.878H240.766V293.292H242.062V301.854H240.766V297.995H235.969V301.854H234.672V293.292H235.969ZM246.031 293.292V298.722L245.977 300.144L245.953 300.589L250.586 293.292H252.203V301.854H250.992V296.62L251.016 295.589L251.055 294.573L246.43 301.854H244.812V293.292H246.031ZM258.57 302.011C257.305 302.011 256.305 301.625 255.57 300.854C254.841 300.084 254.477 299.013 254.477 297.644C254.477 296.263 254.815 295.167 255.492 294.354C256.174 293.542 257.089 293.136 258.234 293.136C259.307 293.136 260.156 293.49 260.781 294.198C261.406 294.901 261.719 295.831 261.719 296.987V297.808H255.82C255.846 298.813 256.099 299.576 256.578 300.097C257.062 300.618 257.742 300.878 258.617 300.878C259.539 300.878 260.451 300.685 261.352 300.3V301.456C260.893 301.654 260.458 301.795 260.047 301.878C259.641 301.966 259.148 302.011 258.57 302.011ZM258.219 294.222C257.531 294.222 256.982 294.446 256.57 294.894C256.164 295.341 255.924 295.961 255.852 296.753H260.328C260.328 295.935 260.146 295.31 259.781 294.878C259.417 294.44 258.896 294.222 258.219 294.222ZM277.266 297.565C277.266 298.862 276.896 299.896 276.156 300.667C275.422 301.433 274.393 301.87 273.07 301.979V305.698H271.789V301.979C270.497 301.881 269.477 301.438 268.727 300.651C267.977 299.865 267.602 298.836 267.602 297.565C267.602 296.269 267.974 295.237 268.719 294.472C269.469 293.706 270.508 293.271 271.836 293.167V289.698H273.07V293.167C274.378 293.287 275.404 293.737 276.148 294.519C276.893 295.3 277.266 296.315 277.266 297.565ZM268.961 297.565C268.961 298.565 269.19 299.349 269.648 299.917C270.107 300.485 270.836 300.815 271.836 300.909V294.253C270.872 294.341 270.151 294.657 269.672 295.198C269.198 295.735 268.961 296.524 268.961 297.565ZM275.922 297.565C275.922 295.571 274.971 294.472 273.07 294.269V300.909C274.06 300.81 274.781 300.477 275.234 299.909C275.693 299.341 275.922 298.56 275.922 297.565ZM284.797 301.854L284.539 300.636H284.477C284.049 301.172 283.622 301.537 283.195 301.729C282.773 301.917 282.245 302.011 281.609 302.011C280.76 302.011 280.094 301.792 279.609 301.354C279.13 300.917 278.891 300.295 278.891 299.487C278.891 297.758 280.273 296.852 283.039 296.769L284.492 296.722V296.19C284.492 295.519 284.346 295.024 284.055 294.706C283.768 294.383 283.307 294.222 282.672 294.222C281.958 294.222 281.151 294.44 280.25 294.878L279.852 293.886C280.273 293.657 280.734 293.477 281.234 293.347C281.74 293.216 282.245 293.151 282.75 293.151C283.771 293.151 284.526 293.378 285.016 293.831C285.51 294.284 285.758 295.011 285.758 296.011V301.854H284.797ZM281.867 300.94C282.674 300.94 283.307 300.719 283.766 300.276C284.229 299.834 284.461 299.214 284.461 298.417V297.644L283.164 297.698C282.133 297.735 281.388 297.896 280.93 298.183C280.477 298.464 280.25 298.904 280.25 299.503C280.25 299.972 280.391 300.328 280.672 300.573C280.958 300.818 281.357 300.94 281.867 300.94ZM291.859 302.011C290.62 302.011 289.659 301.631 288.977 300.87C288.299 300.104 287.961 299.024 287.961 297.628C287.961 296.196 288.305 295.089 288.992 294.308C289.685 293.526 290.669 293.136 291.945 293.136C292.357 293.136 292.768 293.18 293.18 293.269C293.591 293.357 293.914 293.461 294.148 293.581L293.75 294.683C293.464 294.568 293.151 294.474 292.812 294.401C292.474 294.323 292.174 294.284 291.914 294.284C290.174 294.284 289.305 295.394 289.305 297.612C289.305 298.664 289.516 299.472 289.938 300.034C290.365 300.597 290.995 300.878 291.828 300.878C292.542 300.878 293.273 300.724 294.023 300.417V301.565C293.451 301.862 292.729 302.011 291.859 302.011ZM301.328 301.854L301.07 300.636H301.008C300.581 301.172 300.154 301.537 299.727 301.729C299.305 301.917 298.776 302.011 298.141 302.011C297.292 302.011 296.625 301.792 296.141 301.354C295.661 300.917 295.422 300.295 295.422 299.487C295.422 297.758 296.805 296.852 299.57 296.769L301.023 296.722V296.19C301.023 295.519 300.878 295.024 300.586 294.706C300.299 294.383 299.839 294.222 299.203 294.222C298.49 294.222 297.682 294.44 296.781 294.878L296.383 293.886C296.805 293.657 297.266 293.477 297.766 293.347C298.271 293.216 298.776 293.151 299.281 293.151C300.302 293.151 301.057 293.378 301.547 293.831C302.042 294.284 302.289 295.011 302.289 296.011V301.854H301.328ZM298.398 300.94C299.206 300.94 299.839 300.719 300.297 300.276C300.76 299.834 300.992 299.214 300.992 298.417V297.644L299.695 297.698C298.664 297.735 297.919 297.896 297.461 298.183C297.008 298.464 296.781 298.904 296.781 299.503C296.781 299.972 296.922 300.328 297.203 300.573C297.49 300.818 297.888 300.94 298.398 300.94ZM312.406 304.815H311.148V301.854H305.164V304.815H303.914V300.737H304.586C305.284 299.789 305.831 298.677 306.227 297.401C306.622 296.125 306.828 294.756 306.844 293.292H311.18V300.737H312.406V304.815ZM309.93 300.737V294.315H308.008C307.94 295.472 307.716 296.644 307.336 297.831C306.961 299.013 306.492 299.982 305.93 300.737H309.93ZM321.516 297.565C321.516 298.961 321.164 300.052 320.461 300.839C319.758 301.62 318.786 302.011 317.547 302.011C316.781 302.011 316.102 301.831 315.508 301.472C314.914 301.112 314.456 300.597 314.133 299.925C313.81 299.253 313.648 298.466 313.648 297.565C313.648 296.17 313.997 295.084 314.695 294.308C315.393 293.526 316.362 293.136 317.602 293.136C318.799 293.136 319.75 293.534 320.453 294.331C321.161 295.128 321.516 296.206 321.516 297.565ZM314.992 297.565C314.992 298.659 315.211 299.493 315.648 300.065C316.086 300.638 316.729 300.925 317.578 300.925C318.427 300.925 319.07 300.641 319.508 300.073C319.951 299.5 320.172 298.664 320.172 297.565C320.172 296.477 319.951 295.651 319.508 295.089C319.07 294.521 318.422 294.237 317.562 294.237C316.714 294.237 316.073 294.516 315.641 295.073C315.208 295.631 314.992 296.461 314.992 297.565ZM330.742 295.44C330.742 295.998 330.581 296.422 330.258 296.714C329.94 297 329.492 297.193 328.914 297.292V297.362C329.643 297.461 330.174 297.675 330.508 298.003C330.846 298.331 331.016 298.784 331.016 299.362C331.016 300.159 330.721 300.774 330.133 301.206C329.549 301.638 328.695 301.854 327.57 301.854H323.797V293.292H327.555C329.68 293.292 330.742 294.008 330.742 295.44ZM329.719 299.276C329.719 298.813 329.542 298.477 329.188 298.269C328.839 298.055 328.258 297.948 327.445 297.948H325.094V300.769H327.477C328.971 300.769 329.719 300.271 329.719 299.276ZM329.477 295.565C329.477 295.149 329.315 294.854 328.992 294.683C328.674 294.506 328.19 294.417 327.539 294.417H325.094V296.831H327.289C328.091 296.831 328.656 296.732 328.984 296.534C329.312 296.336 329.477 296.013 329.477 295.565Z" fill="#353535"/>
<path d="M193 33.6258L291 75" stroke="white"/>
<g filter="url(#filter4_i)">
<circle cx="186.5" cy="29.5" r="8.5" fill="white" fill-opacity="0.2"/>
</g>
<circle cx="186.5" cy="29.5" r="8" stroke="white" stroke-opacity="0.5"/>
<circle cx="186.5" cy="29.5" r="4.5" fill="white"/>
<g filter="url(#filter5_i)">
<rect x="290" y="53" width="378" height="43" rx="21.5" fill="white" fill-opacity="0.2"/>
</g>
<rect x="290.5" y="53.5" width="377" height="42" rx="21" stroke="white"/>
<rect x="293" y="56" width="372" height="37" rx="18.5" fill="white"/>
<path d="M313.367 76.6719C313.367 77.8073 313.029 78.6458 312.352 79.1875C311.68 79.7292 310.664 80 309.305 80H305.961V68.5781H312.695V69.7578H307.289V73.4531H309.062C310.068 73.4531 310.885 73.5703 311.516 73.8047C312.146 74.0339 312.612 74.375 312.914 74.8281C313.216 75.2812 313.367 75.8958 313.367 76.6719ZM307.289 78.8516H309.156C310.146 78.8516 310.865 78.6823 311.312 78.3438C311.766 78.0052 311.992 77.4479 311.992 76.6719C311.992 75.9323 311.763 75.4062 311.305 75.0938C310.846 74.7812 310.047 74.625 308.906 74.625H307.289V78.8516ZM319.195 80.1562C317.93 80.1562 316.93 79.7708 316.195 79C315.466 78.2292 315.102 77.1589 315.102 75.7891C315.102 74.4089 315.44 73.3125 316.117 72.5C316.799 71.6875 317.714 71.2812 318.859 71.2812C319.932 71.2812 320.781 71.6354 321.406 72.3438C322.031 73.0469 322.344 73.9766 322.344 75.1328V75.9531H316.445C316.471 76.9583 316.724 77.7214 317.203 78.2422C317.688 78.763 318.367 79.0234 319.242 79.0234C320.164 79.0234 321.076 78.8307 321.977 78.4453V79.6016C321.518 79.7995 321.083 79.9401 320.672 80.0234C320.266 80.112 319.773 80.1562 319.195 80.1562ZM318.844 72.3672C318.156 72.3672 317.607 72.5911 317.195 73.0391C316.789 73.487 316.549 74.1068 316.477 74.8984H320.953C320.953 74.0807 320.771 73.4557 320.406 73.0234C320.042 72.5859 319.521 72.3672 318.844 72.3672ZM327.984 80.1562C326.745 80.1562 325.784 79.776 325.102 79.0156C324.424 78.25 324.086 77.1693 324.086 75.7734C324.086 74.3411 324.43 73.2344 325.117 72.4531C325.81 71.6719 326.794 71.2812 328.07 71.2812C328.482 71.2812 328.893 71.3255 329.305 71.4141C329.716 71.5026 330.039 71.6068 330.273 71.7266L329.875 72.8281C329.589 72.7135 329.276 72.6198 328.938 72.5469C328.599 72.4688 328.299 72.4297 328.039 72.4297C326.299 72.4297 325.43 73.5391 325.43 75.7578C325.43 76.8099 325.641 77.6172 326.062 78.1797C326.49 78.7422 327.12 79.0234 327.953 79.0234C328.667 79.0234 329.398 78.8698 330.148 78.5625V79.7109C329.576 80.0078 328.854 80.1562 327.984 80.1562ZM338.57 78.8828H342.367V71.4375H343.68V80H332.188V71.4375H333.484V78.8828H337.273V71.4375H338.57V78.8828ZM345.078 71.4375H346.469L348.344 76.3203C348.755 77.4349 349.01 78.2396 349.109 78.7344H349.172C349.24 78.4688 349.38 78.0156 349.594 77.375C349.812 76.7292 350.521 74.75 351.719 71.4375H353.109L349.43 81.1875C349.065 82.151 348.638 82.8333 348.148 83.2344C347.664 83.6406 347.068 83.8438 346.359 83.8438C345.964 83.8438 345.573 83.7995 345.188 83.7109V82.6719C345.474 82.7344 345.794 82.7656 346.148 82.7656C347.039 82.7656 347.674 82.2656 348.055 81.2656L348.531 80.0469L345.078 71.4375ZM358.945 78.75L359.188 78.0234L359.523 77.1016L361.844 71.4531H363.492V80H362.344V72.9297L362.188 73.3828L361.734 74.5781L359.523 80H358.438L356.227 74.5625C355.951 73.8646 355.76 73.3203 355.656 72.9297V80H354.5V71.4531H356.086L358.328 76.8828C358.552 77.4557 358.758 78.0781 358.945 78.75ZM367.562 71.4375V75.0234H372.359V71.4375H373.656V80H372.359V76.1406H367.562V80H366.266V71.4375H367.562ZM377.703 74.9766H380.039C381.128 74.9766 381.932 75.1797 382.453 75.5859C382.979 75.987 383.242 76.5885 383.242 77.3906C383.242 78.25 382.964 78.901 382.406 79.3438C381.854 79.7812 381.039 80 379.961 80H376.406V71.4375H377.703V74.9766ZM385.977 80H384.68V71.4375H385.977V80ZM377.703 76.0938V78.9141H379.898C381.273 78.9141 381.961 78.4323 381.961 77.4688C381.961 76.9896 381.802 76.6406 381.484 76.4219C381.167 76.2031 380.625 76.0938 379.859 76.0938H377.703ZM392.352 80.1562C391.086 80.1562 390.086 79.7708 389.352 79C388.622 78.2292 388.258 77.1589 388.258 75.7891C388.258 74.4089 388.596 73.3125 389.273 72.5C389.956 71.6875 390.87 71.2812 392.016 71.2812C393.089 71.2812 393.938 71.6354 394.562 72.3438C395.188 73.0469 395.5 73.9766 395.5 75.1328V75.9531H389.602C389.628 76.9583 389.88 77.7214 390.359 78.2422C390.844 78.763 391.523 79.0234 392.398 79.0234C393.32 79.0234 394.232 78.8307 395.133 78.4453V79.6016C394.674 79.7995 394.24 79.9401 393.828 80.0234C393.422 80.112 392.93 80.1562 392.352 80.1562ZM392 72.3672C391.312 72.3672 390.763 72.5911 390.352 73.0391C389.945 73.487 389.706 74.1068 389.633 74.8984H394.109C394.109 74.0807 393.927 73.4557 393.562 73.0234C393.198 72.5859 392.677 72.3672 392 72.3672ZM405.297 80.1562C404.057 80.1562 403.096 79.776 402.414 79.0156C401.737 78.25 401.398 77.1693 401.398 75.7734C401.398 74.3411 401.742 73.2344 402.43 72.4531C403.122 71.6719 404.107 71.2812 405.383 71.2812C405.794 71.2812 406.206 71.3255 406.617 71.4141C407.029 71.5026 407.352 71.6068 407.586 71.7266L407.188 72.8281C406.901 72.7135 406.589 72.6198 406.25 72.5469C405.911 72.4688 405.612 72.4297 405.352 72.4297C403.612 72.4297 402.742 73.5391 402.742 75.7578C402.742 76.8099 402.953 77.6172 403.375 78.1797C403.802 78.7422 404.432 79.0234 405.266 79.0234C405.979 79.0234 406.711 78.8698 407.461 78.5625V79.7109C406.888 80.0078 406.167 80.1562 405.297 80.1562ZM410.719 71.4375V76.8672L410.664 78.2891L410.641 78.7344L415.273 71.4375H416.891V80H415.68V74.7656L415.703 73.7344L415.742 72.7188L411.117 80H409.5V71.4375H410.719ZM426.023 80H424.711V72.5469H422.141C422 74.401 421.805 75.8724 421.555 76.9609C421.305 78.0495 420.979 78.8464 420.578 79.3516C420.182 79.8568 419.677 80.1094 419.062 80.1094C418.781 80.1094 418.557 80.0781 418.391 80.0156V79.0547C418.505 79.0859 418.635 79.1016 418.781 79.1016C419.38 79.1016 419.857 78.4688 420.211 77.2031C420.565 75.9375 420.833 74.0156 421.016 71.4375H426.023V80ZM430 71.4375V76.8672L429.945 78.2891L429.922 78.7344L434.555 71.4375H436.172V80H434.961V74.7656L434.984 73.7344L435.023 72.7188L430.398 80H428.781V71.4375H430ZM443.914 71.4375H445.336L441.641 75.5703L445.641 80H444.125L440.219 75.6641V80H438.922V71.4375H440.219V75.6016L443.914 71.4375ZM454.625 75.7109C454.625 77.1068 454.273 78.1979 453.57 78.9844C452.867 79.7656 451.896 80.1562 450.656 80.1562C449.891 80.1562 449.211 79.9766 448.617 79.6172C448.023 79.2578 447.565 78.7422 447.242 78.0703C446.919 77.3984 446.758 76.612 446.758 75.7109C446.758 74.3151 447.107 73.2292 447.805 72.4531C448.503 71.6719 449.471 71.2812 450.711 71.2812C451.909 71.2812 452.859 71.6797 453.562 72.4766C454.271 73.2734 454.625 74.3516 454.625 75.7109ZM448.102 75.7109C448.102 76.8047 448.32 77.638 448.758 78.2109C449.195 78.7839 449.839 79.0703 450.688 79.0703C451.536 79.0703 452.18 78.7865 452.617 78.2188C453.06 77.6458 453.281 76.8099 453.281 75.7109C453.281 74.6224 453.06 73.7969 452.617 73.2344C452.18 72.6667 451.531 72.3828 450.672 72.3828C449.823 72.3828 449.182 72.6615 448.75 73.2188C448.318 73.776 448.102 74.6068 448.102 75.7109ZM458.203 71.4375V75.0234H463V71.4375H464.297V80H463V76.1406H458.203V80H456.906V71.4375H458.203ZM474.438 75.7109C474.438 77.1068 474.086 78.1979 473.383 78.9844C472.68 79.7656 471.708 80.1562 470.469 80.1562C469.703 80.1562 469.023 79.9766 468.43 79.6172C467.836 79.2578 467.378 78.7422 467.055 78.0703C466.732 77.3984 466.57 76.612 466.57 75.7109C466.57 74.3151 466.919 73.2292 467.617 72.4531C468.315 71.6719 469.284 71.2812 470.523 71.2812C471.721 71.2812 472.672 71.6797 473.375 72.4766C474.083 73.2734 474.438 74.3516 474.438 75.7109ZM467.914 75.7109C467.914 76.8047 468.133 77.638 468.57 78.2109C469.008 78.7839 469.651 79.0703 470.5 79.0703C471.349 79.0703 471.992 78.7865 472.43 78.2188C472.872 77.6458 473.094 76.8099 473.094 75.7109C473.094 74.6224 472.872 73.7969 472.43 73.2344C471.992 72.6667 471.344 72.3828 470.484 72.3828C469.635 72.3828 468.995 72.6615 468.562 73.2188C468.13 73.776 467.914 74.6068 467.914 75.7109ZM483.664 73.5859C483.664 74.1432 483.503 74.5677 483.18 74.8594C482.862 75.1458 482.414 75.3385 481.836 75.4375V75.5078C482.565 75.6068 483.096 75.8203 483.43 76.1484C483.768 76.4766 483.938 76.9297 483.938 77.5078C483.938 78.3047 483.643 78.9193 483.055 79.3516C482.471 79.7839 481.617 80 480.492 80H476.719V71.4375H480.477C482.602 71.4375 483.664 72.1536 483.664 73.5859ZM482.641 77.4219C482.641 76.9583 482.464 76.6224 482.109 76.4141C481.76 76.2005 481.18 76.0938 480.367 76.0938H478.016V78.9141H480.398C481.893 78.9141 482.641 78.4167 482.641 77.4219ZM482.398 73.7109C482.398 73.2943 482.237 73 481.914 72.8281C481.596 72.651 481.112 72.5625 480.461 72.5625H478.016V74.9766H480.211C481.013 74.9766 481.578 74.8776 481.906 74.6797C482.234 74.4818 482.398 74.1589 482.398 73.7109ZM487.125 74.9766H489.461C490.549 74.9766 491.354 75.1797 491.875 75.5859C492.401 75.987 492.664 76.5885 492.664 77.3906C492.664 78.25 492.385 78.901 491.828 79.3438C491.276 79.7812 490.461 80 489.383 80H485.828V71.4375H487.125V74.9766ZM495.398 80H494.102V71.4375H495.398V80ZM487.125 76.0938V78.9141H489.32C490.695 78.9141 491.383 78.4323 491.383 77.4688C491.383 76.9896 491.224 76.6406 490.906 76.4219C490.589 76.2031 490.047 76.0938 489.281 76.0938H487.125ZM501.773 80.1562C500.508 80.1562 499.508 79.7708 498.773 79C498.044 78.2292 497.68 77.1589 497.68 75.7891C497.68 74.4089 498.018 73.3125 498.695 72.5C499.378 71.6875 500.292 71.2812 501.438 71.2812C502.51 71.2812 503.359 71.6354 503.984 72.3438C504.609 73.0469 504.922 73.9766 504.922 75.1328V75.9531H499.023C499.049 76.9583 499.302 77.7214 499.781 78.2422C500.266 78.763 500.945 79.0234 501.82 79.0234C502.742 79.0234 503.654 78.8307 504.555 78.4453V79.6016C504.096 79.7995 503.661 79.9401 503.25 80.0234C502.844 80.112 502.352 80.1562 501.773 80.1562ZM501.422 72.3672C500.734 72.3672 500.185 72.5911 499.773 73.0391C499.367 73.487 499.128 74.1068 499.055 74.8984H503.531C503.531 74.0807 503.349 73.4557 502.984 73.0234C502.62 72.5859 502.099 72.3672 501.422 72.3672ZM515.281 80.1562C514.724 80.1562 514.214 80.0547 513.75 79.8516C513.292 79.6432 512.906 79.3255 512.594 78.8984H512.5C512.562 79.3984 512.594 79.8724 512.594 80.3203V83.8438H511.297V71.4375H512.352L512.531 72.6094H512.594C512.927 72.1406 513.315 71.8021 513.758 71.5938C514.201 71.3854 514.708 71.2812 515.281 71.2812C516.417 71.2812 517.292 71.6693 517.906 72.4453C518.526 73.2214 518.836 74.3099 518.836 75.7109C518.836 77.1172 518.521 78.2109 517.891 78.9922C517.266 79.7682 516.396 80.1562 515.281 80.1562ZM515.094 72.3828C514.219 72.3828 513.586 72.625 513.195 73.1094C512.805 73.5938 512.604 74.3646 512.594 75.4219V75.7109C512.594 76.9141 512.794 77.776 513.195 78.2969C513.596 78.8125 514.24 79.0703 515.125 79.0703C515.865 79.0703 516.443 78.7708 516.859 78.1719C517.281 77.5729 517.492 76.7474 517.492 75.6953C517.492 74.6276 517.281 73.8099 516.859 73.2422C516.443 72.6693 515.854 72.3828 515.094 72.3828ZM528.5 75.7109C528.5 77.1068 528.148 78.1979 527.445 78.9844C526.742 79.7656 525.771 80.1562 524.531 80.1562C523.766 80.1562 523.086 79.9766 522.492 79.6172C521.898 79.2578 521.44 78.7422 521.117 78.0703C520.794 77.3984 520.633 76.612 520.633 75.7109C520.633 74.3151 520.982 73.2292 521.68 72.4531C522.378 71.6719 523.346 71.2812 524.586 71.2812C525.784 71.2812 526.734 71.6797 527.438 72.4766C528.146 73.2734 528.5 74.3516 528.5 75.7109ZM521.977 75.7109C521.977 76.8047 522.195 77.638 522.633 78.2109C523.07 78.7839 523.714 79.0703 524.562 79.0703C525.411 79.0703 526.055 78.7865 526.492 78.2188C526.935 77.6458 527.156 76.8099 527.156 75.7109C527.156 74.6224 526.935 73.7969 526.492 73.2344C526.055 72.6667 525.406 72.3828 524.547 72.3828C523.698 72.3828 523.057 72.6615 522.625 73.2188C522.193 73.776 521.977 74.6068 521.977 75.7109ZM537.164 80H535.852V72.5469H533.281C533.141 74.401 532.945 75.8724 532.695 76.9609C532.445 78.0495 532.12 78.8464 531.719 79.3516C531.323 79.8568 530.818 80.1094 530.203 80.1094C529.922 80.1094 529.698 80.0781 529.531 80.0156V79.0547C529.646 79.0859 529.776 79.1016 529.922 79.1016C530.521 79.1016 530.997 78.4688 531.352 77.2031C531.706 75.9375 531.974 74.0156 532.156 71.4375H537.164V80ZM541.141 71.4375V76.8672L541.086 78.2891L541.062 78.7344L545.695 71.4375H547.312V80H546.102V74.7656L546.125 73.7344L546.164 72.7188L541.539 80H539.922V71.4375H541.141ZM555.055 71.4375H556.477L552.781 75.5703L556.781 80H555.266L551.359 75.6641V80H550.062V71.4375H551.359V75.6016L555.055 71.4375ZM559.594 71.4375V76.8672L559.539 78.2891L559.516 78.7344L564.148 71.4375H565.766V80H564.555V74.7656L564.578 73.7344L564.617 72.7188L559.992 80H558.375V71.4375H559.594ZM573.789 68.5781L573.477 72.7031H572.656L572.336 68.5781H573.789ZM576.672 68.5781L576.352 72.7031H575.539L575.219 68.5781H576.672ZM580.391 80H579.094V71.4375H586.281V80H584.969V72.5625H580.391V80ZM593.016 80.1562C592.458 80.1562 591.948 80.0547 591.484 79.8516C591.026 79.6432 590.641 79.3255 590.328 78.8984H590.234C590.297 79.3984 590.328 79.8724 590.328 80.3203V83.8438H589.031V71.4375H590.086L590.266 72.6094H590.328C590.661 72.1406 591.049 71.8021 591.492 71.5938C591.935 71.3854 592.443 71.2812 593.016 71.2812C594.151 71.2812 595.026 71.6693 595.641 72.4453C596.26 73.2214 596.57 74.3099 596.57 75.7109C596.57 77.1172 596.255 78.2109 595.625 78.9922C595 79.7682 594.13 80.1562 593.016 80.1562ZM592.828 72.3828C591.953 72.3828 591.32 72.625 590.93 73.1094C590.539 73.5938 590.339 74.3646 590.328 75.4219V75.7109C590.328 76.9141 590.529 77.776 590.93 78.2969C591.331 78.8125 591.974 79.0703 592.859 79.0703C593.599 79.0703 594.177 78.7708 594.594 78.1719C595.016 77.5729 595.227 76.7474 595.227 75.6953C595.227 74.6276 595.016 73.8099 594.594 73.2422C594.177 72.6693 593.589 72.3828 592.828 72.3828ZM602.461 80.1562C601.195 80.1562 600.195 79.7708 599.461 79C598.732 78.2292 598.367 77.1589 598.367 75.7891C598.367 74.4089 598.706 73.3125 599.383 72.5C600.065 71.6875 600.979 71.2812 602.125 71.2812C603.198 71.2812 604.047 71.6354 604.672 72.3438C605.297 73.0469 605.609 73.9766 605.609 75.1328V75.9531H599.711C599.737 76.9583 599.99 77.7214 600.469 78.2422C600.953 78.763 601.633 79.0234 602.508 79.0234C603.43 79.0234 604.341 78.8307 605.242 78.4453V79.6016C604.784 79.7995 604.349 79.9401 603.938 80.0234C603.531 80.112 603.039 80.1562 602.461 80.1562ZM602.109 72.3672C601.422 72.3672 600.872 72.5911 600.461 73.0391C600.055 73.487 599.815 74.1068 599.742 74.8984H604.219C604.219 74.0807 604.036 73.4557 603.672 73.0234C603.307 72.5859 602.786 72.3672 602.109 72.3672ZM612.273 78.75L612.516 78.0234L612.852 77.1016L615.172 71.4531H616.82V80H615.672V72.9297L615.516 73.3828L615.062 74.5781L612.852 80H611.766L609.555 74.5625C609.279 73.8646 609.089 73.3203 608.984 72.9297V80H607.828V71.4531H609.414L611.656 76.8828C611.88 77.4557 612.086 78.0781 612.273 78.75ZM620.812 71.4375V76.8672L620.758 78.2891L620.734 78.7344L625.367 71.4375H626.984V80H625.773V74.7656L625.797 73.7344L625.836 72.7188L621.211 80H619.594V71.4375H620.812ZM628.375 71.4375H629.766L631.641 76.3203C632.052 77.4349 632.307 78.2396 632.406 78.7344H632.469C632.536 78.4688 632.677 78.0156 632.891 77.375C633.109 76.7292 633.818 74.75 635.016 71.4375H636.406L632.727 81.1875C632.362 82.151 631.935 82.8333 631.445 83.2344C630.961 83.6406 630.365 83.8438 629.656 83.8438C629.26 83.8438 628.87 83.7995 628.484 83.7109V82.6719C628.771 82.7344 629.091 82.7656 629.445 82.7656C630.336 82.7656 630.971 82.2656 631.352 81.2656L631.828 80.0469L628.375 71.4375ZM642.242 78.75L642.484 78.0234L642.82 77.1016L645.141 71.4531H646.789V80H645.641V72.9297L645.484 73.3828L645.031 74.5781L642.82 80H641.734L639.523 74.5625C639.247 73.8646 639.057 73.3203 638.953 72.9297V80H637.797V71.4531H639.383L641.625 76.8828C641.849 77.4557 642.055 78.0781 642.242 78.75ZM650.68 68.5781L650.367 72.7031H649.547L649.227 68.5781H650.68ZM653.562 68.5781L653.242 72.7031H652.43L652.109 68.5781H653.562Z" fill="#353535"/>
<defs>
<filter id="filter0_i" x="819" y="582.854" width="17" height="17" filterUnits="userSpaceOnUse" color-interpolation-filters="sRGB">
<feFlood flood-opacity="0" result="BackgroundImageFix"/>
<feBlend mode="normal" in="SourceGraphic" in2="BackgroundImageFix" result="shape"/>
<feColorMatrix in="SourceAlpha" type="matrix" values="0 0 0 0 0 0 0 0 0 0 0 0 0 0 0 0 0 0 127 0" result="hardAlpha"/>
<feOffset/>
<feGaussianBlur stdDeviation="2"/>
<feComposite in2="hardAlpha" operator="arithmetic" k2="-1" k3="1"/>
<feColorMatrix type="matrix" values="0 0 0 0 1 0 0 0 0 1 0 0 0 0 1 0 0 0 1 0"/>
<feBlend mode="normal" in2="shape" result="effect1_innerShadow"/>
</filter>
<filter id="filter1_i" x="446" y="535" width="289" height="43" filterUnits="userSpaceOnUse" color-interpolation-filters="sRGB">
<feFlood flood-opacity="0" result="BackgroundImageFix"/>
<feBlend mode="normal" in="SourceGraphic" in2="BackgroundImageFix" result="shape"/>
<feColorMatrix in="SourceAlpha" type="matrix" values="0 0 0 0 0 0 0 0 0 0 0 0 0 0 0 0 0 0 127 0" result="hardAlpha"/>
<feOffset/>
<feGaussianBlur stdDeviation="2"/>
<feComposite in2="hardAlpha" operator="arithmetic" k2="-1" k3="1"/>
<feColorMatrix type="matrix" values="0 0 0 0 1 0 0 0 0 1 0 0 0 0 1 0 0 0 1 0"/>
<feBlend mode="normal" in2="shape" result="effect1_innerShadow"/>
</filter>
<filter id="filter2_i" x="429" y="322.854" width="17" height="17" filterUnits="userSpaceOnUse" color-interpolation-filters="sRGB">
<feFlood flood-opacity="0" result="BackgroundImageFix"/>
<feBlend mode="normal" in="SourceGraphic" in2="BackgroundImageFix" result="shape"/>
<feColorMatrix in="SourceAlpha" type="matrix" values="0 0 0 0 0 0 0 0 0 0 0 0 0 0 0 0 0 0 127 0" result="hardAlpha"/>
<feOffset/>
<feGaussianBlur stdDeviation="2"/>
<feComposite in2="hardAlpha" operator="arithmetic" k2="-1" k3="1"/>
<feColorMatrix type="matrix" values="0 0 0 0 1 0 0 0 0 1 0 0 0 0 1 0 0 0 1 0"/>
<feBlend mode="normal" in2="shape" result="effect1_innerShadow"/>
</filter>
<filter id="filter3_i" x="0" y="275" width="345" height="43" filterUnits="userSpaceOnUse" color-interpolation-filters="sRGB">
<feFlood flood-opacity="0" result="BackgroundImageFix"/>
<feBlend mode="normal" in="SourceGraphic" in2="BackgroundImageFix" result="shape"/>
<feColorMatrix in="SourceAlpha" type="matrix" values="0 0 0 0 0 0 0 0 0 0 0 0 0 0 0 0 0 0 127 0" result="hardAlpha"/>
<feOffset/>
<feGaussianBlur stdDeviation="2"/>
<feComposite in2="hardAlpha" operator="arithmetic" k2="-1" k3="1"/>
<feColorMatrix type="matrix" values="0 0 0 0 1 0 0 0 0 1 0 0 0 0 1 0 0 0 1 0"/>
<feBlend mode="normal" in2="shape" result="effect1_innerShadow"/>
</filter>
<filter id="filter4_i" x="178" y="21" width="17" height="17" filterUnits="userSpaceOnUse" color-interpolation-filters="sRGB">
<feFlood flood-opacity="0" result="BackgroundImageFix"/>
<feBlend mode="normal" in="SourceGraphic" in2="BackgroundImageFix" result="shape"/>
<feColorMatrix in="SourceAlpha" type="matrix" values="0 0 0 0 0 0 0 0 0 0 0 0 0 0 0 0 0 0 127 0" result="hardAlpha"/>
<feOffset/>
<feGaussianBlur stdDeviation="2"/>
<feComposite in2="hardAlpha" operator="arithmetic" k2="-1" k3="1"/>
<feColorMatrix type="matrix" values="0 0 0 0 1 0 0 0 0 1 0 0 0 0 1 0 0 0 1 0"/>
<feBlend mode="normal" in2="shape" result="effect1_innerShadow"/>
</filter>
<filter id="filter5_i" x="290" y="53" width="378" height="43" filterUnits="userSpaceOnUse" color-interpolation-filters="sRGB">
<feFlood flood-opacity="0" result="BackgroundImageFix"/>
<feBlend mode="normal" in="SourceGraphic" in2="BackgroundImageFix" result="shape"/>
<feColorMatrix in="SourceAlpha" type="matrix" values="0 0 0 0 0 0 0 0 0 0 0 0 0 0 0 0 0 0 127 0" result="hardAlpha"/>
<feOffset/>
<feGaussianBlur stdDeviation="2"/>
<feComposite in2="hardAlpha" operator="arithmetic" k2="-1" k3="1"/>
<feColorMatrix type="matrix" values="0 0 0 0 1 0 0 0 0 1 0 0 0 0 1 0 0 0 1 0"/>
<feBlend mode="normal" in2="shape" result="effect1_innerShadow"/>
</filter>
</defs>
</svg>
